solid OpenSCAD_Model
  facet normal -0 0 1
    outer loop
      vertex 2 12 1
      vertex 3 8 1
      vertex 3 12 1
    endloop
  endfacet
  facet normal 0 0 1
    outer loop
      vertex 3 8 1
      vertex 2 12 1
      vertex 2 8 1
    endloop
  endfacet
  facet normal -0 0 1
    outer loop
      vertex 3 13 1
      vertex 5 12 1
      vertex 5 13 1
    endloop
  endfacet
  facet normal 0 0 1
    outer loop
      vertex 5 12 1
      vertex 3 13 1
      vertex 3 12 1
    endloop
  endfacet
  facet normal 0 0 -1
    outer loop
      vertex 10 2 0
      vertex 9 2 0
      vertex 10 3 0
    endloop
  endfacet
  facet normal 0 0 -1
    outer loop
      vertex 11 3 0
      vertex 10 3 0
      vertex 11 4 0
    endloop
  endfacet
  facet normal 0 0 -1
    outer loop
      vertex 12 4 0
      vertex 11 4 0
      vertex 12 5 0
    endloop
  endfacet
  facet normal 0 0 -1
    outer loop
      vertex 12 5 0
      vertex 13 6 0
      vertex 13 5 0
    endloop
  endfacet
  facet normal 0 0 -1
    outer loop
      vertex 8 12 0
      vertex 13 6 0
      vertex 12 5 0
    endloop
  endfacet
  facet normal 0 0 -1
    outer loop
      vertex 13 6 0
      vertex 8 12 0
      vertex 13 13 0
    endloop
  endfacet
  facet normal 0 0 -1
    outer loop
      vertex 8 12 0
      vertex 12 5 0
      vertex 11 4 0
    endloop
  endfacet
  facet normal 0 0 -1
    outer loop
      vertex 4 4 0
      vertex 11 4 0
      vertex 10 3 0
    endloop
  endfacet
  facet normal 0 0 -1
    outer loop
      vertex 5 3 0
      vertex 10 3 0
      vertex 9 2 0
    endloop
  endfacet
  facet normal -0 0 -1
    outer loop
      vertex 13 13 0
      vertex 8 12 0
      vertex 9 13 0
    endloop
  endfacet
  facet normal -0 0 -1
    outer loop
      vertex 13 14 0
      vertex 9 13 0
      vertex 9 14 0
    endloop
  endfacet
  facet normal 0 0 -1
    outer loop
      vertex 13 6 0
      vertex 14 8 0
      vertex 14 6 0
    endloop
  endfacet
  facet normal 0 0 -1
    outer loop
      vertex 13 13 0
      vertex 14 8 0
      vertex 13 6 0
    endloop
  endfacet
  facet normal 0 0 -1
    outer loop
      vertex 14 8 0
      vertex 13 13 0
      vertex 14 12 0
    endloop
  endfacet
  facet normal 0 0 -1
    outer loop
      vertex 14 12 0
      vertex 13 13 0
      vertex 14 13 0
    endloop
  endfacet
  facet normal 0 0 -1
    outer loop
      vertex 14 8 0
      vertex 15 12 0
      vertex 15 8 0
    endloop
  endfacet
  facet normal -0 0 -1
    outer loop
      vertex 15 12 0
      vertex 14 8 0
      vertex 14 12 0
    endloop
  endfacet
  facet normal 0 0 -1
    outer loop
      vertex 0 8 0
      vertex 1 12 0
      vertex 1 8 0
    endloop
  endfacet
  facet normal -0 0 -1
    outer loop
      vertex 1 12 0
      vertex 0 8 0
      vertex 0 12 0
    endloop
  endfacet
  facet normal 0 0 -1
    outer loop
      vertex 1 8 0
      vertex 2 6 0
      vertex 1 6 0
    endloop
  endfacet
  facet normal 0 0 -1
    outer loop
      vertex 2 6 0
      vertex 1 8 0
      vertex 2 13 0
    endloop
  endfacet
  facet normal 0 0 -1
    outer loop
      vertex 1 12 0
      vertex 2 13 0
      vertex 1 8 0
    endloop
  endfacet
  facet normal -0 0 -1
    outer loop
      vertex 2 13 0
      vertex 1 12 0
      vertex 1 13 0
    endloop
  endfacet
  facet normal 0 0 -1
    outer loop
      vertex 8 1 0
      vertex 9 2 0
      vertex 9 1 0
    endloop
  endfacet
  facet normal -0 0 -1
    outer loop
      vertex 9 2 0
      vertex 8 1 0
      vertex 6 2 0
    endloop
  endfacet
  facet normal 0 0 -1
    outer loop
      vertex 13 13 0
      vertex 9 13 0
      vertex 13 14 0
    endloop
  endfacet
  facet normal -0 0 -1
    outer loop
      vertex 9 13 0
      vertex 8 12 0
      vertex 8 13 0
    endloop
  endfacet
  facet normal 0 0 -1
    outer loop
      vertex 7 1 0
      vertex 8 1 0
      vertex 8 0 0
    endloop
  endfacet
  facet normal 0 0 -1
    outer loop
      vertex 7 1 0
      vertex 8 0 0
      vertex 7 0 0
    endloop
  endfacet
  facet normal 0 0 -1
    outer loop
      vertex 6 2 0
      vertex 8 1 0
      vertex 7 1 0
    endloop
  endfacet
  facet normal 0 0 -1
    outer loop
      vertex 9 2 0
      vertex 6 2 0
      vertex 5 3 0
    endloop
  endfacet
  facet normal 0 0 -1
    outer loop
      vertex 4 4 0
      vertex 10 3 0
      vertex 5 3 0
    endloop
  endfacet
  facet normal 0 0 -1
    outer loop
      vertex 6 2 0
      vertex 7 1 0
      vertex 6 1 0
    endloop
  endfacet
  facet normal 0 0 -1
    outer loop
      vertex 11 4 0
      vertex 4 4 0
      vertex 8 12 0
    endloop
  endfacet
  facet normal -0 0 -1
    outer loop
      vertex 8 12 0
      vertex 4 4 0
      vertex 7 12 0
    endloop
  endfacet
  facet normal 0 0 -1
    outer loop
      vertex 3 5 0
      vertex 7 12 0
      vertex 4 4 0
    endloop
  endfacet
  facet normal 0 0 -1
    outer loop
      vertex 5 3 0
      vertex 6 2 0
      vertex 5 2 0
    endloop
  endfacet
  facet normal 0 0 -1
    outer loop
      vertex 2 6 0
      vertex 7 12 0
      vertex 3 5 0
    endloop
  endfacet
  facet normal 0 0 -1
    outer loop
      vertex 4 4 0
      vertex 5 3 0
      vertex 4 3 0
    endloop
  endfacet
  facet normal 0 0 -1
    outer loop
      vertex 7 12 0
      vertex 6 13 0
      vertex 7 13 0
    endloop
  endfacet
  facet normal 0 0 -1
    outer loop
      vertex 3 5 0
      vertex 4 4 0
      vertex 3 4 0
    endloop
  endfacet
  facet normal 0 0 -1
    outer loop
      vertex 2 13 0
      vertex 7 12 0
      vertex 2 6 0
    endloop
  endfacet
  facet normal 0 0 -1
    outer loop
      vertex 2 6 0
      vertex 3 5 0
      vertex 2 5 0
    endloop
  endfacet
  facet normal 0 0 -1
    outer loop
      vertex 7 12 0
      vertex 2 13 0
      vertex 6 13 0
    endloop
  endfacet
  facet normal 0 0 -1
    outer loop
      vertex 6 13 0
      vertex 2 13 0
      vertex 6 14 0
    endloop
  endfacet
  facet normal -0 0 -1
    outer loop
      vertex 6 14 0
      vertex 2 13 0
      vertex 2 14 0
    endloop
  endfacet
  facet normal -1 0 0
    outer loop
      vertex 2 13 0
      vertex 2 14 2
      vertex 2 14 0
    endloop
  endfacet
  facet normal -1 -0 0
    outer loop
      vertex 2 14 2
      vertex 2 13 0
      vertex 2 13 2
    endloop
  endfacet
  facet normal 0 1 -0
    outer loop
      vertex 6 14 0
      vertex 2 14 2
      vertex 6 14 2
    endloop
  endfacet
  facet normal 0 1 0
    outer loop
      vertex 2 14 2
      vertex 6 14 0
      vertex 2 14 0
    endloop
  endfacet
  facet normal 0 1 -0
    outer loop
      vertex 7 13 0
      vertex 6 13 2
      vertex 7 13 2
    endloop
  endfacet
  facet normal 0 1 0
    outer loop
      vertex 6 13 2
      vertex 7 13 0
      vertex 6 13 0
    endloop
  endfacet
  facet normal 0 -1 0
    outer loop
      vertex 3 13 1
      vertex 5 13 2
      vertex 3 13 2
    endloop
  endfacet
  facet normal 0 -1 -0
    outer loop
      vertex 5 13 2
      vertex 3 13 1
      vertex 5 13 1
    endloop
  endfacet
  facet normal 0 1 -0
    outer loop
      vertex 2 13 0
      vertex 1 13 2
      vertex 2 13 2
    endloop
  endfacet
  facet normal 0 1 0
    outer loop
      vertex 1 13 2
      vertex 2 13 0
      vertex 1 13 0
    endloop
  endfacet
  facet normal 1 -0 0
    outer loop
      vertex 6 13 2
      vertex 6 14 0
      vertex 6 14 2
    endloop
  endfacet
  facet normal 1 0 0
    outer loop
      vertex 6 14 0
      vertex 6 13 2
      vertex 6 13 0
    endloop
  endfacet
  facet normal -1 0 0
    outer loop
      vertex 9 13 0
      vertex 9 14 2
      vertex 9 14 0
    endloop
  endfacet
  facet normal -1 -0 0
    outer loop
      vertex 9 14 2
      vertex 9 13 0
      vertex 9 13 2
    endloop
  endfacet
  facet normal 0 1 -0
    outer loop
      vertex 13 14 0
      vertex 9 14 2
      vertex 13 14 2
    endloop
  endfacet
  facet normal 0 1 0
    outer loop
      vertex 9 14 2
      vertex 13 14 0
      vertex 9 14 0
    endloop
  endfacet
  facet normal 0 1 -0
    outer loop
      vertex 14 13 0
      vertex 13 13 2
      vertex 14 13 2
    endloop
  endfacet
  facet normal 0 1 0
    outer loop
      vertex 13 13 2
      vertex 14 13 0
      vertex 13 13 0
    endloop
  endfacet
  facet normal 0 1 -0
    outer loop
      vertex 9 13 0
      vertex 8 13 2
      vertex 9 13 2
    endloop
  endfacet
  facet normal 0 1 0
    outer loop
      vertex 8 13 2
      vertex 9 13 0
      vertex 8 13 0
    endloop
  endfacet
  facet normal 1 -0 0
    outer loop
      vertex 13 13 2
      vertex 13 14 0
      vertex 13 14 2
    endloop
  endfacet
  facet normal 1 0 0
    outer loop
      vertex 13 14 0
      vertex 13 13 2
      vertex 13 13 0
    endloop
  endfacet
  facet normal -1 0 0
    outer loop
      vertex 1 12 0
      vertex 1 13 2
      vertex 1 13 0
    endloop
  endfacet
  facet normal -1 -0 0
    outer loop
      vertex 1 13 2
      vertex 1 12 0
      vertex 1 12 2
    endloop
  endfacet
  facet normal 0 1 -0
    outer loop
      vertex 15 12 0
      vertex 14 12 2
      vertex 15 12 2
    endloop
  endfacet
  facet normal 0 1 0
    outer loop
      vertex 14 12 2
      vertex 15 12 0
      vertex 14 12 0
    endloop
  endfacet
  facet normal 0 1 -0
    outer loop
      vertex 5 12 1
      vertex 3 12 2
      vertex 5 12 2
    endloop
  endfacet
  facet normal 0 1 0
    outer loop
      vertex 3 12 2
      vertex 5 12 1
      vertex 3 12 1
    endloop
  endfacet
  facet normal 0 -1 0
    outer loop
      vertex 2 12 1
      vertex 3 12 2
      vertex 2 12 2
    endloop
  endfacet
  facet normal 0 -1 -0
    outer loop
      vertex 3 12 2
      vertex 2 12 1
      vertex 3 12 1
    endloop
  endfacet
  facet normal 0 1 -0
    outer loop
      vertex 1 12 0
      vertex 0 12 2
      vertex 1 12 2
    endloop
  endfacet
  facet normal 0 1 0
    outer loop
      vertex 0 12 2
      vertex 1 12 0
      vertex 0 12 0
    endloop
  endfacet
  facet normal 0 1 -0
    outer loop
      vertex 8 12 0
      vertex 7 12 2
      vertex 8 12 2
    endloop
  endfacet
  facet normal 0 1 0
    outer loop
      vertex 7 12 2
      vertex 8 12 0
      vertex 7 12 0
    endloop
  endfacet
  facet normal 1 -0 0
    outer loop
      vertex 7 12 2
      vertex 7 13 0
      vertex 7 13 2
    endloop
  endfacet
  facet normal 1 0 0
    outer loop
      vertex 7 13 0
      vertex 7 12 2
      vertex 7 12 0
    endloop
  endfacet
  facet normal -1 0 0
    outer loop
      vertex 8 12 0
      vertex 8 13 2
      vertex 8 13 0
    endloop
  endfacet
  facet normal -1 -0 0
    outer loop
      vertex 8 13 2
      vertex 8 12 0
      vertex 8 12 2
    endloop
  endfacet
  facet normal 1 -0 0
    outer loop
      vertex 14 12 2
      vertex 14 13 0
      vertex 14 13 2
    endloop
  endfacet
  facet normal 1 0 0
    outer loop
      vertex 14 13 0
      vertex 14 12 2
      vertex 14 12 0
    endloop
  endfacet
  facet normal -1 0 0
    outer loop
      vertex 0 8 0
      vertex 0 12 2
      vertex 0 12 0
    endloop
  endfacet
  facet normal -1 -0 0
    outer loop
      vertex 0 12 2
      vertex 0 8 0
      vertex 0 8 2
    endloop
  endfacet
  facet normal 1 -0 0
    outer loop
      vertex 15 8 2
      vertex 15 12 0
      vertex 15 12 2
    endloop
  endfacet
  facet normal 1 0 0
    outer loop
      vertex 15 12 0
      vertex 15 8 2
      vertex 15 8 0
    endloop
  endfacet
  facet normal 0 -1 0
    outer loop
      vertex 14 8 0
      vertex 15 8 2
      vertex 14 8 2
    endloop
  endfacet
  facet normal 0 -1 -0
    outer loop
      vertex 15 8 2
      vertex 14 8 0
      vertex 15 8 0
    endloop
  endfacet
  facet normal 0 -1 0
    outer loop
      vertex 0 8 0
      vertex 1 8 2
      vertex 0 8 2
    endloop
  endfacet
  facet normal 0 -1 -0
    outer loop
      vertex 1 8 2
      vertex 0 8 0
      vertex 1 8 0
    endloop
  endfacet
  facet normal 0 1 -0
    outer loop
      vertex 3 8 1
      vertex 2 8 2
      vertex 3 8 2
    endloop
  endfacet
  facet normal 0 1 0
    outer loop
      vertex 2 8 2
      vertex 3 8 1
      vertex 2 8 1
    endloop
  endfacet
  facet normal -1 0 0
    outer loop
      vertex 1 6 0
      vertex 1 8 2
      vertex 1 8 0
    endloop
  endfacet
  facet normal -1 -0 0
    outer loop
      vertex 1 8 2
      vertex 1 6 0
      vertex 1 6 2
    endloop
  endfacet
  facet normal 1 -0 0
    outer loop
      vertex 14 6 2
      vertex 14 8 0
      vertex 14 8 2
    endloop
  endfacet
  facet normal 1 0 0
    outer loop
      vertex 14 8 0
      vertex 14 6 2
      vertex 14 6 0
    endloop
  endfacet
  facet normal 0 -1 0
    outer loop
      vertex 13 6 0
      vertex 14 6 2
      vertex 13 6 2
    endloop
  endfacet
  facet normal 0 -1 -0
    outer loop
      vertex 14 6 2
      vertex 13 6 0
      vertex 14 6 0
    endloop
  endfacet
  facet normal 0 -1 0
    outer loop
      vertex 1 6 0
      vertex 2 6 2
      vertex 1 6 2
    endloop
  endfacet
  facet normal 0 -1 -0
    outer loop
      vertex 2 6 2
      vertex 1 6 0
      vertex 2 6 0
    endloop
  endfacet
  facet normal -1 0 0
    outer loop
      vertex 2 5 0
      vertex 2 6 2
      vertex 2 6 0
    endloop
  endfacet
  facet normal -1 -0 0
    outer loop
      vertex 2 6 2
      vertex 2 5 0
      vertex 2 5 2
    endloop
  endfacet
  facet normal 0 -1 0
    outer loop
      vertex 12 5 0
      vertex 13 5 2
      vertex 12 5 2
    endloop
  endfacet
  facet normal 0 -1 -0
    outer loop
      vertex 13 5 2
      vertex 12 5 0
      vertex 13 5 0
    endloop
  endfacet
  facet normal 0 -1 0
    outer loop
      vertex 2 5 0
      vertex 3 5 2
      vertex 2 5 2
    endloop
  endfacet
  facet normal 0 -1 -0
    outer loop
      vertex 3 5 2
      vertex 2 5 0
      vertex 3 5 0
    endloop
  endfacet
  facet normal 1 -0 0
    outer loop
      vertex 13 5 2
      vertex 13 6 0
      vertex 13 6 2
    endloop
  endfacet
  facet normal 1 0 0
    outer loop
      vertex 13 6 0
      vertex 13 5 2
      vertex 13 5 0
    endloop
  endfacet
  facet normal -1 0 0
    outer loop
      vertex 3 4 0
      vertex 3 5 2
      vertex 3 5 0
    endloop
  endfacet
  facet normal -1 -0 0
    outer loop
      vertex 3 5 2
      vertex 3 4 0
      vertex 3 4 2
    endloop
  endfacet
  facet normal 0 -1 0
    outer loop
      vertex 11 4 0
      vertex 12 4 2
      vertex 11 4 2
    endloop
  endfacet
  facet normal 0 -1 -0
    outer loop
      vertex 12 4 2
      vertex 11 4 0
      vertex 12 4 0
    endloop
  endfacet
  facet normal 0 -1 0
    outer loop
      vertex 3 4 0
      vertex 4 4 2
      vertex 3 4 2
    endloop
  endfacet
  facet normal 0 -1 -0
    outer loop
      vertex 4 4 2
      vertex 3 4 0
      vertex 4 4 0
    endloop
  endfacet
  facet normal 1 -0 0
    outer loop
      vertex 12 4 2
      vertex 12 5 0
      vertex 12 5 2
    endloop
  endfacet
  facet normal 1 0 0
    outer loop
      vertex 12 5 0
      vertex 12 4 2
      vertex 12 4 0
    endloop
  endfacet
  facet normal -1 0 0
    outer loop
      vertex 4 3 0
      vertex 4 4 2
      vertex 4 4 0
    endloop
  endfacet
  facet normal -1 -0 0
    outer loop
      vertex 4 4 2
      vertex 4 3 0
      vertex 4 3 2
    endloop
  endfacet
  facet normal 0 -1 0
    outer loop
      vertex 10 3 0
      vertex 11 3 2
      vertex 10 3 2
    endloop
  endfacet
  facet normal 0 -1 -0
    outer loop
      vertex 11 3 2
      vertex 10 3 0
      vertex 11 3 0
    endloop
  endfacet
  facet normal 0 -1 0
    outer loop
      vertex 4 3 0
      vertex 5 3 2
      vertex 4 3 2
    endloop
  endfacet
  facet normal 0 -1 -0
    outer loop
      vertex 5 3 2
      vertex 4 3 0
      vertex 5 3 0
    endloop
  endfacet
  facet normal 1 -0 0
    outer loop
      vertex 11 3 2
      vertex 11 4 0
      vertex 11 4 2
    endloop
  endfacet
  facet normal 1 0 0
    outer loop
      vertex 11 4 0
      vertex 11 3 2
      vertex 11 3 0
    endloop
  endfacet
  facet normal -1 0 0
    outer loop
      vertex 5 2 0
      vertex 5 3 2
      vertex 5 3 0
    endloop
  endfacet
  facet normal -1 -0 0
    outer loop
      vertex 5 3 2
      vertex 5 2 0
      vertex 5 2 2
    endloop
  endfacet
  facet normal 0 -1 0
    outer loop
      vertex 9 2 0
      vertex 10 2 2
      vertex 9 2 2
    endloop
  endfacet
  facet normal 0 -1 -0
    outer loop
      vertex 10 2 2
      vertex 9 2 0
      vertex 10 2 0
    endloop
  endfacet
  facet normal 0 -1 0
    outer loop
      vertex 5 2 0
      vertex 6 2 2
      vertex 5 2 2
    endloop
  endfacet
  facet normal 0 -1 -0
    outer loop
      vertex 6 2 2
      vertex 5 2 0
      vertex 6 2 0
    endloop
  endfacet
  facet normal 1 -0 0
    outer loop
      vertex 10 2 2
      vertex 10 3 0
      vertex 10 3 2
    endloop
  endfacet
  facet normal 1 0 0
    outer loop
      vertex 10 3 0
      vertex 10 2 2
      vertex 10 2 0
    endloop
  endfacet
  facet normal -1 0 0
    outer loop
      vertex 6 1 0
      vertex 6 2 2
      vertex 6 2 0
    endloop
  endfacet
  facet normal -1 -0 0
    outer loop
      vertex 6 2 2
      vertex 6 1 0
      vertex 6 1 2
    endloop
  endfacet
  facet normal 0 -1 0
    outer loop
      vertex 6 1 0
      vertex 7 1 2
      vertex 6 1 2
    endloop
  endfacet
  facet normal 0 -1 -0
    outer loop
      vertex 7 1 2
      vertex 6 1 0
      vertex 7 1 0
    endloop
  endfacet
  facet normal 0 -1 0
    outer loop
      vertex 8 1 0
      vertex 9 1 2
      vertex 8 1 2
    endloop
  endfacet
  facet normal 0 -1 -0
    outer loop
      vertex 9 1 2
      vertex 8 1 0
      vertex 9 1 0
    endloop
  endfacet
  facet normal 1 -0 0
    outer loop
      vertex 9 1 2
      vertex 9 2 0
      vertex 9 2 2
    endloop
  endfacet
  facet normal 1 0 0
    outer loop
      vertex 9 2 0
      vertex 9 1 2
      vertex 9 1 0
    endloop
  endfacet
  facet normal 1 -0 0
    outer loop
      vertex 8 0 2
      vertex 8 1 0
      vertex 8 1 2
    endloop
  endfacet
  facet normal 1 0 0
    outer loop
      vertex 8 1 0
      vertex 8 0 2
      vertex 8 0 0
    endloop
  endfacet
  facet normal -1 0 0
    outer loop
      vertex 7 0 0
      vertex 7 1 2
      vertex 7 1 0
    endloop
  endfacet
  facet normal -1 -0 0
    outer loop
      vertex 7 1 2
      vertex 7 0 0
      vertex 7 0 2
    endloop
  endfacet
  facet normal 0 -1 0
    outer loop
      vertex 7 0 0
      vertex 8 0 2
      vertex 7 0 2
    endloop
  endfacet
  facet normal 0 -1 -0
    outer loop
      vertex 8 0 2
      vertex 7 0 0
      vertex 8 0 0
    endloop
  endfacet
  facet normal -0 0 1
    outer loop
      vertex 0 12 2
      vertex 1 8 2
      vertex 1 12 2
    endloop
  endfacet
  facet normal 0 0 1
    outer loop
      vertex 1 8 2
      vertex 0 12 2
      vertex 0 8 2
    endloop
  endfacet
  facet normal 0 0 1
    outer loop
      vertex 2 6 2
      vertex 3 8 2
      vertex 2 8 2
    endloop
  endfacet
  facet normal 0 0 1
    outer loop
      vertex 3 8 2
      vertex 2 6 2
      vertex 3 5 2
    endloop
  endfacet
  facet normal 0 0 1
    outer loop
      vertex 3 5 2
      vertex 2 6 2
      vertex 2 5 2
    endloop
  endfacet
  facet normal 0 0 1
    outer loop
      vertex 11 4 2
      vertex 4 4 2
      vertex 5 3 2
    endloop
  endfacet
  facet normal 0 0 1
    outer loop
      vertex 3 8 2
      vertex 5 12 2
      vertex 3 12 2
    endloop
  endfacet
  facet normal 0 0 1
    outer loop
      vertex 7 12 2
      vertex 3 8 2
      vertex 4 4 2
    endloop
  endfacet
  facet normal -0 0 1
    outer loop
      vertex 3 5 2
      vertex 4 4 2
      vertex 3 8 2
    endloop
  endfacet
  facet normal 0 0 1
    outer loop
      vertex 4 4 2
      vertex 3 5 2
      vertex 3 4 2
    endloop
  endfacet
  facet normal 0 0 1
    outer loop
      vertex 9 13 2
      vertex 13 13 2
      vertex 13 14 2
    endloop
  endfacet
  facet normal 0 0 1
    outer loop
      vertex 8 12 2
      vertex 13 13 2
      vertex 9 13 2
    endloop
  endfacet
  facet normal 0 0 1
    outer loop
      vertex 13 6 2
      vertex 12 5 2
      vertex 13 5 2
    endloop
  endfacet
  facet normal 0 0 1
    outer loop
      vertex 12 5 2
      vertex 11 4 2
      vertex 12 4 2
    endloop
  endfacet
  facet normal 0 0 1
    outer loop
      vertex 13 13 2
      vertex 8 12 2
      vertex 13 6 2
    endloop
  endfacet
  facet normal 0 0 1
    outer loop
      vertex 11 4 2
      vertex 10 3 2
      vertex 11 3 2
    endloop
  endfacet
  facet normal 0 0 1
    outer loop
      vertex 13 6 2
      vertex 8 12 2
      vertex 12 5 2
    endloop
  endfacet
  facet normal 0 0 1
    outer loop
      vertex 9 13 2
      vertex 13 14 2
      vertex 9 14 2
    endloop
  endfacet
  facet normal 0 0 1
    outer loop
      vertex 12 5 2
      vertex 8 12 2
      vertex 11 4 2
    endloop
  endfacet
  facet normal -0 0 1
    outer loop
      vertex 7 12 2
      vertex 11 4 2
      vertex 8 12 2
    endloop
  endfacet
  facet normal 0 0 1
    outer loop
      vertex 11 4 2
      vertex 5 3 2
      vertex 10 3 2
    endloop
  endfacet
  facet normal 0 0 1
    outer loop
      vertex 10 3 2
      vertex 9 2 2
      vertex 10 2 2
    endloop
  endfacet
  facet normal 0 0 1
    outer loop
      vertex 8 12 2
      vertex 9 13 2
      vertex 8 13 2
    endloop
  endfacet
  facet normal 0 0 1
    outer loop
      vertex 10 3 2
      vertex 5 3 2
      vertex 9 2 2
    endloop
  endfacet
  facet normal 0 -0 1
    outer loop
      vertex 6 2 2
      vertex 9 2 2
      vertex 5 3 2
    endloop
  endfacet
  facet normal 0 0 1
    outer loop
      vertex 9 2 2
      vertex 8 1 2
      vertex 9 1 2
    endloop
  endfacet
  facet normal 0 0 1
    outer loop
      vertex 4 4 2
      vertex 11 4 2
      vertex 7 12 2
    endloop
  endfacet
  facet normal 0 0 1
    outer loop
      vertex 8 1 2
      vertex 7 1 2
      vertex 8 0 2
    endloop
  endfacet
  facet normal 0 0 1
    outer loop
      vertex 8 0 2
      vertex 7 1 2
      vertex 7 0 2
    endloop
  endfacet
  facet normal -0 0 1
    outer loop
      vertex 13 13 2
      vertex 14 12 2
      vertex 14 13 2
    endloop
  endfacet
  facet normal 0 0 1
    outer loop
      vertex 14 12 2
      vertex 13 13 2
      vertex 14 8 2
    endloop
  endfacet
  facet normal 0 0 1
    outer loop
      vertex 13 6 2
      vertex 14 8 2
      vertex 13 13 2
    endloop
  endfacet
  facet normal 0 0 1
    outer loop
      vertex 14 8 2
      vertex 13 6 2
      vertex 14 6 2
    endloop
  endfacet
  facet normal -0 0 1
    outer loop
      vertex 14 12 2
      vertex 15 8 2
      vertex 15 12 2
    endloop
  endfacet
  facet normal 0 0 1
    outer loop
      vertex 15 8 2
      vertex 14 12 2
      vertex 14 8 2
    endloop
  endfacet
  facet normal -0 0 1
    outer loop
      vertex 6 13 2
      vertex 7 12 2
      vertex 7 13 2
    endloop
  endfacet
  facet normal 0 0 1
    outer loop
      vertex 7 12 2
      vertex 6 13 2
      vertex 5 12 2
    endloop
  endfacet
  facet normal 0 0 1
    outer loop
      vertex 8 1 2
      vertex 6 2 2
      vertex 7 1 2
    endloop
  endfacet
  facet normal 0 0 1
    outer loop
      vertex 7 1 2
      vertex 6 2 2
      vertex 6 1 2
    endloop
  endfacet
  facet normal 0 0 1
    outer loop
      vertex 5 13 2
      vertex 6 13 2
      vertex 6 14 2
    endloop
  endfacet
  facet normal 0 0 1
    outer loop
      vertex 6 13 2
      vertex 5 13 2
      vertex 5 12 2
    endloop
  endfacet
  facet normal 0 0 1
    outer loop
      vertex 6 14 2
      vertex 3 13 2
      vertex 5 13 2
    endloop
  endfacet
  facet normal -0 0 1
    outer loop
      vertex 2 14 2
      vertex 3 13 2
      vertex 6 14 2
    endloop
  endfacet
  facet normal 0 0 1
    outer loop
      vertex 2 13 2
      vertex 3 13 2
      vertex 2 14 2
    endloop
  endfacet
  facet normal 0 0 1
    outer loop
      vertex 3 13 2
      vertex 2 13 2
      vertex 3 12 2
    endloop
  endfacet
  facet normal 0 0 1
    outer loop
      vertex 2 13 2
      vertex 2 12 2
      vertex 3 12 2
    endloop
  endfacet
  facet normal 0 0 1
    outer loop
      vertex 1 12 2
      vertex 2 12 2
      vertex 2 13 2
    endloop
  endfacet
  facet normal 0 0 1
    outer loop
      vertex 2 12 2
      vertex 1 12 2
      vertex 2 8 2
    endloop
  endfacet
  facet normal 0 0 1
    outer loop
      vertex 1 12 2
      vertex 2 13 2
      vertex 1 13 2
    endloop
  endfacet
  facet normal 0 0 1
    outer loop
      vertex 2 8 2
      vertex 1 12 2
      vertex 1 8 2
    endloop
  endfacet
  facet normal 0 0 1
    outer loop
      vertex 2 8 2
      vertex 1 8 2
      vertex 2 6 2
    endloop
  endfacet
  facet normal 0 0 1
    outer loop
      vertex 2 6 2
      vertex 1 8 2
      vertex 1 6 2
    endloop
  endfacet
  facet normal 0 0 1
    outer loop
      vertex 3 8 2
      vertex 7 12 2
      vertex 5 12 2
    endloop
  endfacet
  facet normal 0 -0 1
    outer loop
      vertex 8 1 2
      vertex 9 2 2
      vertex 6 2 2
    endloop
  endfacet
  facet normal 0 0 1
    outer loop
      vertex 6 2 2
      vertex 5 3 2
      vertex 5 2 2
    endloop
  endfacet
  facet normal 0 0 1
    outer loop
      vertex 5 3 2
      vertex 4 4 2
      vertex 4 3 2
    endloop
  endfacet
  facet normal 1 -0 0
    outer loop
      vertex 3 12 2
      vertex 3 13 1
      vertex 3 13 2
    endloop
  endfacet
  facet normal 1 0 0
    outer loop
      vertex 3 13 1
      vertex 3 12 2
      vertex 3 12 1
    endloop
  endfacet
  facet normal -1 0 0
    outer loop
      vertex 5 12 1
      vertex 5 13 2
      vertex 5 13 1
    endloop
  endfacet
  facet normal -1 -0 0
    outer loop
      vertex 5 13 2
      vertex 5 12 1
      vertex 5 12 2
    endloop
  endfacet
  facet normal 1 -0 0
    outer loop
      vertex 2 8 2
      vertex 2 12 1
      vertex 2 12 2
    endloop
  endfacet
  facet normal 1 0 0
    outer loop
      vertex 2 12 1
      vertex 2 8 2
      vertex 2 8 1
    endloop
  endfacet
  facet normal -1 0 0
    outer loop
      vertex 3 8 1
      vertex 3 12 2
      vertex 3 12 1
    endloop
  endfacet
  facet normal -1 -0 0
    outer loop
      vertex 3 12 2
      vertex 3 8 1
      vertex 3 8 2
    endloop
  endfacet
endsolid OpenSCAD_Model
