solid OpenSCAD_Model
  facet normal -0.309015 -0.951057 0
    outer loop
      vertex -9.40451 -0.293892 5
      vertex -8.94724 -0.442467 25
      vertex -9.40451 -0.293892 25
    endloop
  endfacet
  facet normal -0.309015 -0.951057 -0
    outer loop
      vertex -8.94724 -0.442467 25
      vertex -9.40451 -0.293892 5
      vertex -8.94724 -0.442467 5
    endloop
  endfacet
  facet normal -0.309015 0.951057 0
    outer loop
      vertex -8.94724 0.442467 5
      vertex -9.40451 0.293892 25
      vertex -8.94724 0.442467 25
    endloop
  endfacet
  facet normal -0.309015 0.951057 0
    outer loop
      vertex -9.40451 0.293892 25
      vertex -8.94724 0.442467 5
      vertex -9.40451 0.293892 5
    endloop
  endfacet
  facet normal -1 0 0
    outer loop
      vertex -9.40451 -0.293892 5
      vertex -9.40451 0.293892 25
      vertex -9.40451 0.293892 5
    endloop
  endfacet
  facet normal -1 -0 0
    outer loop
      vertex -9.40451 0.293892 25
      vertex -9.40451 -0.293892 5
      vertex -9.40451 -0.293892 25
    endloop
  endfacet
  facet normal 0 0 1
    outer loop
      vertex 4.11487 7.99177 25
      vertex 4.95677 7.9976 25
      vertex 4.44773 8.29149 25
    endloop
  endfacet
  facet normal -0 0 1
    outer loop
      vertex 6.5592 6.08593 25
      vertex 7.16184 5.44974 25
      vertex 7.01536 6.27024 25
    endloop
  endfacet
  facet normal 0 0 1
    outer loop
      vertex 7.01536 6.27024 25
      vertex 7.16184 5.44974 25
      vertex 7.39318 5.81997 25
    endloop
  endfacet
  facet normal -0 0 1
    outer loop
      vertex 8.27014 3.4764 25
      vertex 8.93786 2.94036 25
      vertex 8.73683 3.4927 25
    endloop
  endfacet
  facet normal 0 0 1
    outer loop
      vertex 7.16184 5.44974 25
      vertex 8.55226 2.63909 25
      vertex 8.27014 3.4764 25
    endloop
  endfacet
  facet normal 0 0 1
    outer loop
      vertex 8.93786 2.94036 25
      vertex 8.27014 3.4764 25
      vertex 8.55226 2.63909 25
    endloop
  endfacet
  facet normal 0 0 1
    outer loop
      vertex 8.95205 0.440905 25
      vertex 9.40451 -0.293892 25
      vertex 9.40451 0.293892 25
    endloop
  endfacet
  facet normal 0 0 1
    outer loop
      vertex 8.95205 0.440905 25
      vertex 8.95205 -0.440905 25
      vertex 9.40451 -0.293892 25
    endloop
  endfacet
  facet normal 0 0 1
    outer loop
      vertex 8.55226 2.63909 25
      vertex 8.95205 0.440905 25
      vertex 8.78958 1.93473 25
    endloop
  endfacet
  facet normal 0 0 1
    outer loop
      vertex 8.95205 0.440905 25
      vertex 8.55226 2.63909 25
      vertex 8.95205 -0.440905 25
    endloop
  endfacet
  facet normal 0 0 1
    outer loop
      vertex 8.55226 -2.63909 25
      vertex 8.95205 -0.440905 25
      vertex 8.55226 2.63909 25
    endloop
  endfacet
  facet normal 0 0 1
    outer loop
      vertex 8.95205 -0.440905 25
      vertex 8.55226 -2.63909 25
      vertex 8.78958 -1.93473 25
    endloop
  endfacet
  facet normal 0 0 1
    outer loop
      vertex 8.27014 -3.4764 25
      vertex 8.93786 -2.94036 25
      vertex 8.55226 -2.63909 25
    endloop
  endfacet
  facet normal 0 0 1
    outer loop
      vertex 8.93786 -2.94036 25
      vertex 8.27014 -3.4764 25
      vertex 8.73683 -3.4927 25
    endloop
  endfacet
  facet normal 0 0 1
    outer loop
      vertex 8.55226 2.63909 25
      vertex 7.16184 5.44974 25
      vertex 8.55226 -2.63909 25
    endloop
  endfacet
  facet normal 0 0 1
    outer loop
      vertex 7.16184 5.44974 25
      vertex 8.27014 3.4764 25
      vertex 8.16818 3.779 25
    endloop
  endfacet
  facet normal 0 0 1
    outer loop
      vertex 7.16184 -5.44974 25
      vertex 8.55226 -2.63909 25
      vertex 7.16184 5.44974 25
    endloop
  endfacet
  facet normal 0 0 1
    outer loop
      vertex 7.16184 5.44974 25
      vertex 8.16818 3.779 25
      vertex 7.16484 5.44657 25
    endloop
  endfacet
  facet normal 0 0 1
    outer loop
      vertex 8.55226 -2.63909 25
      vertex 7.16184 -5.44974 25
      vertex 8.27014 -3.4764 25
    endloop
  endfacet
  facet normal 0 0 1
    outer loop
      vertex 8.27014 -3.4764 25
      vertex 7.16184 -5.44974 25
      vertex 8.16818 -3.779 25
    endloop
  endfacet
  facet normal 0 0 1
    outer loop
      vertex 8.16818 -3.779 25
      vertex 7.16184 -5.44974 25
      vertex 7.16484 -5.44657 25
    endloop
  endfacet
  facet normal 0 0 1
    outer loop
      vertex 7.16184 -5.44974 25
      vertex 7.01536 -6.27024 25
      vertex 7.39318 -5.81997 25
    endloop
  endfacet
  facet normal 0 0 1
    outer loop
      vertex 7.16184 5.44974 25
      vertex 5.5 0 25
      vertex 7.16184 -5.44974 25
    endloop
  endfacet
  facet normal 0 0 1
    outer loop
      vertex 4.21324 3.53533 25
      vertex 7.16184 5.44974 25
      vertex 6.5592 6.08593 25
    endloop
  endfacet
  facet normal -0 0 1
    outer loop
      vertex 5.16831 -1.88111 25
      vertex 7.16184 -5.44974 25
      vertex 5.5 0 25
    endloop
  endfacet
  facet normal 0 0 1
    outer loop
      vertex 4.21324 3.53533 25
      vertex 6.5592 6.08593 25
      vertex 5.82648 6.85946 25
    endloop
  endfacet
  facet normal -0 0 1
    outer loop
      vertex 4.21324 -3.53533 25
      vertex 7.16184 -5.44974 25
      vertex 5.16831 -1.88111 25
    endloop
  endfacet
  facet normal 0 0 1
    outer loop
      vertex 7.16184 -5.44974 25
      vertex 6.5592 -6.08593 25
      vertex 7.01536 -6.27024 25
    endloop
  endfacet
  facet normal 0 0 1
    outer loop
      vertex 7.16184 5.44974 25
      vertex 5.16831 1.88111 25
      vertex 5.5 0 25
    endloop
  endfacet
  facet normal 0 0 1
    outer loop
      vertex 2.75 4.76314 25
      vertex 5.82648 6.85946 25
      vertex 4.85488 7.51822 25
    endloop
  endfacet
  facet normal 0 0 1
    outer loop
      vertex 4.95677 7.9976 25
      vertex 4.11487 7.99177 25
      vertex 4.85488 7.51822 25
    endloop
  endfacet
  facet normal 0 0 1
    outer loop
      vertex 7.16184 5.44974 25
      vertex 4.21324 3.53533 25
      vertex 5.16831 1.88111 25
    endloop
  endfacet
  facet normal 0 0 1
    outer loop
      vertex 2.75 4.76314 25
      vertex 4.85488 7.51822 25
      vertex 4.11487 7.99177 25
    endloop
  endfacet
  facet normal 0 0 1
    outer loop
      vertex 5.82648 6.85946 25
      vertex 2.75 4.76314 25
      vertex 4.21324 3.53533 25
    endloop
  endfacet
  facet normal 0 0 1
    outer loop
      vertex 2.40775 8.67195 25
      vertex 2.75 4.76314 25
      vertex 4.11487 7.99177 25
    endloop
  endfacet
  facet normal 0 0 1
    outer loop
      vertex 0.955065 5.41644 25
      vertex 2.40775 8.67195 25
      vertex 1.98855 8.74067 25
    endloop
  endfacet
  facet normal 0 0 1
    outer loop
      vertex 1.34365 9.31267 25
      vertex 1.98855 8.74067 25
      vertex 1.9225 9.2106 25
    endloop
  endfacet
  facet normal -0 0 1
    outer loop
      vertex 1.11561 8.88379 25
      vertex 1.98855 8.74067 25
      vertex 1.34365 9.31267 25
    endloop
  endfacet
  facet normal 0 0 1
    outer loop
      vertex 0.955065 5.41644 25
      vertex 1.98855 8.74067 25
      vertex 1.11561 8.88379 25
    endloop
  endfacet
  facet normal 0 0 1
    outer loop
      vertex 2.40775 8.67195 25
      vertex 0.955065 5.41644 25
      vertex 2.75 4.76314 25
    endloop
  endfacet
  facet normal 0 0 1
    outer loop
      vertex 0.487249 8.9868 25
      vertex 0.955065 5.41644 25
      vertex 1.11561 8.88379 25
    endloop
  endfacet
  facet normal 0 0 1
    outer loop
      vertex 0.487249 8.9868 25
      vertex -0.955065 5.41644 25
      vertex 0.955065 5.41644 25
    endloop
  endfacet
  facet normal -0 0 1
    outer loop
      vertex -1.12393 8.89944 25
      vertex -0.955065 5.41644 25
      vertex 0.487249 8.9868 25
    endloop
  endfacet
  facet normal -0 0 1
    outer loop
      vertex -1.9225 9.2106 25
      vertex -1.12393 8.89944 25
      vertex -1.34365 9.31267 25
    endloop
  endfacet
  facet normal 0 0 1
    outer loop
      vertex -1.12393 8.89944 25
      vertex -1.9225 9.2106 25
      vertex -1.98958 8.7333 25
    endloop
  endfacet
  facet normal 0 0 1
    outer loop
      vertex -1.12393 8.89944 25
      vertex -1.98958 8.7333 25
      vertex -0.955065 5.41644 25
    endloop
  endfacet
  facet normal -0 0 1
    outer loop
      vertex -3.33124 8.36079 25
      vertex -0.955065 5.41644 25
      vertex -1.98958 8.7333 25
    endloop
  endfacet
  facet normal 0 0 1
    outer loop
      vertex -0.955065 5.41644 25
      vertex -3.33124 8.36079 25
      vertex -2.75 4.76314 25
    endloop
  endfacet
  facet normal -0 0 1
    outer loop
      vertex -4.08241 7.96255 25
      vertex -2.75 4.76314 25
      vertex -3.33124 8.36079 25
    endloop
  endfacet
  facet normal -0 0 1
    outer loop
      vertex -4.86152 7.54949 25
      vertex -2.75 4.76314 25
      vertex -4.08241 7.96255 25
    endloop
  endfacet
  facet normal 0 0 1
    outer loop
      vertex -4.86152 7.54949 25
      vertex -4.08241 7.96255 25
      vertex -4.44773 8.29149 25
    endloop
  endfacet
  facet normal -0 0 1
    outer loop
      vertex -5.05068 7.4492 25
      vertex -2.75 4.76314 25
      vertex -4.86152 7.54949 25
    endloop
  endfacet
  facet normal 0 0 1
    outer loop
      vertex -2.75 4.76314 25
      vertex -5.05068 7.4492 25
      vertex -4.21324 3.53533 25
    endloop
  endfacet
  facet normal -0 0 1
    outer loop
      vertex -6.53396 6.18929 25
      vertex -4.21324 3.53533 25
      vertex -5.05068 7.4492 25
    endloop
  endfacet
  facet normal -0 0 1
    outer loop
      vertex -6.6 6.10242 25
      vertex -4.21324 3.53533 25
      vertex -6.53396 6.18929 25
    endloop
  endfacet
  facet normal -0 0 1
    outer loop
      vertex -7.13221 5.40232 25
      vertex -4.21324 3.53533 25
      vertex -6.6 6.10242 25
    endloop
  endfacet
  facet normal 0 0 1
    outer loop
      vertex 7.16184 -5.44974 25
      vertex 4.21324 -3.53533 25
      vertex 6.5592 -6.08593 25
    endloop
  endfacet
  facet normal 0 0 1
    outer loop
      vertex 6.5592 -6.08593 25
      vertex 4.21324 -3.53533 25
      vertex 5.82648 -6.85946 25
    endloop
  endfacet
  facet normal -0 0 1
    outer loop
      vertex 2.75 -4.76314 25
      vertex 5.82648 -6.85946 25
      vertex 4.21324 -3.53533 25
    endloop
  endfacet
  facet normal 0 0 1
    outer loop
      vertex 5.82648 -6.85946 25
      vertex 2.75 -4.76314 25
      vertex 4.85488 -7.51822 25
    endloop
  endfacet
  facet normal 0 0 1
    outer loop
      vertex 4.85488 -7.51822 25
      vertex 4.11487 -7.99177 25
      vertex 4.44773 -8.29149 25
    endloop
  endfacet
  facet normal 0 0 1
    outer loop
      vertex 4.85488 -7.51822 25
      vertex 2.75 -4.76314 25
      vertex 4.11487 -7.99177 25
    endloop
  endfacet
  facet normal 0 0 1
    outer loop
      vertex 2.75 -4.76314 25
      vertex 2.40775 -8.67195 25
      vertex 4.11487 -7.99177 25
    endloop
  endfacet
  facet normal -0 0 1
    outer loop
      vertex 0.955065 -5.41644 25
      vertex 2.40775 -8.67195 25
      vertex 2.75 -4.76314 25
    endloop
  endfacet
  facet normal 0 0 1
    outer loop
      vertex 1.98855 -8.74067 25
      vertex 1.34365 -9.31267 25
      vertex 1.9225 -9.2106 25
    endloop
  endfacet
  facet normal 0 0 1
    outer loop
      vertex 2.40775 -8.67195 25
      vertex 0.955065 -5.41644 25
      vertex 1.98855 -8.74067 25
    endloop
  endfacet
  facet normal 0 0 1
    outer loop
      vertex 1.98855 -8.74067 25
      vertex 1.11561 -8.88379 25
      vertex 1.34365 -9.31267 25
    endloop
  endfacet
  facet normal 0 0 1
    outer loop
      vertex 1.98855 -8.74067 25
      vertex 0.955065 -5.41644 25
      vertex 1.11561 -8.88379 25
    endloop
  endfacet
  facet normal 0 0 1
    outer loop
      vertex 0.955065 -5.41644 25
      vertex 0.487249 -8.9868 25
      vertex 1.11561 -8.88379 25
    endloop
  endfacet
  facet normal -0 0 1
    outer loop
      vertex -0.955065 -5.41644 25
      vertex 0.487249 -8.9868 25
      vertex 0.955065 -5.41644 25
    endloop
  endfacet
  facet normal 0 0 1
    outer loop
      vertex -0.955065 -5.41644 25
      vertex -1.12393 -8.89944 25
      vertex 0.487249 -8.9868 25
    endloop
  endfacet
  facet normal -0 0 1
    outer loop
      vertex -1.98958 -8.7333 25
      vertex -1.12393 -8.89944 25
      vertex -0.955065 -5.41644 25
    endloop
  endfacet
  facet normal 0 -0 1
    outer loop
      vertex -1.9225 -9.2106 25
      vertex -1.12393 -8.89944 25
      vertex -1.98958 -8.7333 25
    endloop
  endfacet
  facet normal 0 0 1
    outer loop
      vertex -1.12393 -8.89944 25
      vertex -1.9225 -9.2106 25
      vertex -1.34365 -9.31267 25
    endloop
  endfacet
  facet normal 0 0 1
    outer loop
      vertex -3.33124 -8.36079 25
      vertex -0.955065 -5.41644 25
      vertex -2.75 -4.76314 25
    endloop
  endfacet
  facet normal 0 0 1
    outer loop
      vertex -0.955065 -5.41644 25
      vertex -3.33124 -8.36079 25
      vertex -1.98958 -8.7333 25
    endloop
  endfacet
  facet normal 0 0 1
    outer loop
      vertex -2.75 -4.76314 25
      vertex -4.08241 -7.96255 25
      vertex -3.33124 -8.36079 25
    endloop
  endfacet
  facet normal 0 0 1
    outer loop
      vertex -5.05068 -7.4492 25
      vertex -2.75 -4.76314 25
      vertex -4.21324 -3.53533 25
    endloop
  endfacet
  facet normal 0 0 1
    outer loop
      vertex -2.75 -4.76314 25
      vertex -4.86152 -7.54949 25
      vertex -4.08241 -7.96255 25
    endloop
  endfacet
  facet normal 0 0 1
    outer loop
      vertex -4.08241 -7.96255 25
      vertex -4.86152 -7.54949 25
      vertex -4.44773 -8.29149 25
    endloop
  endfacet
  facet normal 0 0 1
    outer loop
      vertex -2.75 -4.76314 25
      vertex -5.05068 -7.4492 25
      vertex -4.86152 -7.54949 25
    endloop
  endfacet
  facet normal 0 0 1
    outer loop
      vertex -7.71171 -4.63998 25
      vertex -4.21324 -3.53533 25
      vertex -5.16831 -1.88111 25
    endloop
  endfacet
  facet normal -0 0 1
    outer loop
      vertex -8.94724 -0.973071 25
      vertex -5.16831 -1.88111 25
      vertex -5.5 0 25
    endloop
  endfacet
  facet normal -0 0 1
    outer loop
      vertex -7.71171 4.63998 25
      vertex -4.21324 3.53533 25
      vertex -7.13221 5.40232 25
    endloop
  endfacet
  facet normal 0 0 1
    outer loop
      vertex -4.21324 3.53533 25
      vertex -7.71171 4.63998 25
      vertex -5.16831 1.88111 25
    endloop
  endfacet
  facet normal -0 0 1
    outer loop
      vertex -8.25036 3.47571 25
      vertex -5.16831 1.88111 25
      vertex -7.71171 4.63998 25
    endloop
  endfacet
  facet normal 0 0 1
    outer loop
      vertex -4.21324 -3.53533 25
      vertex -6.53396 -6.18929 25
      vertex -5.05068 -7.4492 25
    endloop
  endfacet
  facet normal 0 0 1
    outer loop
      vertex -7.39318 5.81997 25
      vertex -6.6 6.10242 25
      vertex -7.01536 6.27024 25
    endloop
  endfacet
  facet normal 0 0 1
    outer loop
      vertex -4.21324 -3.53533 25
      vertex -7.13221 -5.40232 25
      vertex -6.6 -6.10242 25
    endloop
  endfacet
  facet normal 0 0 1
    outer loop
      vertex -4.21324 -3.53533 25
      vertex -6.6 -6.10242 25
      vertex -6.53396 -6.18929 25
    endloop
  endfacet
  facet normal 0 0 1
    outer loop
      vertex -6.6 6.10242 25
      vertex -7.39318 5.81997 25
      vertex -7.13221 5.40232 25
    endloop
  endfacet
  facet normal -0 0 1
    outer loop
      vertex -9.40451 0.293892 25
      vertex -8.94724 -0.442467 25
      vertex -8.94724 0.442467 25
    endloop
  endfacet
  facet normal 0 0 1
    outer loop
      vertex -8.94724 -0.442467 25
      vertex -9.40451 0.293892 25
      vertex -9.40451 -0.293892 25
    endloop
  endfacet
  facet normal 0 0 1
    outer loop
      vertex -5.5 0 25
      vertex -8.94724 0.973071 25
      vertex -8.94724 0.442467 25
    endloop
  endfacet
  facet normal 0 0 1
    outer loop
      vertex -8.94724 -0.442467 25
      vertex -5.5 0 25
      vertex -8.94724 0.442467 25
    endloop
  endfacet
  facet normal 0 0 1
    outer loop
      vertex -8.94724 -0.973071 25
      vertex -5.5 0 25
      vertex -8.94724 -0.442467 25
    endloop
  endfacet
  facet normal 0 0 1
    outer loop
      vertex -5.16831 -1.88111 25
      vertex -8.94724 -0.973071 25
      vertex -8.57637 -2.65794 25
    endloop
  endfacet
  facet normal -0 0 1
    outer loop
      vertex -8.57637 2.65794 25
      vertex -5.16831 1.88111 25
      vertex -8.25036 3.47571 25
    endloop
  endfacet
  facet normal 0 0 1
    outer loop
      vertex -8.94724 0.973071 25
      vertex -5.16831 1.88111 25
      vertex -8.57637 2.65794 25
    endloop
  endfacet
  facet normal 0 0 1
    outer loop
      vertex -5.16831 -1.88111 25
      vertex -8.25036 -3.47571 25
      vertex -7.71171 -4.63998 25
    endloop
  endfacet
  facet normal 0 0 1
    outer loop
      vertex -4.21324 -3.53533 25
      vertex -7.71171 -4.63998 25
      vertex -7.13221 -5.40232 25
    endloop
  endfacet
  facet normal 0 0 1
    outer loop
      vertex -5.16831 1.88111 25
      vertex -8.94724 0.973071 25
      vertex -5.5 0 25
    endloop
  endfacet
  facet normal 0 0 1
    outer loop
      vertex -8.73683 3.4927 25
      vertex -8.57637 2.65794 25
      vertex -8.25036 3.47571 25
    endloop
  endfacet
  facet normal 0 0 1
    outer loop
      vertex -8.57637 2.65794 25
      vertex -8.73683 3.4927 25
      vertex -8.93786 2.94036 25
    endloop
  endfacet
  facet normal -0 0 1
    outer loop
      vertex -7.39318 -5.81997 25
      vertex -6.6 -6.10242 25
      vertex -7.13221 -5.40232 25
    endloop
  endfacet
  facet normal 0 0 1
    outer loop
      vertex -6.6 -6.10242 25
      vertex -7.39318 -5.81997 25
      vertex -7.01536 -6.27024 25
    endloop
  endfacet
  facet normal 0 0 1
    outer loop
      vertex -5.16831 -1.88111 25
      vertex -8.57637 -2.65794 25
      vertex -8.25036 -3.47571 25
    endloop
  endfacet
  facet normal 0 0 1
    outer loop
      vertex -8.57637 -2.65794 25
      vertex -8.73683 -3.4927 25
      vertex -8.25036 -3.47571 25
    endloop
  endfacet
  facet normal 0 -0 1
    outer loop
      vertex -8.73683 -3.4927 25
      vertex -8.57637 -2.65794 25
      vertex -8.93786 -2.94036 25
    endloop
  endfacet
  facet normal 0 0 1
    outer loop
      vertex -4.44773 8.29149 25
      vertex -4.95677 7.9976 25
      vertex -4.86152 7.54949 25
    endloop
  endfacet
  facet normal 0 0 1
    outer loop
      vertex 4.95677 -7.9976 25
      vertex 4.85488 -7.51822 25
      vertex 4.44773 -8.29149 25
    endloop
  endfacet
  facet normal 0 0 1
    outer loop
      vertex -4.44773 -8.29149 25
      vertex -4.86152 -7.54949 25
      vertex -4.95677 -7.9976 25
    endloop
  endfacet
  facet normal 0 0 1
    outer loop
      vertex -8.94724 -0.442467 5
      vertex -9.40451 -0.293892 5
      vertex -8.94724 -0.973071 5
    endloop
  endfacet
  facet normal 0 0 1
    outer loop
      vertex -8.57637 -2.65794 5
      vertex -8.94724 -0.973071 5
      vertex -8.93786 -2.94036 5
    endloop
  endfacet
  facet normal 0 0 1
    outer loop
      vertex -4.86152 -7.54949 5
      vertex -5.05068 -7.4492 5
      vertex -4.95677 -7.9976 5
    endloop
  endfacet
  facet normal 0 0 1
    outer loop
      vertex 5.82648 -6.85946 5
      vertex 4.85488 -7.51822 5
      vertex 4.95677 -7.9976 5
    endloop
  endfacet
  facet normal 0 0 1
    outer loop
      vertex 12.1353 8.81678 5
      vertex 7.01536 6.27024 5
      vertex 7.39318 5.81997 5
    endloop
  endfacet
  facet normal 0 0 1
    outer loop
      vertex 10.037 11.1472 5
      vertex 4.95677 7.9976 5
      vertex 7.01536 6.27024 5
    endloop
  endfacet
  facet normal 0 0 1
    outer loop
      vertex 7.01536 6.27024 5
      vertex 5.82648 6.85946 5
      vertex 6.5592 6.08593 5
    endloop
  endfacet
  facet normal 0 0 1
    outer loop
      vertex 7.01536 6.27024 5
      vertex 4.95677 7.9976 5
      vertex 5.82648 6.85946 5
    endloop
  endfacet
  facet normal 0 0 1
    outer loop
      vertex 4.44773 8.29149 5
      vertex 7.5 12.9904 5
      vertex 4.63525 14.2658 5
    endloop
  endfacet
  facet normal 0 0 1
    outer loop
      vertex 7.5 12.9904 5
      vertex 4.44773 8.29149 5
      vertex 4.95677 7.9976 5
    endloop
  endfacet
  facet normal -0 0 1
    outer loop
      vertex 1.9225 9.2106 5
      vertex 4.44773 8.29149 5
      vertex 4.63525 14.2658 5
    endloop
  endfacet
  facet normal -0 -0 1
    outer loop
      vertex 2.40775 8.67195 5
      vertex 4.44773 8.29149 5
      vertex 1.9225 9.2106 5
    endloop
  endfacet
  facet normal 0 0 1
    outer loop
      vertex 4.44773 8.29149 5
      vertex 2.40775 8.67195 5
      vertex 4.11487 7.99177 5
    endloop
  endfacet
  facet normal 0 0 1
    outer loop
      vertex 2.40775 8.67195 5
      vertex 1.9225 9.2106 5
      vertex 1.98855 8.74067 5
    endloop
  endfacet
  facet normal 0 0 1
    outer loop
      vertex 1.56793 14.9178 5
      vertex 1.9225 9.2106 5
      vertex 4.63525 14.2658 5
    endloop
  endfacet
  facet normal 0 0 1
    outer loop
      vertex 1.56793 14.9178 5
      vertex 1.34365 9.31267 5
      vertex 1.9225 9.2106 5
    endloop
  endfacet
  facet normal 0 0 1
    outer loop
      vertex -1.34365 9.31267 5
      vertex 1.34365 9.31267 5
      vertex 1.56793 14.9178 5
    endloop
  endfacet
  facet normal 0 0 1
    outer loop
      vertex 1.34365 9.31267 5
      vertex 0.487249 8.9868 5
      vertex 1.11561 8.88379 5
    endloop
  endfacet
  facet normal 0 0 1
    outer loop
      vertex 1.34365 9.31267 5
      vertex -1.34365 9.31267 5
      vertex 0.487249 8.9868 5
    endloop
  endfacet
  facet normal 0 0 1
    outer loop
      vertex 0.487249 8.9868 5
      vertex -1.34365 9.31267 5
      vertex -1.12393 8.89944 5
    endloop
  endfacet
  facet normal -0 0 1
    outer loop
      vertex -1.56793 14.9178 5
      vertex -1.34365 9.31267 5
      vertex 1.56793 14.9178 5
    endloop
  endfacet
  facet normal 0 0 1
    outer loop
      vertex -1.56793 14.9178 5
      vertex -1.9225 9.2106 5
      vertex -1.34365 9.31267 5
    endloop
  endfacet
  facet normal -0 0 1
    outer loop
      vertex -4.63525 14.2658 5
      vertex -1.9225 9.2106 5
      vertex -1.56793 14.9178 5
    endloop
  endfacet
  facet normal 0 -0 1
    outer loop
      vertex -4.44773 8.29149 5
      vertex -1.9225 9.2106 5
      vertex -4.63525 14.2658 5
    endloop
  endfacet
  facet normal 0 0 1
    outer loop
      vertex -1.9225 9.2106 5
      vertex -3.33124 8.36079 5
      vertex -1.98958 8.7333 5
    endloop
  endfacet
  facet normal 0 0 1
    outer loop
      vertex -3.33124 8.36079 5
      vertex -4.44773 8.29149 5
      vertex -4.08241 7.96255 5
    endloop
  endfacet
  facet normal 0 0 1
    outer loop
      vertex -1.9225 9.2106 5
      vertex -4.44773 8.29149 5
      vertex -3.33124 8.36079 5
    endloop
  endfacet
  facet normal -0 0 1
    outer loop
      vertex -7.5 12.9904 5
      vertex -4.44773 8.29149 5
      vertex -4.63525 14.2658 5
    endloop
  endfacet
  facet normal 0 0 1
    outer loop
      vertex -4.44773 8.29149 5
      vertex -7.5 12.9904 5
      vertex -4.95677 7.9976 5
    endloop
  endfacet
  facet normal -0 0 1
    outer loop
      vertex -10.037 11.1472 5
      vertex -4.95677 7.9976 5
      vertex -7.5 12.9904 5
    endloop
  endfacet
  facet normal 0 -0 1
    outer loop
      vertex -7.01536 6.27024 5
      vertex -4.95677 7.9976 5
      vertex -10.037 11.1472 5
    endloop
  endfacet
  facet normal 0 0 1
    outer loop
      vertex -5.05068 7.4492 5
      vertex -7.01536 6.27024 5
      vertex -6.53396 6.18929 5
    endloop
  endfacet
  facet normal 0 0 1
    outer loop
      vertex -6.53396 6.18929 5
      vertex -7.01536 6.27024 5
      vertex -6.6 6.10242 5
    endloop
  endfacet
  facet normal 0 0 1
    outer loop
      vertex -4.95677 7.9976 5
      vertex -7.01536 6.27024 5
      vertex -5.05068 7.4492 5
    endloop
  endfacet
  facet normal 0 0 1
    outer loop
      vertex 9.40451 -0.293892 5
      vertex 8.78958 -1.93473 5
      vertex 8.93786 -2.94036 5
    endloop
  endfacet
  facet normal 0 0 1
    outer loop
      vertex 8.93786 -2.94036 5
      vertex 8.78958 -1.93473 5
      vertex 8.55226 -2.63909 5
    endloop
  endfacet
  facet normal -0 0 1
    outer loop
      vertex 9.40451 0.293892 5
      vertex 15 0 5
      vertex 14.6722 3.11868 5
    endloop
  endfacet
  facet normal 0 0 1
    outer loop
      vertex 8.93786 2.94036 5
      vertex 14.6722 3.11868 5
      vertex 13.7032 6.10105 5
    endloop
  endfacet
  facet normal 0 0 1
    outer loop
      vertex 9.40451 -0.293892 5
      vertex 15 0 5
      vertex 9.40451 0.293892 5
    endloop
  endfacet
  facet normal 0 0 1
    outer loop
      vertex 8.73683 3.4927 5
      vertex 13.7032 6.10105 5
      vertex 12.1353 8.81678 5
    endloop
  endfacet
  facet normal 0 0 1
    outer loop
      vertex 15 0 5
      vertex 9.40451 -0.293892 5
      vertex 14.6722 -3.11868 5
    endloop
  endfacet
  facet normal 0 0 1
    outer loop
      vertex 7.01536 6.27024 5
      vertex 12.1353 8.81678 5
      vertex 10.037 11.1472 5
    endloop
  endfacet
  facet normal -0 0 1
    outer loop
      vertex 8.93786 -2.94036 5
      vertex 14.6722 -3.11868 5
      vertex 9.40451 -0.293892 5
    endloop
  endfacet
  facet normal 0 0 1
    outer loop
      vertex 14.6722 -3.11868 5
      vertex 8.93786 -2.94036 5
      vertex 13.7032 -6.10105 5
    endloop
  endfacet
  facet normal 0 0 1
    outer loop
      vertex 14.6722 3.11868 5
      vertex 8.93786 2.94036 5
      vertex 9.40451 0.293892 5
    endloop
  endfacet
  facet normal -0 0 1
    outer loop
      vertex 8.78958 1.93473 5
      vertex 9.40451 0.293892 5
      vertex 8.93786 2.94036 5
    endloop
  endfacet
  facet normal 0 0 1
    outer loop
      vertex 13.7032 6.10105 5
      vertex 8.73683 3.4927 5
      vertex 8.93786 2.94036 5
    endloop
  endfacet
  facet normal 0 0 1
    outer loop
      vertex 12.1353 8.81678 5
      vertex 7.39318 5.81997 5
      vertex 8.73683 3.4927 5
    endloop
  endfacet
  facet normal 0 0 1
    outer loop
      vertex 8.73683 3.4927 5
      vertex 8.16818 3.779 5
      vertex 8.27014 3.4764 5
    endloop
  endfacet
  facet normal 0 0 1
    outer loop
      vertex 4.95677 7.9976 5
      vertex 10.037 11.1472 5
      vertex 7.5 12.9904 5
    endloop
  endfacet
  facet normal 0 0 1
    outer loop
      vertex 8.73683 3.4927 5
      vertex 7.39318 5.81997 5
      vertex 8.16818 3.779 5
    endloop
  endfacet
  facet normal 0 0 1
    outer loop
      vertex 7.39318 5.81997 5
      vertex 7.16484 5.44657 5
      vertex 8.16818 3.779 5
    endloop
  endfacet
  facet normal 0 -0 1
    outer loop
      vertex 7.16484 5.44657 5
      vertex 7.39318 5.81997 5
      vertex 7.16184 5.44974 5
    endloop
  endfacet
  facet normal -0 0 1
    outer loop
      vertex 8.73683 -3.4927 5
      vertex 13.7032 -6.10105 5
      vertex 8.93786 -2.94036 5
    endloop
  endfacet
  facet normal 0 0 1
    outer loop
      vertex 8.78958 -1.93473 5
      vertex 9.40451 -0.293892 5
      vertex 8.95205 -0.440905 5
    endloop
  endfacet
  facet normal 0 0 1
    outer loop
      vertex 13.7032 -6.10105 5
      vertex 8.73683 -3.4927 5
      vertex 12.1353 -8.81678 5
    endloop
  endfacet
  facet normal -0 0 1
    outer loop
      vertex 7.39318 -5.81997 5
      vertex 12.1353 -8.81678 5
      vertex 8.73683 -3.4927 5
    endloop
  endfacet
  facet normal 0 0 1
    outer loop
      vertex 8.16818 -3.779 5
      vertex 8.73683 -3.4927 5
      vertex 8.27014 -3.4764 5
    endloop
  endfacet
  facet normal 0 0 1
    outer loop
      vertex 7.39318 -5.81997 5
      vertex 8.73683 -3.4927 5
      vertex 8.16818 -3.779 5
    endloop
  endfacet
  facet normal -0 0 1
    outer loop
      vertex 7.01536 -6.27024 5
      vertex 12.1353 -8.81678 5
      vertex 7.39318 -5.81997 5
    endloop
  endfacet
  facet normal 0 0 1
    outer loop
      vertex 12.1353 -8.81678 5
      vertex 7.01536 -6.27024 5
      vertex 10.037 -11.1472 5
    endloop
  endfacet
  facet normal -0 0 1
    outer loop
      vertex 7.16484 -5.44657 5
      vertex 7.39318 -5.81997 5
      vertex 8.16818 -3.779 5
    endloop
  endfacet
  facet normal 0 0 1
    outer loop
      vertex 7.39318 -5.81997 5
      vertex 7.16484 -5.44657 5
      vertex 7.16184 -5.44974 5
    endloop
  endfacet
  facet normal 0 0 1
    outer loop
      vertex 9.40451 0.293892 5
      vertex 8.78958 1.93473 5
      vertex 8.95205 0.440905 5
    endloop
  endfacet
  facet normal 0 -0 1
    outer loop
      vertex 8.78958 1.93473 5
      vertex 8.93786 2.94036 5
      vertex 8.55226 2.63909 5
    endloop
  endfacet
  facet normal -0 0 1
    outer loop
      vertex 4.95677 -7.9976 5
      vertex 10.037 -11.1472 5
      vertex 7.01536 -6.27024 5
    endloop
  endfacet
  facet normal 0 0 1
    outer loop
      vertex 5.82648 -6.85946 5
      vertex 7.01536 -6.27024 5
      vertex 6.5592 -6.08593 5
    endloop
  endfacet
  facet normal 0 0 1
    outer loop
      vertex 4.95677 -7.9976 5
      vertex 7.01536 -6.27024 5
      vertex 5.82648 -6.85946 5
    endloop
  endfacet
  facet normal 0 0 1
    outer loop
      vertex 10.037 -11.1472 5
      vertex 4.95677 -7.9976 5
      vertex 7.5 -12.9904 5
    endloop
  endfacet
  facet normal -0 0 1
    outer loop
      vertex 4.44773 -8.29149 5
      vertex 7.5 -12.9904 5
      vertex 4.95677 -7.9976 5
    endloop
  endfacet
  facet normal 0 0 1
    outer loop
      vertex 7.5 -12.9904 5
      vertex 4.44773 -8.29149 5
      vertex 4.63525 -14.2658 5
    endloop
  endfacet
  facet normal 0 0 1
    outer loop
      vertex 2.40775 -8.67195 5
      vertex 4.44773 -8.29149 5
      vertex 4.11487 -7.99177 5
    endloop
  endfacet
  facet normal 0 0 1
    outer loop
      vertex 4.44773 -8.29149 5
      vertex 2.40775 -8.67195 5
      vertex 1.9225 -9.2106 5
    endloop
  endfacet
  facet normal 0 0 1
    outer loop
      vertex 1.9225 -9.2106 5
      vertex 2.40775 -8.67195 5
      vertex 1.98855 -8.74067 5
    endloop
  endfacet
  facet normal 0 0 1
    outer loop
      vertex 4.44773 -8.29149 5
      vertex 1.9225 -9.2106 5
      vertex 4.63525 -14.2658 5
    endloop
  endfacet
  facet normal 0 0 1
    outer loop
      vertex 1.9225 -9.2106 5
      vertex 1.56793 -14.9178 5
      vertex 4.63525 -14.2658 5
    endloop
  endfacet
  facet normal -0 0 1
    outer loop
      vertex 1.34365 -9.31267 5
      vertex 1.56793 -14.9178 5
      vertex 1.9225 -9.2106 5
    endloop
  endfacet
  facet normal -0 0 1
    outer loop
      vertex 0.487249 -8.9868 5
      vertex 1.34365 -9.31267 5
      vertex 1.11561 -8.88379 5
    endloop
  endfacet
  facet normal 0 0 1
    outer loop
      vertex -1.34365 -9.31267 5
      vertex 1.34365 -9.31267 5
      vertex 0.487249 -8.9868 5
    endloop
  endfacet
  facet normal 0 0 1
    outer loop
      vertex -1.34365 -9.31267 5
      vertex 0.487249 -8.9868 5
      vertex -1.12393 -8.89944 5
    endloop
  endfacet
  facet normal 0 0 1
    outer loop
      vertex 1.34365 -9.31267 5
      vertex -1.34365 -9.31267 5
      vertex 1.56793 -14.9178 5
    endloop
  endfacet
  facet normal 0 0 1
    outer loop
      vertex -1.34365 -9.31267 5
      vertex -1.56793 -14.9178 5
      vertex 1.56793 -14.9178 5
    endloop
  endfacet
  facet normal 0 0 1
    outer loop
      vertex -1.9225 -9.2106 5
      vertex -1.56793 -14.9178 5
      vertex -1.34365 -9.31267 5
    endloop
  endfacet
  facet normal 0 0 1
    outer loop
      vertex -3.33124 -8.36079 5
      vertex -1.9225 -9.2106 5
      vertex -1.98958 -8.7333 5
    endloop
  endfacet
  facet normal 0 0 1
    outer loop
      vertex -4.44773 -8.29149 5
      vertex -1.9225 -9.2106 5
      vertex -3.33124 -8.36079 5
    endloop
  endfacet
  facet normal -0 0 1
    outer loop
      vertex -4.44773 -8.29149 5
      vertex -3.33124 -8.36079 5
      vertex -4.08241 -7.96255 5
    endloop
  endfacet
  facet normal 0 0 1
    outer loop
      vertex -1.9225 -9.2106 5
      vertex -4.44773 -8.29149 5
      vertex -4.63525 -14.2658 5
    endloop
  endfacet
  facet normal 0 0 1
    outer loop
      vertex -1.9225 -9.2106 5
      vertex -4.63525 -14.2658 5
      vertex -1.56793 -14.9178 5
    endloop
  endfacet
  facet normal 0 0 1
    outer loop
      vertex -7.5 -12.9904 5
      vertex -4.44773 -8.29149 5
      vertex -4.95677 -7.9976 5
    endloop
  endfacet
  facet normal 0 0 1
    outer loop
      vertex -7.01536 -6.27024 5
      vertex -4.95677 -7.9976 5
      vertex -5.05068 -7.4492 5
    endloop
  endfacet
  facet normal -0 0 1
    outer loop
      vertex -7.01536 -6.27024 5
      vertex -5.05068 -7.4492 5
      vertex -6.53396 -6.18929 5
    endloop
  endfacet
  facet normal 0 0 1
    outer loop
      vertex -7.01536 -6.27024 5
      vertex -6.53396 -6.18929 5
      vertex -6.6 -6.10242 5
    endloop
  endfacet
  facet normal 0 0 1
    outer loop
      vertex -4.95677 -7.9976 5
      vertex -7.01536 -6.27024 5
      vertex -10.037 -11.1472 5
    endloop
  endfacet
  facet normal 0 0 1
    outer loop
      vertex -12.1353 -8.81678 5
      vertex -7.01536 -6.27024 5
      vertex -7.39318 -5.81997 5
    endloop
  endfacet
  facet normal 0 0 1
    outer loop
      vertex -4.44773 -8.29149 5
      vertex -7.5 -12.9904 5
      vertex -4.63525 -14.2658 5
    endloop
  endfacet
  facet normal 0 0 1
    outer loop
      vertex 5.82648 6.85946 5
      vertex 4.95677 7.9976 5
      vertex 4.85488 7.51822 5
    endloop
  endfacet
  facet normal 0 0 1
    outer loop
      vertex -4.86152 7.54949 5
      vertex -4.95677 7.9976 5
      vertex -5.05068 7.4492 5
    endloop
  endfacet
  facet normal 0 0 1
    outer loop
      vertex -7.39318 5.81997 5
      vertex -7.71171 4.63998 5
      vertex -7.13221 5.40232 5
    endloop
  endfacet
  facet normal -0 0 1
    outer loop
      vertex -12.1353 8.81678 5
      vertex -7.01536 6.27024 5
      vertex -10.037 11.1472 5
    endloop
  endfacet
  facet normal 0 0 1
    outer loop
      vertex -7.01536 6.27024 5
      vertex -12.1353 8.81678 5
      vertex -7.39318 5.81997 5
    endloop
  endfacet
  facet normal 0 -0 1
    outer loop
      vertex -8.73683 3.4927 5
      vertex -7.39318 5.81997 5
      vertex -12.1353 8.81678 5
    endloop
  endfacet
  facet normal 0 0 1
    outer loop
      vertex -7.71171 4.63998 5
      vertex -8.73683 3.4927 5
      vertex -8.25036 3.47571 5
    endloop
  endfacet
  facet normal 0 0 1
    outer loop
      vertex -8.94724 0.973071 5
      vertex -9.40451 0.293892 5
      vertex -8.94724 0.442467 5
    endloop
  endfacet
  facet normal 0 0 1
    outer loop
      vertex -8.93786 2.94036 5
      vertex -9.40451 0.293892 5
      vertex -8.94724 0.973071 5
    endloop
  endfacet
  facet normal 0 0 1
    outer loop
      vertex -7.39318 5.81997 5
      vertex -8.73683 3.4927 5
      vertex -7.71171 4.63998 5
    endloop
  endfacet
  facet normal 0 0 1
    outer loop
      vertex -8.73683 3.4927 5
      vertex -13.7032 6.10105 5
      vertex -8.93786 2.94036 5
    endloop
  endfacet
  facet normal -0 0 1
    outer loop
      vertex -13.7032 6.10105 5
      vertex -8.73683 3.4927 5
      vertex -12.1353 8.81678 5
    endloop
  endfacet
  facet normal 0 0 1
    outer loop
      vertex -7.71171 -4.63998 5
      vertex -7.39318 -5.81997 5
      vertex -7.13221 -5.40232 5
    endloop
  endfacet
  facet normal 0 0 1
    outer loop
      vertex -8.73683 -3.4927 5
      vertex -7.39318 -5.81997 5
      vertex -7.71171 -4.63998 5
    endloop
  endfacet
  facet normal -0 0 1
    outer loop
      vertex -8.73683 -3.4927 5
      vertex -7.71171 -4.63998 5
      vertex -8.25036 -3.47571 5
    endloop
  endfacet
  facet normal 0 0 1
    outer loop
      vertex -7.39318 -5.81997 5
      vertex -8.73683 -3.4927 5
      vertex -12.1353 -8.81678 5
    endloop
  endfacet
  facet normal 0 0 1
    outer loop
      vertex -13.7032 -6.10105 5
      vertex -8.73683 -3.4927 5
      vertex -8.93786 -2.94036 5
    endloop
  endfacet
  facet normal 0 0 1
    outer loop
      vertex -9.40451 -0.293892 5
      vertex -8.93786 -2.94036 5
      vertex -8.94724 -0.973071 5
    endloop
  endfacet
  facet normal 0 0 1
    outer loop
      vertex -14.6722 -3.11868 5
      vertex -8.93786 -2.94036 5
      vertex -9.40451 -0.293892 5
    endloop
  endfacet
  facet normal 0 0 1
    outer loop
      vertex -4.95677 -7.9976 5
      vertex -10.037 -11.1472 5
      vertex -7.5 -12.9904 5
    endloop
  endfacet
  facet normal -0 0 1
    outer loop
      vertex -14.6722 3.11868 5
      vertex -8.93786 2.94036 5
      vertex -13.7032 6.10105 5
    endloop
  endfacet
  facet normal 0 0 1
    outer loop
      vertex -8.93786 2.94036 5
      vertex -14.6722 3.11868 5
      vertex -9.40451 0.293892 5
    endloop
  endfacet
  facet normal 0 0 1
    outer loop
      vertex -7.01536 -6.27024 5
      vertex -12.1353 -8.81678 5
      vertex -10.037 -11.1472 5
    endloop
  endfacet
  facet normal 0 0 1
    outer loop
      vertex -15 0 5
      vertex -9.40451 0.293892 5
      vertex -14.6722 3.11868 5
    endloop
  endfacet
  facet normal 0 0 1
    outer loop
      vertex -8.73683 -3.4927 5
      vertex -13.7032 -6.10105 5
      vertex -12.1353 -8.81678 5
    endloop
  endfacet
  facet normal 0 0 1
    outer loop
      vertex -9.40451 0.293892 5
      vertex -15 0 5
      vertex -9.40451 -0.293892 5
    endloop
  endfacet
  facet normal 0 0 1
    outer loop
      vertex -8.93786 -2.94036 5
      vertex -14.6722 -3.11868 5
      vertex -13.7032 -6.10105 5
    endloop
  endfacet
  facet normal 0 0 1
    outer loop
      vertex -9.40451 -0.293892 5
      vertex -15 0 5
      vertex -14.6722 -3.11868 5
    endloop
  endfacet
  facet normal 0 0 1
    outer loop
      vertex -8.57637 2.65794 5
      vertex -8.93786 2.94036 5
      vertex -8.94724 0.973071 5
    endloop
  endfacet
  facet normal 0.0349038 -0.999391 0
    outer loop
      vertex -8.73683 -3.4927 5
      vertex -8.25036 -3.47571 25
      vertex -8.73683 -3.4927 25
    endloop
  endfacet
  facet normal 0.0349038 -0.999391 0
    outer loop
      vertex -8.25036 -3.47571 25
      vertex -8.73683 -3.4927 5
      vertex -8.25036 -3.47571 5
    endloop
  endfacet
  facet normal -0.615652 0.788018 0
    outer loop
      vertex -8.57637 -2.65794 5
      vertex -8.93786 -2.94036 25
      vertex -8.57637 -2.65794 25
    endloop
  endfacet
  facet normal -0.615652 0.788018 0
    outer loop
      vertex -8.93786 -2.94036 25
      vertex -8.57637 -2.65794 5
      vertex -8.93786 -2.94036 5
    endloop
  endfacet
  facet normal -0.939696 -0.342012 0
    outer loop
      vertex -8.73683 -3.4927 5
      vertex -8.93786 -2.94036 25
      vertex -8.93786 -2.94036 5
    endloop
  endfacet
  facet normal -0.939696 -0.342012 0
    outer loop
      vertex -8.93786 -2.94036 25
      vertex -8.73683 -3.4927 5
      vertex -8.73683 -3.4927 25
    endloop
  endfacet
  facet normal 0.374614 -0.927181 0
    outer loop
      vertex -7.01536 -6.27024 5
      vertex -6.6 -6.10242 25
      vertex -7.01536 -6.27024 25
    endloop
  endfacet
  facet normal 0.374614 -0.927181 0
    outer loop
      vertex -6.6 -6.10242 25
      vertex -7.01536 -6.27024 5
      vertex -6.6 -6.10242 5
    endloop
  endfacet
  facet normal -0.848054 0.52991 0
    outer loop
      vertex -7.39318 -5.81997 5
      vertex -7.13221 -5.40232 25
      vertex -7.13221 -5.40232 5
    endloop
  endfacet
  facet normal -0.848054 0.52991 0
    outer loop
      vertex -7.13221 -5.40232 25
      vertex -7.39318 -5.81997 5
      vertex -7.39318 -5.81997 25
    endloop
  endfacet
  facet normal -0.766046 -0.642786 0
    outer loop
      vertex -7.01536 -6.27024 5
      vertex -7.39318 -5.81997 25
      vertex -7.39318 -5.81997 5
    endloop
  endfacet
  facet normal -0.766046 -0.642786 0
    outer loop
      vertex -7.39318 -5.81997 25
      vertex -7.01536 -6.27024 5
      vertex -7.01536 -6.27024 25
    endloop
  endfacet
  facet normal 0.669136 -0.74314 0
    outer loop
      vertex -4.44773 -8.29149 5
      vertex -4.08241 -7.96255 25
      vertex -4.44773 -8.29149 25
    endloop
  endfacet
  facet normal 0.669136 -0.74314 0
    outer loop
      vertex -4.08241 -7.96255 25
      vertex -4.44773 -8.29149 5
      vertex -4.08241 -7.96255 5
    endloop
  endfacet
  facet normal -0.978147 0.207914 0
    outer loop
      vertex -4.95677 -7.9976 5
      vertex -4.86152 -7.54949 25
      vertex -4.86152 -7.54949 5
    endloop
  endfacet
  facet normal -0.978147 0.207914 0
    outer loop
      vertex -4.86152 -7.54949 25
      vertex -4.95677 -7.9976 5
      vertex -4.95677 -7.9976 25
    endloop
  endfacet
  facet normal -0.499994 -0.866029 0
    outer loop
      vertex -4.95677 -7.9976 5
      vertex -4.44773 -8.29149 25
      vertex -4.95677 -7.9976 25
    endloop
  endfacet
  facet normal -0.499994 -0.866029 -0
    outer loop
      vertex -4.44773 -8.29149 25
      vertex -4.95677 -7.9976 5
      vertex -4.44773 -8.29149 5
    endloop
  endfacet
  facet normal 0.882946 -0.469474 0
    outer loop
      vertex -1.34365 -9.31267 25
      vertex -1.12393 -8.89944 5
      vertex -1.12393 -8.89944 25
    endloop
  endfacet
  facet normal 0.882946 -0.469474 0
    outer loop
      vertex -1.12393 -8.89944 5
      vertex -1.34365 -9.31267 25
      vertex -1.34365 -9.31267 5
    endloop
  endfacet
  facet normal -0.990268 -0.139173 0
    outer loop
      vertex -1.9225 -9.2106 5
      vertex -1.98958 -8.7333 25
      vertex -1.98958 -8.7333 5
    endloop
  endfacet
  facet normal -0.990268 -0.139173 0
    outer loop
      vertex -1.98958 -8.7333 25
      vertex -1.9225 -9.2106 5
      vertex -1.9225 -9.2106 25
    endloop
  endfacet
  facet normal -0.173653 -0.984807 0
    outer loop
      vertex -1.9225 -9.2106 5
      vertex -1.34365 -9.31267 25
      vertex -1.9225 -9.2106 25
    endloop
  endfacet
  facet normal -0.173653 -0.984807 -0
    outer loop
      vertex -1.34365 -9.31267 25
      vertex -1.9225 -9.2106 5
      vertex -1.34365 -9.31267 5
    endloop
  endfacet
  facet normal 0.990266 -0.139185 0
    outer loop
      vertex 1.9225 -9.2106 25
      vertex 1.98855 -8.74067 5
      vertex 1.98855 -8.74067 25
    endloop
  endfacet
  facet normal 0.990266 -0.139185 0
    outer loop
      vertex 1.98855 -8.74067 5
      vertex 1.9225 -9.2106 25
      vertex 1.9225 -9.2106 5
    endloop
  endfacet
  facet normal -0.882947 -0.469472 0
    outer loop
      vertex 1.34365 -9.31267 5
      vertex 1.11561 -8.88379 25
      vertex 1.11561 -8.88379 5
    endloop
  endfacet
  facet normal -0.882947 -0.469472 0
    outer loop
      vertex 1.11561 -8.88379 25
      vertex 1.34365 -9.31267 5
      vertex 1.34365 -9.31267 25
    endloop
  endfacet
  facet normal 0.173653 -0.984807 0
    outer loop
      vertex 1.34365 -9.31267 5
      vertex 1.9225 -9.2106 25
      vertex 1.34365 -9.31267 25
    endloop
  endfacet
  facet normal 0.173653 -0.984807 0
    outer loop
      vertex 1.9225 -9.2106 25
      vertex 1.34365 -9.31267 5
      vertex 1.9225 -9.2106 5
    endloop
  endfacet
  facet normal 0.499994 -0.866029 0
    outer loop
      vertex 4.44773 -8.29149 5
      vertex 4.95677 -7.9976 25
      vertex 4.44773 -8.29149 25
    endloop
  endfacet
  facet normal 0.499994 -0.866029 0
    outer loop
      vertex 4.95677 -7.9976 25
      vertex 4.44773 -8.29149 5
      vertex 4.95677 -7.9976 5
    endloop
  endfacet
  facet normal 0.97815 0.207901 0
    outer loop
      vertex 4.95677 -7.9976 25
      vertex 4.85488 -7.51822 5
      vertex 4.85488 -7.51822 25
    endloop
  endfacet
  facet normal 0.97815 0.207901 0
    outer loop
      vertex 4.85488 -7.51822 5
      vertex 4.95677 -7.9976 25
      vertex 4.95677 -7.9976 5
    endloop
  endfacet
  facet normal -0.669145 -0.743132 0
    outer loop
      vertex 4.11487 -7.99177 5
      vertex 4.44773 -8.29149 25
      vertex 4.11487 -7.99177 25
    endloop
  endfacet
  facet normal -0.669145 -0.743132 -0
    outer loop
      vertex 4.44773 -8.29149 25
      vertex 4.11487 -7.99177 5
      vertex 4.44773 -8.29149 5
    endloop
  endfacet
  facet normal -0.374623 -0.927177 0
    outer loop
      vertex 6.5592 -6.08593 5
      vertex 7.01536 -6.27024 25
      vertex 6.5592 -6.08593 25
    endloop
  endfacet
  facet normal -0.374623 -0.927177 -0
    outer loop
      vertex 7.01536 -6.27024 25
      vertex 6.5592 -6.08593 5
      vertex 7.01536 -6.27024 5
    endloop
  endfacet
  facet normal 0.766046 -0.642786 0
    outer loop
      vertex 7.01536 -6.27024 25
      vertex 7.39318 -5.81997 5
      vertex 7.39318 -5.81997 25
    endloop
  endfacet
  facet normal 0.766046 -0.642786 0
    outer loop
      vertex 7.39318 -5.81997 5
      vertex 7.01536 -6.27024 25
      vertex 7.01536 -6.27024 5
    endloop
  endfacet
  facet normal 0.848054 0.52991 0
    outer loop
      vertex 7.39318 -5.81997 25
      vertex 7.16184 -5.44974 5
      vertex 7.16184 -5.44974 25
    endloop
  endfacet
  facet normal 0.848054 0.52991 0
    outer loop
      vertex 7.16184 -5.44974 5
      vertex 7.39318 -5.81997 25
      vertex 7.39318 -5.81997 5
    endloop
  endfacet
  facet normal -0.0349055 -0.999391 0
    outer loop
      vertex 8.27014 -3.4764 5
      vertex 8.73683 -3.4927 25
      vertex 8.27014 -3.4764 25
    endloop
  endfacet
  facet normal -0.0349055 -0.999391 -0
    outer loop
      vertex 8.73683 -3.4927 25
      vertex 8.27014 -3.4764 5
      vertex 8.73683 -3.4927 5
    endloop
  endfacet
  facet normal 0.939696 -0.342012 0
    outer loop
      vertex 8.73683 -3.4927 25
      vertex 8.93786 -2.94036 5
      vertex 8.93786 -2.94036 25
    endloop
  endfacet
  facet normal 0.939696 -0.342012 0
    outer loop
      vertex 8.93786 -2.94036 5
      vertex 8.73683 -3.4927 25
      vertex 8.73683 -3.4927 5
    endloop
  endfacet
  facet normal 0.615669 0.788005 -0
    outer loop
      vertex 8.93786 -2.94036 5
      vertex 8.55226 -2.63909 25
      vertex 8.93786 -2.94036 25
    endloop
  endfacet
  facet normal 0.615669 0.788005 0
    outer loop
      vertex 8.55226 -2.63909 25
      vertex 8.93786 -2.94036 5
      vertex 8.55226 -2.63909 5
    endloop
  endfacet
  facet normal 0.309017 -0.951057 0
    outer loop
      vertex 8.95205 -0.440905 5
      vertex 9.40451 -0.293892 25
      vertex 8.95205 -0.440905 25
    endloop
  endfacet
  facet normal 0.309017 -0.951057 0
    outer loop
      vertex 9.40451 -0.293892 25
      vertex 8.95205 -0.440905 5
      vertex 9.40451 -0.293892 5
    endloop
  endfacet
  facet normal 1 -0 0
    outer loop
      vertex 9.40451 -0.293892 25
      vertex 9.40451 0.293892 5
      vertex 9.40451 0.293892 25
    endloop
  endfacet
  facet normal 1 0 0
    outer loop
      vertex 9.40451 0.293892 5
      vertex 9.40451 -0.293892 25
      vertex 9.40451 -0.293892 5
    endloop
  endfacet
  facet normal 0.309017 0.951057 -0
    outer loop
      vertex 9.40451 0.293892 5
      vertex 8.95205 0.440905 25
      vertex 9.40451 0.293892 25
    endloop
  endfacet
  facet normal 0.309017 0.951057 0
    outer loop
      vertex 8.95205 0.440905 25
      vertex 9.40451 0.293892 5
      vertex 8.95205 0.440905 5
    endloop
  endfacet
  facet normal 0.615669 -0.788005 0
    outer loop
      vertex 8.55226 2.63909 5
      vertex 8.93786 2.94036 25
      vertex 8.55226 2.63909 25
    endloop
  endfacet
  facet normal 0.615669 -0.788005 0
    outer loop
      vertex 8.93786 2.94036 25
      vertex 8.55226 2.63909 5
      vertex 8.93786 2.94036 5
    endloop
  endfacet
  facet normal 0.939696 0.342012 0
    outer loop
      vertex 8.93786 2.94036 25
      vertex 8.73683 3.4927 5
      vertex 8.73683 3.4927 25
    endloop
  endfacet
  facet normal 0.939696 0.342012 0
    outer loop
      vertex 8.73683 3.4927 5
      vertex 8.93786 2.94036 25
      vertex 8.93786 2.94036 5
    endloop
  endfacet
  facet normal -0.0349055 0.999391 0
    outer loop
      vertex 8.73683 3.4927 5
      vertex 8.27014 3.4764 25
      vertex 8.73683 3.4927 25
    endloop
  endfacet
  facet normal -0.0349055 0.999391 0
    outer loop
      vertex 8.27014 3.4764 25
      vertex 8.73683 3.4927 5
      vertex 8.27014 3.4764 5
    endloop
  endfacet
  facet normal 0.848054 -0.52991 0
    outer loop
      vertex 7.16184 5.44974 25
      vertex 7.39318 5.81997 5
      vertex 7.39318 5.81997 25
    endloop
  endfacet
  facet normal 0.848054 -0.52991 0
    outer loop
      vertex 7.39318 5.81997 5
      vertex 7.16184 5.44974 25
      vertex 7.16184 5.44974 5
    endloop
  endfacet
  facet normal 0.766046 0.642786 0
    outer loop
      vertex 7.39318 5.81997 25
      vertex 7.01536 6.27024 5
      vertex 7.01536 6.27024 25
    endloop
  endfacet
  facet normal 0.766046 0.642786 0
    outer loop
      vertex 7.01536 6.27024 5
      vertex 7.39318 5.81997 25
      vertex 7.39318 5.81997 5
    endloop
  endfacet
  facet normal -0.374623 0.927177 0
    outer loop
      vertex 7.01536 6.27024 5
      vertex 6.5592 6.08593 25
      vertex 7.01536 6.27024 25
    endloop
  endfacet
  facet normal -0.374623 0.927177 0
    outer loop
      vertex 6.5592 6.08593 25
      vertex 7.01536 6.27024 5
      vertex 6.5592 6.08593 5
    endloop
  endfacet
  facet normal 0.97815 -0.207901 0
    outer loop
      vertex 4.85488 7.51822 25
      vertex 4.95677 7.9976 5
      vertex 4.95677 7.9976 25
    endloop
  endfacet
  facet normal 0.97815 -0.207901 0
    outer loop
      vertex 4.95677 7.9976 5
      vertex 4.85488 7.51822 25
      vertex 4.85488 7.51822 5
    endloop
  endfacet
  facet normal 0.499994 0.866029 -0
    outer loop
      vertex 4.95677 7.9976 5
      vertex 4.44773 8.29149 25
      vertex 4.95677 7.9976 25
    endloop
  endfacet
  facet normal 0.499994 0.866029 0
    outer loop
      vertex 4.44773 8.29149 25
      vertex 4.95677 7.9976 5
      vertex 4.44773 8.29149 5
    endloop
  endfacet
  facet normal -0.669145 0.743132 0
    outer loop
      vertex 4.44773 8.29149 5
      vertex 4.11487 7.99177 25
      vertex 4.44773 8.29149 25
    endloop
  endfacet
  facet normal -0.669145 0.743132 0
    outer loop
      vertex 4.11487 7.99177 25
      vertex 4.44773 8.29149 5
      vertex 4.11487 7.99177 5
    endloop
  endfacet
  facet normal 0.990266 0.139185 0
    outer loop
      vertex 1.98855 8.74067 25
      vertex 1.9225 9.2106 5
      vertex 1.9225 9.2106 25
    endloop
  endfacet
  facet normal 0.990266 0.139185 0
    outer loop
      vertex 1.9225 9.2106 5
      vertex 1.98855 8.74067 25
      vertex 1.98855 8.74067 5
    endloop
  endfacet
  facet normal 0.173653 0.984807 -0
    outer loop
      vertex 1.9225 9.2106 5
      vertex 1.34365 9.31267 25
      vertex 1.9225 9.2106 25
    endloop
  endfacet
  facet normal 0.173653 0.984807 0
    outer loop
      vertex 1.34365 9.31267 25
      vertex 1.9225 9.2106 5
      vertex 1.34365 9.31267 5
    endloop
  endfacet
  facet normal -0.882947 0.469472 0
    outer loop
      vertex 1.11561 8.88379 5
      vertex 1.34365 9.31267 25
      vertex 1.34365 9.31267 5
    endloop
  endfacet
  facet normal -0.882947 0.469472 0
    outer loop
      vertex 1.34365 9.31267 25
      vertex 1.11561 8.88379 5
      vertex 1.11561 8.88379 25
    endloop
  endfacet
  facet normal 0.882946 0.469474 0
    outer loop
      vertex -1.12393 8.89944 25
      vertex -1.34365 9.31267 5
      vertex -1.34365 9.31267 25
    endloop
  endfacet
  facet normal 0.882946 0.469474 0
    outer loop
      vertex -1.34365 9.31267 5
      vertex -1.12393 8.89944 25
      vertex -1.12393 8.89944 5
    endloop
  endfacet
  facet normal -0.173653 0.984807 0
    outer loop
      vertex -1.34365 9.31267 5
      vertex -1.9225 9.2106 25
      vertex -1.34365 9.31267 25
    endloop
  endfacet
  facet normal -0.173653 0.984807 0
    outer loop
      vertex -1.9225 9.2106 25
      vertex -1.34365 9.31267 5
      vertex -1.9225 9.2106 5
    endloop
  endfacet
  facet normal -0.990268 0.139173 0
    outer loop
      vertex -1.98958 8.7333 5
      vertex -1.9225 9.2106 25
      vertex -1.9225 9.2106 5
    endloop
  endfacet
  facet normal -0.990268 0.139173 0
    outer loop
      vertex -1.9225 9.2106 25
      vertex -1.98958 8.7333 5
      vertex -1.98958 8.7333 25
    endloop
  endfacet
  facet normal -0.978147 -0.207914 0
    outer loop
      vertex -4.86152 7.54949 5
      vertex -4.95677 7.9976 25
      vertex -4.95677 7.9976 5
    endloop
  endfacet
  facet normal -0.978147 -0.207914 0
    outer loop
      vertex -4.95677 7.9976 25
      vertex -4.86152 7.54949 5
      vertex -4.86152 7.54949 25
    endloop
  endfacet
  facet normal 0.669136 0.74314 -0
    outer loop
      vertex -4.08241 7.96255 5
      vertex -4.44773 8.29149 25
      vertex -4.08241 7.96255 25
    endloop
  endfacet
  facet normal 0.669136 0.74314 0
    outer loop
      vertex -4.44773 8.29149 25
      vertex -4.08241 7.96255 5
      vertex -4.44773 8.29149 5
    endloop
  endfacet
  facet normal -0.499994 0.866029 0
    outer loop
      vertex -4.44773 8.29149 5
      vertex -4.95677 7.9976 25
      vertex -4.44773 8.29149 25
    endloop
  endfacet
  facet normal -0.499994 0.866029 0
    outer loop
      vertex -4.95677 7.9976 25
      vertex -4.44773 8.29149 5
      vertex -4.95677 7.9976 5
    endloop
  endfacet
  facet normal -0.848054 -0.52991 0
    outer loop
      vertex -7.13221 5.40232 5
      vertex -7.39318 5.81997 25
      vertex -7.39318 5.81997 5
    endloop
  endfacet
  facet normal -0.848054 -0.52991 0
    outer loop
      vertex -7.39318 5.81997 25
      vertex -7.13221 5.40232 5
      vertex -7.13221 5.40232 25
    endloop
  endfacet
  facet normal 0.374614 0.927181 -0
    outer loop
      vertex -6.6 6.10242 5
      vertex -7.01536 6.27024 25
      vertex -6.6 6.10242 25
    endloop
  endfacet
  facet normal 0.374614 0.927181 0
    outer loop
      vertex -7.01536 6.27024 25
      vertex -6.6 6.10242 5
      vertex -7.01536 6.27024 5
    endloop
  endfacet
  facet normal -0.766046 0.642786 0
    outer loop
      vertex -7.39318 5.81997 5
      vertex -7.01536 6.27024 25
      vertex -7.01536 6.27024 5
    endloop
  endfacet
  facet normal -0.766046 0.642786 0
    outer loop
      vertex -7.01536 6.27024 25
      vertex -7.39318 5.81997 5
      vertex -7.39318 5.81997 25
    endloop
  endfacet
  facet normal -0.615652 -0.788018 0
    outer loop
      vertex -8.93786 2.94036 5
      vertex -8.57637 2.65794 25
      vertex -8.93786 2.94036 25
    endloop
  endfacet
  facet normal -0.615652 -0.788018 -0
    outer loop
      vertex -8.57637 2.65794 25
      vertex -8.93786 2.94036 5
      vertex -8.57637 2.65794 5
    endloop
  endfacet
  facet normal 0.0349038 0.999391 -0
    outer loop
      vertex -8.25036 3.47571 5
      vertex -8.73683 3.4927 25
      vertex -8.25036 3.47571 25
    endloop
  endfacet
  facet normal 0.0349038 0.999391 0
    outer loop
      vertex -8.73683 3.4927 25
      vertex -8.25036 3.47571 5
      vertex -8.73683 3.4927 5
    endloop
  endfacet
  facet normal -0.939696 0.342012 0
    outer loop
      vertex -8.93786 2.94036 5
      vertex -8.73683 3.4927 25
      vertex -8.73683 3.4927 5
    endloop
  endfacet
  facet normal -0.939696 0.342012 0
    outer loop
      vertex -8.73683 3.4927 25
      vertex -8.93786 2.94036 5
      vertex -8.93786 2.94036 25
    endloop
  endfacet
  facet normal 0.951059 0.309008 0
    outer loop
      vertex 14.6722 3.11868 5
      vertex 13.7032 6.10105 0
      vertex 13.7032 6.10105 5
    endloop
  endfacet
  facet normal 0.951059 0.309008 0
    outer loop
      vertex 13.7032 6.10105 0
      vertex 14.6722 3.11868 5
      vertex 14.6722 3.11868 0
    endloop
  endfacet
  facet normal 0.994521 0.104533 0
    outer loop
      vertex 15 0 5
      vertex 14.6722 3.11868 0
      vertex 14.6722 3.11868 5
    endloop
  endfacet
  facet normal 0.994521 0.104533 0
    outer loop
      vertex 14.6722 3.11868 0
      vertex 15 0 5
      vertex 15 0 0
    endloop
  endfacet
  facet normal 0.866029 0.499993 0
    outer loop
      vertex 13.7032 6.10105 5
      vertex 12.1353 8.81678 0
      vertex 12.1353 8.81678 5
    endloop
  endfacet
  facet normal 0.866029 0.499993 0
    outer loop
      vertex 12.1353 8.81678 0
      vertex 13.7032 6.10105 5
      vertex 13.7032 6.10105 0
    endloop
  endfacet
  facet normal 0.951059 -0.309008 0
    outer loop
      vertex 13.7032 -6.10105 5
      vertex 14.6722 -3.11868 0
      vertex 14.6722 -3.11868 5
    endloop
  endfacet
  facet normal 0.951059 -0.309008 0
    outer loop
      vertex 14.6722 -3.11868 0
      vertex 13.7032 -6.10105 5
      vertex 13.7032 -6.10105 0
    endloop
  endfacet
  facet normal 0.994521 -0.104533 0
    outer loop
      vertex 14.6722 -3.11868 5
      vertex 15 0 0
      vertex 15 0 5
    endloop
  endfacet
  facet normal 0.994521 -0.104533 0
    outer loop
      vertex 15 0 0
      vertex 14.6722 -3.11868 5
      vertex 14.6722 -3.11868 0
    endloop
  endfacet
  facet normal 0.743148 0.669127 0
    outer loop
      vertex 12.1353 8.81678 5
      vertex 10.037 11.1472 0
      vertex 10.037 11.1472 5
    endloop
  endfacet
  facet normal 0.743148 0.669127 0
    outer loop
      vertex 10.037 11.1472 0
      vertex 12.1353 8.81678 5
      vertex 12.1353 8.81678 0
    endloop
  endfacet
  facet normal -0.951059 -0.309008 0
    outer loop
      vertex -13.7032 -6.10105 0
      vertex -14.6722 -3.11868 5
      vertex -14.6722 -3.11868 0
    endloop
  endfacet
  facet normal -0.951059 -0.309008 0
    outer loop
      vertex -14.6722 -3.11868 5
      vertex -13.7032 -6.10105 0
      vertex -13.7032 -6.10105 5
    endloop
  endfacet
  facet normal -0.951059 0.309008 0
    outer loop
      vertex -14.6722 3.11868 0
      vertex -13.7032 6.10105 5
      vertex -13.7032 6.10105 0
    endloop
  endfacet
  facet normal -0.951059 0.309008 0
    outer loop
      vertex -13.7032 6.10105 5
      vertex -14.6722 3.11868 0
      vertex -14.6722 3.11868 5
    endloop
  endfacet
  facet normal 0.587777 -0.809023 0
    outer loop
      vertex 7.5 -12.9904 0
      vertex 10.037 -11.1472 5
      vertex 7.5 -12.9904 5
    endloop
  endfacet
  facet normal 0.587777 -0.809023 0
    outer loop
      vertex 10.037 -11.1472 5
      vertex 7.5 -12.9904 0
      vertex 10.037 -11.1472 0
    endloop
  endfacet
  facet normal -0.587777 0.809023 0
    outer loop
      vertex -7.5 12.9904 0
      vertex -10.037 11.1472 5
      vertex -7.5 12.9904 5
    endloop
  endfacet
  facet normal -0.587777 0.809023 0
    outer loop
      vertex -10.037 11.1472 5
      vertex -7.5 12.9904 0
      vertex -10.037 11.1472 0
    endloop
  endfacet
  facet normal -0.866029 0.499993 0
    outer loop
      vertex -13.7032 6.10105 0
      vertex -12.1353 8.81678 5
      vertex -12.1353 8.81678 0
    endloop
  endfacet
  facet normal -0.866029 0.499993 0
    outer loop
      vertex -12.1353 8.81678 5
      vertex -13.7032 6.10105 0
      vertex -13.7032 6.10105 5
    endloop
  endfacet
  facet normal 0.866029 -0.499993 0
    outer loop
      vertex 12.1353 -8.81678 5
      vertex 13.7032 -6.10105 0
      vertex 13.7032 -6.10105 5
    endloop
  endfacet
  facet normal 0.866029 -0.499993 0
    outer loop
      vertex 13.7032 -6.10105 0
      vertex 12.1353 -8.81678 5
      vertex 12.1353 -8.81678 0
    endloop
  endfacet
  facet normal 0 1 -0
    outer loop
      vertex 1.56793 14.9178 0
      vertex -1.56793 14.9178 5
      vertex 1.56793 14.9178 5
    endloop
  endfacet
  facet normal 0 1 0
    outer loop
      vertex -1.56793 14.9178 5
      vertex 1.56793 14.9178 0
      vertex -1.56793 14.9178 0
    endloop
  endfacet
  facet normal -0.406718 0.913554 0
    outer loop
      vertex -4.63525 14.2658 0
      vertex -7.5 12.9904 5
      vertex -4.63525 14.2658 5
    endloop
  endfacet
  facet normal -0.406718 0.913554 0
    outer loop
      vertex -7.5 12.9904 5
      vertex -4.63525 14.2658 0
      vertex -7.5 12.9904 0
    endloop
  endfacet
  facet normal -0.207918 -0.978146 0
    outer loop
      vertex -4.63525 -14.2658 0
      vertex -1.56793 -14.9178 5
      vertex -4.63525 -14.2658 5
    endloop
  endfacet
  facet normal -0.207918 -0.978146 -0
    outer loop
      vertex -1.56793 -14.9178 5
      vertex -4.63525 -14.2658 0
      vertex -1.56793 -14.9178 0
    endloop
  endfacet
  facet normal -0.207918 0.978146 0
    outer loop
      vertex -1.56793 14.9178 0
      vertex -4.63525 14.2658 5
      vertex -1.56793 14.9178 5
    endloop
  endfacet
  facet normal -0.207918 0.978146 0
    outer loop
      vertex -4.63525 14.2658 5
      vertex -1.56793 14.9178 0
      vertex -4.63525 14.2658 0
    endloop
  endfacet
  facet normal 0.207918 -0.978146 0
    outer loop
      vertex 1.56793 -14.9178 0
      vertex 4.63525 -14.2658 5
      vertex 1.56793 -14.9178 5
    endloop
  endfacet
  facet normal 0.207918 -0.978146 0
    outer loop
      vertex 4.63525 -14.2658 5
      vertex 1.56793 -14.9178 0
      vertex 4.63525 -14.2658 0
    endloop
  endfacet
  facet normal 0.743148 -0.669127 0
    outer loop
      vertex 10.037 -11.1472 5
      vertex 12.1353 -8.81678 0
      vertex 12.1353 -8.81678 5
    endloop
  endfacet
  facet normal 0.743148 -0.669127 0
    outer loop
      vertex 12.1353 -8.81678 0
      vertex 10.037 -11.1472 5
      vertex 10.037 -11.1472 0
    endloop
  endfacet
  facet normal 0.406718 -0.913554 0
    outer loop
      vertex 4.63525 -14.2658 0
      vertex 7.5 -12.9904 5
      vertex 4.63525 -14.2658 5
    endloop
  endfacet
  facet normal 0.406718 -0.913554 0
    outer loop
      vertex 7.5 -12.9904 5
      vertex 4.63525 -14.2658 0
      vertex 7.5 -12.9904 0
    endloop
  endfacet
  facet normal -0.587777 -0.809023 0
    outer loop
      vertex -10.037 -11.1472 0
      vertex -7.5 -12.9904 5
      vertex -10.037 -11.1472 5
    endloop
  endfacet
  facet normal -0.587777 -0.809023 -0
    outer loop
      vertex -7.5 -12.9904 5
      vertex -10.037 -11.1472 0
      vertex -7.5 -12.9904 0
    endloop
  endfacet
  facet normal 0.587777 0.809023 -0
    outer loop
      vertex 10.037 11.1472 0
      vertex 7.5 12.9904 5
      vertex 10.037 11.1472 5
    endloop
  endfacet
  facet normal 0.587777 0.809023 0
    outer loop
      vertex 7.5 12.9904 5
      vertex 10.037 11.1472 0
      vertex 7.5 12.9904 0
    endloop
  endfacet
  facet normal -0.994521 0.104533 0
    outer loop
      vertex -15 0 0
      vertex -14.6722 3.11868 5
      vertex -14.6722 3.11868 0
    endloop
  endfacet
  facet normal -0.994521 0.104533 0
    outer loop
      vertex -14.6722 3.11868 5
      vertex -15 0 0
      vertex -15 0 5
    endloop
  endfacet
  facet normal 0.207918 0.978146 -0
    outer loop
      vertex 4.63525 14.2658 0
      vertex 1.56793 14.9178 5
      vertex 4.63525 14.2658 5
    endloop
  endfacet
  facet normal 0.207918 0.978146 0
    outer loop
      vertex 1.56793 14.9178 5
      vertex 4.63525 14.2658 0
      vertex 1.56793 14.9178 0
    endloop
  endfacet
  facet normal -0.866029 -0.499993 0
    outer loop
      vertex -12.1353 -8.81678 0
      vertex -13.7032 -6.10105 5
      vertex -13.7032 -6.10105 0
    endloop
  endfacet
  facet normal -0.866029 -0.499993 0
    outer loop
      vertex -13.7032 -6.10105 5
      vertex -12.1353 -8.81678 0
      vertex -12.1353 -8.81678 5
    endloop
  endfacet
  facet normal 0.406718 0.913554 -0
    outer loop
      vertex 7.5 12.9904 0
      vertex 4.63525 14.2658 5
      vertex 7.5 12.9904 5
    endloop
  endfacet
  facet normal 0.406718 0.913554 0
    outer loop
      vertex 4.63525 14.2658 5
      vertex 7.5 12.9904 0
      vertex 4.63525 14.2658 0
    endloop
  endfacet
  facet normal 0 -1 0
    outer loop
      vertex -1.56793 -14.9178 0
      vertex 1.56793 -14.9178 5
      vertex -1.56793 -14.9178 5
    endloop
  endfacet
  facet normal 0 -1 -0
    outer loop
      vertex 1.56793 -14.9178 5
      vertex -1.56793 -14.9178 0
      vertex 1.56793 -14.9178 0
    endloop
  endfacet
  facet normal -0.994521 -0.104533 0
    outer loop
      vertex -14.6722 -3.11868 0
      vertex -15 0 5
      vertex -15 0 0
    endloop
  endfacet
  facet normal -0.994521 -0.104533 0
    outer loop
      vertex -15 0 5
      vertex -14.6722 -3.11868 0
      vertex -14.6722 -3.11868 5
    endloop
  endfacet
  facet normal -0.743148 -0.669127 0
    outer loop
      vertex -10.037 -11.1472 0
      vertex -12.1353 -8.81678 5
      vertex -12.1353 -8.81678 0
    endloop
  endfacet
  facet normal -0.743148 -0.669127 0
    outer loop
      vertex -12.1353 -8.81678 5
      vertex -10.037 -11.1472 0
      vertex -10.037 -11.1472 5
    endloop
  endfacet
  facet normal 0 0 -1
    outer loop
      vertex 5.5 0 0
      vertex 15 0 0
      vertex 14.6722 -3.11868 0
    endloop
  endfacet
  facet normal 0 0 -1
    outer loop
      vertex 5.16831 -1.88111 0
      vertex 14.6722 -3.11868 0
      vertex 13.7032 -6.10105 0
    endloop
  endfacet
  facet normal 0 0 -1
    outer loop
      vertex 15 0 0
      vertex 5.5 0 0
      vertex 14.6722 3.11868 0
    endloop
  endfacet
  facet normal 0 0 -1
    outer loop
      vertex 5.16831 -1.88111 0
      vertex 13.7032 -6.10105 0
      vertex 12.1353 -8.81678 0
    endloop
  endfacet
  facet normal 0 0 -1
    outer loop
      vertex 5.16831 1.88111 0
      vertex 14.6722 3.11868 0
      vertex 5.5 0 0
    endloop
  endfacet
  facet normal 0 0 -1
    outer loop
      vertex 4.21324 -3.53533 0
      vertex 12.1353 -8.81678 0
      vertex 10.037 -11.1472 0
    endloop
  endfacet
  facet normal -0 0 -1
    outer loop
      vertex 14.6722 3.11868 0
      vertex 5.16831 1.88111 0
      vertex 13.7032 6.10105 0
    endloop
  endfacet
  facet normal 0 0 -1
    outer loop
      vertex 2.75 -4.76314 0
      vertex 10.037 -11.1472 0
      vertex 7.5 -12.9904 0
    endloop
  endfacet
  facet normal -0 0 -1
    outer loop
      vertex 13.7032 6.10105 0
      vertex 5.16831 1.88111 0
      vertex 12.1353 8.81678 0
    endloop
  endfacet
  facet normal 0 0 -1
    outer loop
      vertex 4.21324 3.53533 0
      vertex 12.1353 8.81678 0
      vertex 5.16831 1.88111 0
    endloop
  endfacet
  facet normal 0 0 -1
    outer loop
      vertex 14.6722 -3.11868 0
      vertex 5.16831 -1.88111 0
      vertex 5.5 0 0
    endloop
  endfacet
  facet normal 0 0 -1
    outer loop
      vertex 2.75 -4.76314 0
      vertex 7.5 -12.9904 0
      vertex 4.63525 -14.2658 0
    endloop
  endfacet
  facet normal 0 0 -1
    outer loop
      vertex 12.1353 -8.81678 0
      vertex 4.21324 -3.53533 0
      vertex 5.16831 -1.88111 0
    endloop
  endfacet
  facet normal 0 0 -1
    outer loop
      vertex 10.037 -11.1472 0
      vertex 2.75 -4.76314 0
      vertex 4.21324 -3.53533 0
    endloop
  endfacet
  facet normal 0 0 -1
    outer loop
      vertex 0.955065 -5.41644 0
      vertex 4.63525 -14.2658 0
      vertex 1.56793 -14.9178 0
    endloop
  endfacet
  facet normal 0 0 -1
    outer loop
      vertex 4.63525 -14.2658 0
      vertex 0.955065 -5.41644 0
      vertex 2.75 -4.76314 0
    endloop
  endfacet
  facet normal 0 0 -1
    outer loop
      vertex 1.56793 -14.9178 0
      vertex -0.955065 -5.41644 0
      vertex 0.955065 -5.41644 0
    endloop
  endfacet
  facet normal 0 0 -1
    outer loop
      vertex -1.56793 -14.9178 0
      vertex -0.955065 -5.41644 0
      vertex 1.56793 -14.9178 0
    endloop
  endfacet
  facet normal 0 0 -1
    outer loop
      vertex -4.63525 -14.2658 0
      vertex -0.955065 -5.41644 0
      vertex -1.56793 -14.9178 0
    endloop
  endfacet
  facet normal -0 0 -1
    outer loop
      vertex -0.955065 -5.41644 0
      vertex -4.63525 -14.2658 0
      vertex -2.75 -4.76314 0
    endloop
  endfacet
  facet normal 0 0 -1
    outer loop
      vertex -7.5 -12.9904 0
      vertex -2.75 -4.76314 0
      vertex -4.63525 -14.2658 0
    endloop
  endfacet
  facet normal 0 0 -1
    outer loop
      vertex -10.037 -11.1472 0
      vertex -2.75 -4.76314 0
      vertex -7.5 -12.9904 0
    endloop
  endfacet
  facet normal -0 0 -1
    outer loop
      vertex -2.75 -4.76314 0
      vertex -10.037 -11.1472 0
      vertex -4.21324 -3.53533 0
    endloop
  endfacet
  facet normal 0 0 -1
    outer loop
      vertex -12.1353 -8.81678 0
      vertex -4.21324 -3.53533 0
      vertex -10.037 -11.1472 0
    endloop
  endfacet
  facet normal -0 0 -1
    outer loop
      vertex 12.1353 8.81678 0
      vertex 4.21324 3.53533 0
      vertex 10.037 11.1472 0
    endloop
  endfacet
  facet normal 0 0 -1
    outer loop
      vertex 2.75 4.76314 0
      vertex 10.037 11.1472 0
      vertex 4.21324 3.53533 0
    endloop
  endfacet
  facet normal -0 0 -1
    outer loop
      vertex 10.037 11.1472 0
      vertex 2.75 4.76314 0
      vertex 7.5 12.9904 0
    endloop
  endfacet
  facet normal -0 0 -1
    outer loop
      vertex 7.5 12.9904 0
      vertex 2.75 4.76314 0
      vertex 4.63525 14.2658 0
    endloop
  endfacet
  facet normal 0 0 -1
    outer loop
      vertex 0.955065 5.41644 0
      vertex 4.63525 14.2658 0
      vertex 2.75 4.76314 0
    endloop
  endfacet
  facet normal -0 0 -1
    outer loop
      vertex 4.63525 14.2658 0
      vertex 0.955065 5.41644 0
      vertex 1.56793 14.9178 0
    endloop
  endfacet
  facet normal 0 0 -1
    outer loop
      vertex -0.955065 5.41644 0
      vertex 1.56793 14.9178 0
      vertex 0.955065 5.41644 0
    endloop
  endfacet
  facet normal 0 0 -1
    outer loop
      vertex -0.955065 5.41644 0
      vertex -1.56793 14.9178 0
      vertex 1.56793 14.9178 0
    endloop
  endfacet
  facet normal 0 0 -1
    outer loop
      vertex -4.63525 14.2658 0
      vertex -0.955065 5.41644 0
      vertex -2.75 4.76314 0
    endloop
  endfacet
  facet normal 0 0 -1
    outer loop
      vertex -10.037 11.1472 0
      vertex -2.75 4.76314 0
      vertex -4.21324 3.53533 0
    endloop
  endfacet
  facet normal 0 0 -1
    outer loop
      vertex -0.955065 5.41644 0
      vertex -4.63525 14.2658 0
      vertex -1.56793 14.9178 0
    endloop
  endfacet
  facet normal 0 0 -1
    outer loop
      vertex -12.1353 8.81678 0
      vertex -4.21324 3.53533 0
      vertex -5.16831 1.88111 0
    endloop
  endfacet
  facet normal 0 0 -1
    outer loop
      vertex -14.6722 3.11868 0
      vertex -5.16831 1.88111 0
      vertex -5.5 0 0
    endloop
  endfacet
  facet normal -0 0 -1
    outer loop
      vertex -4.21324 -3.53533 0
      vertex -12.1353 -8.81678 0
      vertex -5.16831 -1.88111 0
    endloop
  endfacet
  facet normal 0 0 -1
    outer loop
      vertex -2.75 4.76314 0
      vertex -7.5 12.9904 0
      vertex -4.63525 14.2658 0
    endloop
  endfacet
  facet normal 0 0 -1
    outer loop
      vertex -13.7032 -6.10105 0
      vertex -5.16831 -1.88111 0
      vertex -12.1353 -8.81678 0
    endloop
  endfacet
  facet normal 0 0 -1
    outer loop
      vertex -2.75 4.76314 0
      vertex -10.037 11.1472 0
      vertex -7.5 12.9904 0
    endloop
  endfacet
  facet normal 0 0 -1
    outer loop
      vertex -14.6722 -3.11868 0
      vertex -5.16831 -1.88111 0
      vertex -13.7032 -6.10105 0
    endloop
  endfacet
  facet normal 0 0 -1
    outer loop
      vertex -4.21324 3.53533 0
      vertex -12.1353 8.81678 0
      vertex -10.037 11.1472 0
    endloop
  endfacet
  facet normal -0 0 -1
    outer loop
      vertex -5.16831 -1.88111 0
      vertex -14.6722 -3.11868 0
      vertex -5.5 0 0
    endloop
  endfacet
  facet normal 0 0 -1
    outer loop
      vertex -5.16831 1.88111 0
      vertex -13.7032 6.10105 0
      vertex -12.1353 8.81678 0
    endloop
  endfacet
  facet normal 0 0 -1
    outer loop
      vertex -15 0 0
      vertex -5.5 0 0
      vertex -14.6722 -3.11868 0
    endloop
  endfacet
  facet normal 0 0 -1
    outer loop
      vertex -5.16831 1.88111 0
      vertex -14.6722 3.11868 0
      vertex -13.7032 6.10105 0
    endloop
  endfacet
  facet normal 0 0 -1
    outer loop
      vertex -5.5 0 0
      vertex -15 0 0
      vertex -14.6722 3.11868 0
    endloop
  endfacet
  facet normal -0.406718 -0.913554 0
    outer loop
      vertex -7.5 -12.9904 0
      vertex -4.63525 -14.2658 5
      vertex -7.5 -12.9904 5
    endloop
  endfacet
  facet normal -0.406718 -0.913554 -0
    outer loop
      vertex -4.63525 -14.2658 5
      vertex -7.5 -12.9904 0
      vertex -4.63525 -14.2658 0
    endloop
  endfacet
  facet normal -0.743148 0.669127 0
    outer loop
      vertex -12.1353 8.81678 0
      vertex -10.037 11.1472 5
      vertex -10.037 11.1472 0
    endloop
  endfacet
  facet normal -0.743148 0.669127 0
    outer loop
      vertex -10.037 11.1472 5
      vertex -12.1353 8.81678 0
      vertex -12.1353 8.81678 5
    endloop
  endfacet
  facet normal 0.947656 0.319294 0
    outer loop
      vertex 8.78958 1.93473 25
      vertex 8.55226 2.63909 5
      vertex 8.55226 2.63909 25
    endloop
  endfacet
  facet normal 0.947656 0.319294 0
    outer loop
      vertex 8.55226 2.63909 5
      vertex 8.78958 1.93473 25
      vertex 8.78958 1.93473 5
    endloop
  endfacet
  facet normal 0.947651 0.319308 0
    outer loop
      vertex 8.27014 3.4764 25
      vertex 8.16818 3.779 5
      vertex 8.16818 3.779 25
    endloop
  endfacet
  facet normal 0.947651 0.319308 0
    outer loop
      vertex 8.16818 3.779 5
      vertex 8.27014 3.4764 25
      vertex 8.27014 3.4764 5
    endloop
  endfacet
  facet normal 0.994137 0.108123 0
    outer loop
      vertex 8.95205 0.440905 25
      vertex 8.78958 1.93473 5
      vertex 8.78958 1.93473 25
    endloop
  endfacet
  facet normal 0.994137 0.108123 0
    outer loop
      vertex 8.78958 1.93473 5
      vertex 8.95205 0.440905 25
      vertex 8.95205 0.440905 5
    endloop
  endfacet
  facet normal 0.947651 -0.319308 0
    outer loop
      vertex 8.16818 -3.779 25
      vertex 8.27014 -3.4764 5
      vertex 8.27014 -3.4764 25
    endloop
  endfacet
  facet normal 0.947651 -0.319308 0
    outer loop
      vertex 8.27014 -3.4764 5
      vertex 8.16818 -3.779 25
      vertex 8.16818 -3.779 5
    endloop
  endfacet
  facet normal 0.947656 -0.319294 0
    outer loop
      vertex 8.55226 -2.63909 25
      vertex 8.78958 -1.93473 5
      vertex 8.78958 -1.93473 25
    endloop
  endfacet
  facet normal 0.947656 -0.319294 0
    outer loop
      vertex 8.78958 -1.93473 5
      vertex 8.55226 -2.63909 25
      vertex 8.55226 -2.63909 5
    endloop
  endfacet
  facet normal 0.370139 0.928976 -0
    outer loop
      vertex 4.11487 7.99177 5
      vertex 2.40775 8.67195 25
      vertex 4.11487 7.99177 25
    endloop
  endfacet
  facet normal 0.370139 0.928976 0
    outer loop
      vertex 2.40775 8.67195 25
      vertex 4.11487 7.99177 5
      vertex 2.40775 8.67195 5
    endloop
  endfacet
  facet normal -0.97662 0.214972 0
    outer loop
      vertex -8.94724 0.973071 5
      vertex -8.57637 2.65794 25
      vertex -8.57637 2.65794 5
    endloop
  endfacet
  facet normal -0.97662 0.214972 0
    outer loop
      vertex -8.57637 2.65794 25
      vertex -8.94724 0.973071 5
      vertex -8.94724 0.973071 25
    endloop
  endfacet
  facet normal 0.726314 0.687363 0
    outer loop
      vertex 7.16484 5.44657 25
      vertex 7.16184 5.44974 5
      vertex 7.16184 5.44974 25
    endloop
  endfacet
  facet normal 0.726314 0.687363 0
    outer loop
      vertex 7.16184 5.44974 5
      vertex 7.16484 5.44657 25
      vertex 7.16484 5.44657 5
    endloop
  endfacet
  facet normal 0.725999 0.687696 0
    outer loop
      vertex 6.5592 6.08593 25
      vertex 5.82648 6.85946 5
      vertex 5.82648 6.85946 25
    endloop
  endfacet
  facet normal 0.725999 0.687696 0
    outer loop
      vertex 5.82648 6.85946 5
      vertex 6.5592 6.08593 25
      vertex 6.5592 6.08593 5
    endloop
  endfacet
  facet normal 0.161772 0.986828 -0
    outer loop
      vertex 2.40775 8.67195 5
      vertex 1.98855 8.74067 25
      vertex 2.40775 8.67195 25
    endloop
  endfacet
  facet normal 0.161772 0.986828 0
    outer loop
      vertex 1.98855 8.74067 25
      vertex 2.40775 8.67195 5
      vertex 1.98855 8.74067 5
    endloop
  endfacet
  facet normal 0.161775 0.986828 -0
    outer loop
      vertex 1.11561 8.88379 5
      vertex 0.487249 8.9868 25
      vertex 1.11561 8.88379 25
    endloop
  endfacet
  facet normal 0.161775 0.986828 0
    outer loop
      vertex 0.487249 8.9868 25
      vertex 1.11561 8.88379 5
      vertex 0.487249 8.9868 5
    endloop
  endfacet
  facet normal -0.647386 -0.762162 0
    outer loop
      vertex -6.53396 -6.18929 5
      vertex -5.05068 -7.4492 25
      vertex -6.53396 -6.18929 25
    endloop
  endfacet
  facet normal -0.647386 -0.762162 -0
    outer loop
      vertex -5.05068 -7.4492 25
      vertex -6.53396 -6.18929 5
      vertex -5.05068 -7.4492 5
    endloop
  endfacet
  facet normal -0.0541416 -0.998533 0
    outer loop
      vertex -1.12393 -8.89944 5
      vertex 0.487249 -8.9868 25
      vertex -1.12393 -8.89944 25
    endloop
  endfacet
  facet normal -0.0541416 -0.998533 -0
    outer loop
      vertex 0.487249 -8.9868 25
      vertex -1.12393 -8.89944 5
      vertex 0.487249 -8.9868 5
    endloop
  endfacet
  facet normal 0.856858 -0.515553 0
    outer loop
      vertex 7.16484 -5.44657 25
      vertex 8.16818 -3.779 5
      vertex 8.16818 -3.779 25
    endloop
  endfacet
  facet normal 0.856858 -0.515553 0
    outer loop
      vertex 8.16818 -3.779 5
      vertex 7.16484 -5.44657 25
      vertex 7.16484 -5.44657 5
    endloop
  endfacet
  facet normal -0.97662 -0.214972 0
    outer loop
      vertex -8.57637 -2.65794 5
      vertex -8.94724 -0.973071 25
      vertex -8.94724 -0.973071 5
    endloop
  endfacet
  facet normal -0.97662 -0.214972 0
    outer loop
      vertex -8.94724 -0.973071 25
      vertex -8.57637 -2.65794 5
      vertex -8.57637 -2.65794 25
    endloop
  endfacet
  facet normal -0.647386 0.762162 0
    outer loop
      vertex -5.05068 7.4492 5
      vertex -6.53396 6.18929 25
      vertex -5.05068 7.4492 25
    endloop
  endfacet
  facet normal -0.647386 0.762162 0
    outer loop
      vertex -6.53396 6.18929 25
      vertex -5.05068 7.4492 5
      vertex -6.53396 6.18929 5
    endloop
  endfacet
  facet normal 0.561186 -0.827689 0
    outer loop
      vertex 4.85488 -7.51822 5
      vertex 5.82648 -6.85946 25
      vertex 4.85488 -7.51822 25
    endloop
  endfacet
  facet normal 0.561186 -0.827689 0
    outer loop
      vertex 5.82648 -6.85946 25
      vertex 4.85488 -7.51822 5
      vertex 5.82648 -6.85946 5
    endloop
  endfacet
  facet normal -0.907575 -0.41989 0
    outer loop
      vertex -7.71171 -4.63998 5
      vertex -8.25036 -3.47571 25
      vertex -8.25036 -3.47571 5
    endloop
  endfacet
  facet normal -0.907575 -0.41989 0
    outer loop
      vertex -8.25036 -3.47571 25
      vertex -7.71171 -4.63998 5
      vertex -7.71171 -4.63998 25
    endloop
  endfacet
  facet normal -0.796101 -0.605164 0
    outer loop
      vertex -7.13221 -5.40232 5
      vertex -7.71171 -4.63998 25
      vertex -7.71171 -4.63998 5
    endloop
  endfacet
  facet normal -0.796101 -0.605164 0
    outer loop
      vertex -7.71171 -4.63998 25
      vertex -7.13221 -5.40232 5
      vertex -7.13221 -5.40232 25
    endloop
  endfacet
  facet normal -0.796079 -0.605192 0
    outer loop
      vertex -6.53396 -6.18929 5
      vertex -6.6 -6.10242 25
      vertex -6.6 -6.10242 5
    endloop
  endfacet
  facet normal -0.796079 -0.605192 0
    outer loop
      vertex -6.6 -6.10242 25
      vertex -6.53396 -6.18929 5
      vertex -6.53396 -6.18929 25
    endloop
  endfacet
  facet normal -0.267528 0.96355 0
    outer loop
      vertex -1.98958 8.7333 5
      vertex -3.33124 8.36079 25
      vertex -1.98958 8.7333 25
    endloop
  endfacet
  facet normal -0.267528 0.96355 0
    outer loop
      vertex -3.33124 8.36079 25
      vertex -1.98958 8.7333 5
      vertex -3.33124 8.36079 5
    endloop
  endfacet
  facet normal 0.994137 -0.108123 0
    outer loop
      vertex 8.78958 -1.93473 25
      vertex 8.95205 -0.440905 5
      vertex 8.95205 -0.440905 25
    endloop
  endfacet
  facet normal 0.994137 -0.108123 0
    outer loop
      vertex 8.95205 -0.440905 5
      vertex 8.78958 -1.93473 25
      vertex 8.78958 -1.93473 5
    endloop
  endfacet
  facet normal -0.468422 0.883505 0
    outer loop
      vertex -4.86152 7.54949 5
      vertex -5.05068 7.4492 25
      vertex -4.86152 7.54949 25
    endloop
  endfacet
  facet normal -0.468422 0.883505 0
    outer loop
      vertex -5.05068 7.4492 25
      vertex -4.86152 7.54949 5
      vertex -5.05068 7.4492 5
    endloop
  endfacet
  facet normal -0.468404 0.883515 0
    outer loop
      vertex -3.33124 8.36079 5
      vertex -4.08241 7.96255 25
      vertex -3.33124 8.36079 25
    endloop
  endfacet
  facet normal -0.468404 0.883515 0
    outer loop
      vertex -4.08241 7.96255 25
      vertex -3.33124 8.36079 5
      vertex -4.08241 7.96255 5
    endloop
  endfacet
  facet normal 0.561186 0.827689 -0
    outer loop
      vertex 5.82648 6.85946 5
      vertex 4.85488 7.51822 25
      vertex 5.82648 6.85946 25
    endloop
  endfacet
  facet normal 0.561186 0.827689 0
    outer loop
      vertex 4.85488 7.51822 25
      vertex 5.82648 6.85946 5
      vertex 4.85488 7.51822 5
    endloop
  endfacet
  facet normal 0.856858 0.515553 0
    outer loop
      vertex 8.16818 3.779 25
      vertex 7.16484 5.44657 5
      vertex 7.16484 5.44657 25
    endloop
  endfacet
  facet normal 0.856858 0.515553 0
    outer loop
      vertex 7.16484 5.44657 5
      vertex 8.16818 3.779 25
      vertex 8.16818 3.779 5
    endloop
  endfacet
  facet normal -0.267528 -0.96355 0
    outer loop
      vertex -3.33124 -8.36079 5
      vertex -1.98958 -8.7333 25
      vertex -3.33124 -8.36079 25
    endloop
  endfacet
  facet normal -0.267528 -0.96355 -0
    outer loop
      vertex -1.98958 -8.7333 25
      vertex -3.33124 -8.36079 5
      vertex -1.98958 -8.7333 5
    endloop
  endfacet
  facet normal -1 0 0
    outer loop
      vertex -8.94724 0.442467 5
      vertex -8.94724 0.973071 25
      vertex -8.94724 0.973071 5
    endloop
  endfacet
  facet normal -1 -0 0
    outer loop
      vertex -8.94724 0.973071 25
      vertex -8.94724 0.442467 5
      vertex -8.94724 0.442467 25
    endloop
  endfacet
  facet normal -1 0 0
    outer loop
      vertex -8.94724 -0.973071 5
      vertex -8.94724 -0.442467 25
      vertex -8.94724 -0.442467 5
    endloop
  endfacet
  facet normal -1 -0 0
    outer loop
      vertex -8.94724 -0.442467 25
      vertex -8.94724 -0.973071 5
      vertex -8.94724 -0.973071 25
    endloop
  endfacet
  facet normal -0.468404 -0.883515 0
    outer loop
      vertex -4.08241 -7.96255 5
      vertex -3.33124 -8.36079 25
      vertex -4.08241 -7.96255 25
    endloop
  endfacet
  facet normal -0.468404 -0.883515 -0
    outer loop
      vertex -3.33124 -8.36079 25
      vertex -4.08241 -7.96255 5
      vertex -3.33124 -8.36079 5
    endloop
  endfacet
  facet normal -0.468422 -0.883505 0
    outer loop
      vertex -5.05068 -7.4492 5
      vertex -4.86152 -7.54949 25
      vertex -5.05068 -7.4492 25
    endloop
  endfacet
  facet normal -0.468422 -0.883505 -0
    outer loop
      vertex -4.86152 -7.54949 25
      vertex -5.05068 -7.4492 5
      vertex -4.86152 -7.54949 5
    endloop
  endfacet
  facet normal 0.161772 -0.986828 0
    outer loop
      vertex 1.98855 -8.74067 5
      vertex 2.40775 -8.67195 25
      vertex 1.98855 -8.74067 25
    endloop
  endfacet
  facet normal 0.161772 -0.986828 0
    outer loop
      vertex 2.40775 -8.67195 25
      vertex 1.98855 -8.74067 5
      vertex 2.40775 -8.67195 5
    endloop
  endfacet
  facet normal 0.161775 -0.986828 0
    outer loop
      vertex 0.487249 -8.9868 5
      vertex 1.11561 -8.88379 25
      vertex 0.487249 -8.9868 25
    endloop
  endfacet
  facet normal 0.161775 -0.986828 0
    outer loop
      vertex 1.11561 -8.88379 25
      vertex 0.487249 -8.9868 5
      vertex 1.11561 -8.88379 5
    endloop
  endfacet
  facet normal 0.725999 -0.687696 0
    outer loop
      vertex 5.82648 -6.85946 25
      vertex 6.5592 -6.08593 5
      vertex 6.5592 -6.08593 25
    endloop
  endfacet
  facet normal 0.725999 -0.687696 0
    outer loop
      vertex 6.5592 -6.08593 5
      vertex 5.82648 -6.85946 25
      vertex 5.82648 -6.85946 5
    endloop
  endfacet
  facet normal 0.726314 -0.687363 0
    outer loop
      vertex 7.16184 -5.44974 25
      vertex 7.16484 -5.44657 5
      vertex 7.16484 -5.44657 25
    endloop
  endfacet
  facet normal 0.726314 -0.687363 0
    outer loop
      vertex 7.16484 -5.44657 5
      vertex 7.16184 -5.44974 25
      vertex 7.16184 -5.44974 5
    endloop
  endfacet
  facet normal 0.370139 -0.928976 0
    outer loop
      vertex 2.40775 -8.67195 5
      vertex 4.11487 -7.99177 25
      vertex 2.40775 -8.67195 25
    endloop
  endfacet
  facet normal 0.370139 -0.928976 0
    outer loop
      vertex 4.11487 -7.99177 25
      vertex 2.40775 -8.67195 5
      vertex 4.11487 -7.99177 5
    endloop
  endfacet
  facet normal -0.907575 0.41989 0
    outer loop
      vertex -8.25036 3.47571 5
      vertex -7.71171 4.63998 25
      vertex -7.71171 4.63998 5
    endloop
  endfacet
  facet normal -0.907575 0.41989 0
    outer loop
      vertex -7.71171 4.63998 25
      vertex -8.25036 3.47571 5
      vertex -8.25036 3.47571 25
    endloop
  endfacet
  facet normal -0.0541416 0.998533 0
    outer loop
      vertex 0.487249 8.9868 5
      vertex -1.12393 8.89944 25
      vertex 0.487249 8.9868 25
    endloop
  endfacet
  facet normal -0.0541416 0.998533 0
    outer loop
      vertex -1.12393 8.89944 25
      vertex 0.487249 8.9868 5
      vertex -1.12393 8.89944 5
    endloop
  endfacet
  facet normal -0.796101 0.605164 0
    outer loop
      vertex -7.71171 4.63998 5
      vertex -7.13221 5.40232 25
      vertex -7.13221 5.40232 5
    endloop
  endfacet
  facet normal -0.796101 0.605164 0
    outer loop
      vertex -7.13221 5.40232 25
      vertex -7.71171 4.63998 5
      vertex -7.71171 4.63998 25
    endloop
  endfacet
  facet normal -0.796079 0.605192 0
    outer loop
      vertex -6.6 6.10242 5
      vertex -6.53396 6.18929 25
      vertex -6.53396 6.18929 5
    endloop
  endfacet
  facet normal -0.796079 0.605192 0
    outer loop
      vertex -6.53396 6.18929 25
      vertex -6.6 6.10242 5
      vertex -6.6 6.10242 25
    endloop
  endfacet
  facet normal -0.984808 -0.173648 0
    outer loop
      vertex 5.5 0 0
      vertex 5.16831 1.88111 25
      vertex 5.16831 1.88111 0
    endloop
  endfacet
  facet normal -0.984808 -0.173648 0
    outer loop
      vertex 5.16831 1.88111 25
      vertex 5.5 0 0
      vertex 5.5 0 25
    endloop
  endfacet
  facet normal 0.342019 -0.939693 0
    outer loop
      vertex -2.75 4.76314 0
      vertex -0.955065 5.41644 25
      vertex -2.75 4.76314 25
    endloop
  endfacet
  facet normal 0.342019 -0.939693 0
    outer loop
      vertex -0.955065 5.41644 25
      vertex -2.75 4.76314 0
      vertex -0.955065 5.41644 0
    endloop
  endfacet
  facet normal 0.866024 -0.500002 0
    outer loop
      vertex -5.16831 1.88111 25
      vertex -4.21324 3.53533 0
      vertex -4.21324 3.53533 25
    endloop
  endfacet
  facet normal 0.866024 -0.500002 0
    outer loop
      vertex -4.21324 3.53533 0
      vertex -5.16831 1.88111 25
      vertex -5.16831 1.88111 0
    endloop
  endfacet
  facet normal 0.342019 0.939693 -0
    outer loop
      vertex -0.955065 -5.41644 0
      vertex -2.75 -4.76314 25
      vertex -0.955065 -5.41644 25
    endloop
  endfacet
  facet normal 0.342019 0.939693 0
    outer loop
      vertex -2.75 -4.76314 25
      vertex -0.955065 -5.41644 0
      vertex -2.75 -4.76314 0
    endloop
  endfacet
  facet normal 0 -1 0
    outer loop
      vertex -0.955065 5.41644 0
      vertex 0.955065 5.41644 25
      vertex -0.955065 5.41644 25
    endloop
  endfacet
  facet normal 0 -1 -0
    outer loop
      vertex 0.955065 5.41644 25
      vertex -0.955065 5.41644 0
      vertex 0.955065 5.41644 0
    endloop
  endfacet
  facet normal -0.866024 -0.500002 0
    outer loop
      vertex 5.16831 1.88111 0
      vertex 4.21324 3.53533 25
      vertex 4.21324 3.53533 0
    endloop
  endfacet
  facet normal -0.866024 -0.500002 0
    outer loop
      vertex 4.21324 3.53533 25
      vertex 5.16831 1.88111 0
      vertex 5.16831 1.88111 25
    endloop
  endfacet
  facet normal -0.642789 -0.766043 0
    outer loop
      vertex 2.75 4.76314 0
      vertex 4.21324 3.53533 25
      vertex 2.75 4.76314 25
    endloop
  endfacet
  facet normal -0.642789 -0.766043 -0
    outer loop
      vertex 4.21324 3.53533 25
      vertex 2.75 4.76314 0
      vertex 4.21324 3.53533 0
    endloop
  endfacet
  facet normal -0.342019 -0.939693 0
    outer loop
      vertex 0.955065 5.41644 0
      vertex 2.75 4.76314 25
      vertex 0.955065 5.41644 25
    endloop
  endfacet
  facet normal -0.342019 -0.939693 -0
    outer loop
      vertex 2.75 4.76314 25
      vertex 0.955065 5.41644 0
      vertex 2.75 4.76314 0
    endloop
  endfacet
  facet normal 0.984808 -0.173648 0
    outer loop
      vertex -5.5 0 25
      vertex -5.16831 1.88111 0
      vertex -5.16831 1.88111 25
    endloop
  endfacet
  facet normal 0.984808 -0.173648 0
    outer loop
      vertex -5.16831 1.88111 0
      vertex -5.5 0 25
      vertex -5.5 0 0
    endloop
  endfacet
  facet normal -0.342019 0.939693 0
    outer loop
      vertex 2.75 -4.76314 0
      vertex 0.955065 -5.41644 25
      vertex 2.75 -4.76314 25
    endloop
  endfacet
  facet normal -0.342019 0.939693 0
    outer loop
      vertex 0.955065 -5.41644 25
      vertex 2.75 -4.76314 0
      vertex 0.955065 -5.41644 0
    endloop
  endfacet
  facet normal 0.866024 0.500002 0
    outer loop
      vertex -4.21324 -3.53533 25
      vertex -5.16831 -1.88111 0
      vertex -5.16831 -1.88111 25
    endloop
  endfacet
  facet normal 0.866024 0.500002 0
    outer loop
      vertex -5.16831 -1.88111 0
      vertex -4.21324 -3.53533 25
      vertex -4.21324 -3.53533 0
    endloop
  endfacet
  facet normal 0.642789 0.766043 -0
    outer loop
      vertex -2.75 -4.76314 0
      vertex -4.21324 -3.53533 25
      vertex -2.75 -4.76314 25
    endloop
  endfacet
  facet normal 0.642789 0.766043 0
    outer loop
      vertex -4.21324 -3.53533 25
      vertex -2.75 -4.76314 0
      vertex -4.21324 -3.53533 0
    endloop
  endfacet
  facet normal -0.866024 0.500002 0
    outer loop
      vertex 4.21324 -3.53533 0
      vertex 5.16831 -1.88111 25
      vertex 5.16831 -1.88111 0
    endloop
  endfacet
  facet normal -0.866024 0.500002 0
    outer loop
      vertex 5.16831 -1.88111 25
      vertex 4.21324 -3.53533 0
      vertex 4.21324 -3.53533 25
    endloop
  endfacet
  facet normal -0.984808 0.173648 0
    outer loop
      vertex 5.16831 -1.88111 0
      vertex 5.5 0 25
      vertex 5.5 0 0
    endloop
  endfacet
  facet normal -0.984808 0.173648 0
    outer loop
      vertex 5.5 0 25
      vertex 5.16831 -1.88111 0
      vertex 5.16831 -1.88111 25
    endloop
  endfacet
  facet normal 0 1 -0
    outer loop
      vertex 0.955065 -5.41644 0
      vertex -0.955065 -5.41644 25
      vertex 0.955065 -5.41644 25
    endloop
  endfacet
  facet normal 0 1 0
    outer loop
      vertex -0.955065 -5.41644 25
      vertex 0.955065 -5.41644 0
      vertex -0.955065 -5.41644 0
    endloop
  endfacet
  facet normal 0.642789 -0.766043 0
    outer loop
      vertex -4.21324 3.53533 0
      vertex -2.75 4.76314 25
      vertex -4.21324 3.53533 25
    endloop
  endfacet
  facet normal 0.642789 -0.766043 0
    outer loop
      vertex -2.75 4.76314 25
      vertex -4.21324 3.53533 0
      vertex -2.75 4.76314 0
    endloop
  endfacet
  facet normal -0.642789 0.766043 0
    outer loop
      vertex 4.21324 -3.53533 0
      vertex 2.75 -4.76314 25
      vertex 4.21324 -3.53533 25
    endloop
  endfacet
  facet normal -0.642789 0.766043 0
    outer loop
      vertex 2.75 -4.76314 25
      vertex 4.21324 -3.53533 0
      vertex 2.75 -4.76314 0
    endloop
  endfacet
  facet normal 0.984808 0.173648 0
    outer loop
      vertex -5.16831 -1.88111 25
      vertex -5.5 0 0
      vertex -5.5 0 25
    endloop
  endfacet
  facet normal 0.984808 0.173648 0
    outer loop
      vertex -5.5 0 0
      vertex -5.16831 -1.88111 25
      vertex -5.16831 -1.88111 0
    endloop
  endfacet
endsolid OpenSCAD_Model
