solid OpenSCAD_Model
  facet normal 1 -0 0
    outer loop
      vertex 10 11 10
      vertex 10 21 0
      vertex 10 21 10
    endloop
  endfacet
  facet normal 1 0 0
    outer loop
      vertex 10 21 0
      vertex 10 11 10
      vertex 10 11 0
    endloop
  endfacet
  facet normal -0 0 1
    outer loop
      vertex 0 21 10
      vertex 10 11 10
      vertex 10 21 10
    endloop
  endfacet
  facet normal 0 0 1
    outer loop
      vertex 10 11 10
      vertex 0 21 10
      vertex 0 11 10
    endloop
  endfacet
  facet normal 0 0 -1
    outer loop
      vertex 0 11 0
      vertex 10 21 0
      vertex 10 11 0
    endloop
  endfacet
  facet normal -0 0 -1
    outer loop
      vertex 10 21 0
      vertex 0 11 0
      vertex 0 21 0
    endloop
  endfacet
  facet normal -1 0 0
    outer loop
      vertex 0 11 0
      vertex 0 21 10
      vertex 0 21 0
    endloop
  endfacet
  facet normal -1 -0 0
    outer loop
      vertex 0 21 10
      vertex 0 11 0
      vertex 0 11 10
    endloop
  endfacet
  facet normal 0 1 -0
    outer loop
      vertex 10 21 0
      vertex 0 21 10
      vertex 10 21 10
    endloop
  endfacet
  facet normal 0 1 0
    outer loop
      vertex 0 21 10
      vertex 10 21 0
      vertex 0 21 0
    endloop
  endfacet
  facet normal 0 -1 0
    outer loop
      vertex 0 11 0
      vertex 10 11 10
      vertex 0 11 10
    endloop
  endfacet
  facet normal 0 -1 -0
    outer loop
      vertex 10 11 10
      vertex 0 11 0
      vertex 10 11 0
    endloop
  endfacet
  facet normal 1 -0 0
    outer loop
      vertex 21 11 10
      vertex 21 21 0
      vertex 21 21 10
    endloop
  endfacet
  facet normal 1 0 0
    outer loop
      vertex 21 21 0
      vertex 21 11 10
      vertex 21 11 0
    endloop
  endfacet
  facet normal -0 0 1
    outer loop
      vertex 11 21 10
      vertex 21 11 10
      vertex 21 21 10
    endloop
  endfacet
  facet normal 0 0 1
    outer loop
      vertex 21 11 10
      vertex 11 21 10
      vertex 11 11 10
    endloop
  endfacet
  facet normal 0 0 -1
    outer loop
      vertex 11 11 0
      vertex 21 21 0
      vertex 21 11 0
    endloop
  endfacet
  facet normal -0 0 -1
    outer loop
      vertex 21 21 0
      vertex 11 11 0
      vertex 11 21 0
    endloop
  endfacet
  facet normal -1 0 0
    outer loop
      vertex 11 11 0
      vertex 11 21 10
      vertex 11 21 0
    endloop
  endfacet
  facet normal -1 -0 0
    outer loop
      vertex 11 21 10
      vertex 11 11 0
      vertex 11 11 10
    endloop
  endfacet
  facet normal 0 1 -0
    outer loop
      vertex 21 21 0
      vertex 11 21 10
      vertex 21 21 10
    endloop
  endfacet
  facet normal 0 1 0
    outer loop
      vertex 11 21 10
      vertex 21 21 0
      vertex 11 21 0
    endloop
  endfacet
  facet normal 0 -1 0
    outer loop
      vertex 11 11 0
      vertex 21 11 10
      vertex 11 11 10
    endloop
  endfacet
  facet normal 0 -1 -0
    outer loop
      vertex 21 11 10
      vertex 11 11 0
      vertex 21 11 0
    endloop
  endfacet
  facet normal 1 -0 0
    outer loop
      vertex 32 11 10
      vertex 32 21 0
      vertex 32 21 10
    endloop
  endfacet
  facet normal 1 0 0
    outer loop
      vertex 32 21 0
      vertex 32 11 10
      vertex 32 11 0
    endloop
  endfacet
  facet normal -0 0 1
    outer loop
      vertex 22 21 10
      vertex 32 11 10
      vertex 32 21 10
    endloop
  endfacet
  facet normal 0 0 1
    outer loop
      vertex 32 11 10
      vertex 22 21 10
      vertex 22 11 10
    endloop
  endfacet
  facet normal 0 0 -1
    outer loop
      vertex 22 11 0
      vertex 32 21 0
      vertex 32 11 0
    endloop
  endfacet
  facet normal -0 0 -1
    outer loop
      vertex 32 21 0
      vertex 22 11 0
      vertex 22 21 0
    endloop
  endfacet
  facet normal -1 0 0
    outer loop
      vertex 22 11 0
      vertex 22 21 10
      vertex 22 21 0
    endloop
  endfacet
  facet normal -1 -0 0
    outer loop
      vertex 22 21 10
      vertex 22 11 0
      vertex 22 11 10
    endloop
  endfacet
  facet normal 0 1 -0
    outer loop
      vertex 32 21 0
      vertex 22 21 10
      vertex 32 21 10
    endloop
  endfacet
  facet normal 0 1 0
    outer loop
      vertex 22 21 10
      vertex 32 21 0
      vertex 22 21 0
    endloop
  endfacet
  facet normal 0 -1 0
    outer loop
      vertex 22 11 0
      vertex 32 11 10
      vertex 22 11 10
    endloop
  endfacet
  facet normal 0 -1 -0
    outer loop
      vertex 32 11 10
      vertex 22 11 0
      vertex 32 11 0
    endloop
  endfacet
  facet normal 1 -0 0
    outer loop
      vertex 43 11 10
      vertex 43 21 0
      vertex 43 21 10
    endloop
  endfacet
  facet normal 1 0 0
    outer loop
      vertex 43 21 0
      vertex 43 11 10
      vertex 43 11 0
    endloop
  endfacet
  facet normal -0 0 1
    outer loop
      vertex 33 21 10
      vertex 43 11 10
      vertex 43 21 10
    endloop
  endfacet
  facet normal 0 0 1
    outer loop
      vertex 43 11 10
      vertex 33 21 10
      vertex 33 11 10
    endloop
  endfacet
  facet normal 0 0 -1
    outer loop
      vertex 33 11 0
      vertex 43 21 0
      vertex 43 11 0
    endloop
  endfacet
  facet normal -0 0 -1
    outer loop
      vertex 43 21 0
      vertex 33 11 0
      vertex 33 21 0
    endloop
  endfacet
  facet normal -1 0 0
    outer loop
      vertex 33 11 0
      vertex 33 21 10
      vertex 33 21 0
    endloop
  endfacet
  facet normal -1 -0 0
    outer loop
      vertex 33 21 10
      vertex 33 11 0
      vertex 33 11 10
    endloop
  endfacet
  facet normal 0 1 -0
    outer loop
      vertex 43 21 0
      vertex 33 21 10
      vertex 43 21 10
    endloop
  endfacet
  facet normal 0 1 0
    outer loop
      vertex 33 21 10
      vertex 43 21 0
      vertex 33 21 0
    endloop
  endfacet
  facet normal 0 -1 0
    outer loop
      vertex 33 11 0
      vertex 43 11 10
      vertex 33 11 10
    endloop
  endfacet
  facet normal 0 -1 -0
    outer loop
      vertex 43 11 10
      vertex 33 11 0
      vertex 43 11 0
    endloop
  endfacet
  facet normal 1 -0 0
    outer loop
      vertex 54 11 10
      vertex 54 21 0
      vertex 54 21 10
    endloop
  endfacet
  facet normal 1 0 0
    outer loop
      vertex 54 21 0
      vertex 54 11 10
      vertex 54 11 0
    endloop
  endfacet
  facet normal -0 0 1
    outer loop
      vertex 44 21 10
      vertex 54 11 10
      vertex 54 21 10
    endloop
  endfacet
  facet normal 0 0 1
    outer loop
      vertex 54 11 10
      vertex 44 21 10
      vertex 44 11 10
    endloop
  endfacet
  facet normal 0 0 -1
    outer loop
      vertex 44 11 0
      vertex 54 21 0
      vertex 54 11 0
    endloop
  endfacet
  facet normal -0 0 -1
    outer loop
      vertex 54 21 0
      vertex 44 11 0
      vertex 44 21 0
    endloop
  endfacet
  facet normal -1 0 0
    outer loop
      vertex 44 11 0
      vertex 44 21 10
      vertex 44 21 0
    endloop
  endfacet
  facet normal -1 -0 0
    outer loop
      vertex 44 21 10
      vertex 44 11 0
      vertex 44 11 10
    endloop
  endfacet
  facet normal 0 1 -0
    outer loop
      vertex 54 21 0
      vertex 44 21 10
      vertex 54 21 10
    endloop
  endfacet
  facet normal 0 1 0
    outer loop
      vertex 44 21 10
      vertex 54 21 0
      vertex 44 21 0
    endloop
  endfacet
  facet normal 0 -1 0
    outer loop
      vertex 44 11 0
      vertex 54 11 10
      vertex 44 11 10
    endloop
  endfacet
  facet normal 0 -1 -0
    outer loop
      vertex 54 11 10
      vertex 44 11 0
      vertex 54 11 0
    endloop
  endfacet
  facet normal 1 -0 0
    outer loop
      vertex 65 11 10
      vertex 65 21 0
      vertex 65 21 10
    endloop
  endfacet
  facet normal 1 0 0
    outer loop
      vertex 65 21 0
      vertex 65 11 10
      vertex 65 11 0
    endloop
  endfacet
  facet normal -0 0 1
    outer loop
      vertex 55 21 10
      vertex 65 11 10
      vertex 65 21 10
    endloop
  endfacet
  facet normal 0 0 1
    outer loop
      vertex 65 11 10
      vertex 55 21 10
      vertex 55 11 10
    endloop
  endfacet
  facet normal 0 0 -1
    outer loop
      vertex 55 11 0
      vertex 65 21 0
      vertex 65 11 0
    endloop
  endfacet
  facet normal -0 0 -1
    outer loop
      vertex 65 21 0
      vertex 55 11 0
      vertex 55 21 0
    endloop
  endfacet
  facet normal -1 0 0
    outer loop
      vertex 55 11 0
      vertex 55 21 10
      vertex 55 21 0
    endloop
  endfacet
  facet normal -1 -0 0
    outer loop
      vertex 55 21 10
      vertex 55 11 0
      vertex 55 11 10
    endloop
  endfacet
  facet normal 0 1 -0
    outer loop
      vertex 65 21 0
      vertex 55 21 10
      vertex 65 21 10
    endloop
  endfacet
  facet normal 0 1 0
    outer loop
      vertex 55 21 10
      vertex 65 21 0
      vertex 55 21 0
    endloop
  endfacet
  facet normal 0 -1 0
    outer loop
      vertex 55 11 0
      vertex 65 11 10
      vertex 55 11 10
    endloop
  endfacet
  facet normal 0 -1 -0
    outer loop
      vertex 65 11 10
      vertex 55 11 0
      vertex 65 11 0
    endloop
  endfacet
  facet normal 1 -0 0
    outer loop
      vertex 76 11 10
      vertex 76 21 0
      vertex 76 21 10
    endloop
  endfacet
  facet normal 1 0 0
    outer loop
      vertex 76 21 0
      vertex 76 11 10
      vertex 76 11 0
    endloop
  endfacet
  facet normal -0 0 1
    outer loop
      vertex 66 21 10
      vertex 76 11 10
      vertex 76 21 10
    endloop
  endfacet
  facet normal 0 0 1
    outer loop
      vertex 76 11 10
      vertex 66 21 10
      vertex 66 11 10
    endloop
  endfacet
  facet normal 0 0 -1
    outer loop
      vertex 66 11 0
      vertex 76 21 0
      vertex 76 11 0
    endloop
  endfacet
  facet normal -0 0 -1
    outer loop
      vertex 76 21 0
      vertex 66 11 0
      vertex 66 21 0
    endloop
  endfacet
  facet normal -1 0 0
    outer loop
      vertex 66 11 0
      vertex 66 21 10
      vertex 66 21 0
    endloop
  endfacet
  facet normal -1 -0 0
    outer loop
      vertex 66 21 10
      vertex 66 11 0
      vertex 66 11 10
    endloop
  endfacet
  facet normal 0 1 -0
    outer loop
      vertex 76 21 0
      vertex 66 21 10
      vertex 76 21 10
    endloop
  endfacet
  facet normal 0 1 0
    outer loop
      vertex 66 21 10
      vertex 76 21 0
      vertex 66 21 0
    endloop
  endfacet
  facet normal 0 -1 0
    outer loop
      vertex 66 11 0
      vertex 76 11 10
      vertex 66 11 10
    endloop
  endfacet
  facet normal 0 -1 -0
    outer loop
      vertex 76 11 10
      vertex 66 11 0
      vertex 76 11 0
    endloop
  endfacet
  facet normal 1 -0 0
    outer loop
      vertex 87 11 10
      vertex 87 21 0
      vertex 87 21 10
    endloop
  endfacet
  facet normal 1 0 0
    outer loop
      vertex 87 21 0
      vertex 87 11 10
      vertex 87 11 0
    endloop
  endfacet
  facet normal -0 0 1
    outer loop
      vertex 77 21 10
      vertex 87 11 10
      vertex 87 21 10
    endloop
  endfacet
  facet normal 0 0 1
    outer loop
      vertex 87 11 10
      vertex 77 21 10
      vertex 77 11 10
    endloop
  endfacet
  facet normal 0 0 -1
    outer loop
      vertex 77 11 0
      vertex 87 21 0
      vertex 87 11 0
    endloop
  endfacet
  facet normal -0 0 -1
    outer loop
      vertex 87 21 0
      vertex 77 11 0
      vertex 77 21 0
    endloop
  endfacet
  facet normal -1 0 0
    outer loop
      vertex 77 11 0
      vertex 77 21 10
      vertex 77 21 0
    endloop
  endfacet
  facet normal -1 -0 0
    outer loop
      vertex 77 21 10
      vertex 77 11 0
      vertex 77 11 10
    endloop
  endfacet
  facet normal 0 1 -0
    outer loop
      vertex 87 21 0
      vertex 77 21 10
      vertex 87 21 10
    endloop
  endfacet
  facet normal 0 1 0
    outer loop
      vertex 77 21 10
      vertex 87 21 0
      vertex 77 21 0
    endloop
  endfacet
  facet normal 0 -1 0
    outer loop
      vertex 77 11 0
      vertex 87 11 10
      vertex 77 11 10
    endloop
  endfacet
  facet normal 0 -1 -0
    outer loop
      vertex 87 11 10
      vertex 77 11 0
      vertex 87 11 0
    endloop
  endfacet
  facet normal 1 0 0
    outer loop
      vertex 21 5 20
      vertex 21 0 20
      vertex 21 5 10
    endloop
  endfacet
  facet normal 1 -0 0
    outer loop
      vertex 21 5 10
      vertex 21 10 0
      vertex 21 10 10
    endloop
  endfacet
  facet normal 1 0 0
    outer loop
      vertex 21 0 0
      vertex 21 5 10
      vertex 21 0 20
    endloop
  endfacet
  facet normal 1 0 0
    outer loop
      vertex 21 5 10
      vertex 21 0 0
      vertex 21 10 0
    endloop
  endfacet
  facet normal -0 0 1
    outer loop
      vertex 11 5 20
      vertex 21 0 20
      vertex 21 5 20
    endloop
  endfacet
  facet normal 0 0 1
    outer loop
      vertex 21 0 20
      vertex 11 5 20
      vertex 11 0 20
    endloop
  endfacet
  facet normal 0 0 -1
    outer loop
      vertex 11 0 0
      vertex 21 10 0
      vertex 21 0 0
    endloop
  endfacet
  facet normal -0 0 -1
    outer loop
      vertex 21 10 0
      vertex 11 0 0
      vertex 11 10 0
    endloop
  endfacet
  facet normal -1 0 0
    outer loop
      vertex 11 10 0
      vertex 11 5 10
      vertex 11 10 10
    endloop
  endfacet
  facet normal -1 0 0
    outer loop
      vertex 11 0 0
      vertex 11 5 10
      vertex 11 10 0
    endloop
  endfacet
  facet normal -1 0 0
    outer loop
      vertex 11 0 20
      vertex 11 5 10
      vertex 11 0 0
    endloop
  endfacet
  facet normal -1 0 0
    outer loop
      vertex 11 5 10
      vertex 11 0 20
      vertex 11 5 20
    endloop
  endfacet
  facet normal 0 1 -0
    outer loop
      vertex 21 10 0
      vertex 11 10 10
      vertex 21 10 10
    endloop
  endfacet
  facet normal 0 1 0
    outer loop
      vertex 11 10 10
      vertex 21 10 0
      vertex 11 10 0
    endloop
  endfacet
  facet normal 0 -1 0
    outer loop
      vertex 11 0 0
      vertex 21 0 20
      vertex 11 0 20
    endloop
  endfacet
  facet normal 0 -1 -0
    outer loop
      vertex 21 0 20
      vertex 11 0 0
      vertex 21 0 0
    endloop
  endfacet
  facet normal -0 0 1
    outer loop
      vertex 11 10 10
      vertex 21 5 10
      vertex 21 10 10
    endloop
  endfacet
  facet normal 0 0 1
    outer loop
      vertex 21 5 10
      vertex 11 10 10
      vertex 11 5 10
    endloop
  endfacet
  facet normal 0 1 -0
    outer loop
      vertex 21 5 10
      vertex 11 5 20
      vertex 21 5 20
    endloop
  endfacet
  facet normal 0 1 0
    outer loop
      vertex 11 5 20
      vertex 21 5 10
      vertex 11 5 10
    endloop
  endfacet
  facet normal 1 0 0
    outer loop
      vertex 32 0 0
      vertex 32 10 10
      vertex 32 0 20
    endloop
  endfacet
  facet normal 1 0 0
    outer loop
      vertex 32 10 10
      vertex 32 0 0
      vertex 32 10 0
    endloop
  endfacet
  facet normal 0 0 -1
    outer loop
      vertex 22 0 0
      vertex 32 10 0
      vertex 32 0 0
    endloop
  endfacet
  facet normal -0 0 -1
    outer loop
      vertex 32 10 0
      vertex 22 0 0
      vertex 22 10 0
    endloop
  endfacet
  facet normal -1 0 0
    outer loop
      vertex 22 0 0
      vertex 22 10 10
      vertex 22 10 0
    endloop
  endfacet
  facet normal -1 -0 0
    outer loop
      vertex 22 10 10
      vertex 22 0 0
      vertex 22 0 20
    endloop
  endfacet
  facet normal 0 1 -0
    outer loop
      vertex 32 10 0
      vertex 22 10 10
      vertex 32 10 10
    endloop
  endfacet
  facet normal 0 1 0
    outer loop
      vertex 22 10 10
      vertex 32 10 0
      vertex 22 10 0
    endloop
  endfacet
  facet normal 0 -1 0
    outer loop
      vertex 22 0 0
      vertex 32 0 20
      vertex 22 0 20
    endloop
  endfacet
  facet normal 0 -1 -0
    outer loop
      vertex 32 0 20
      vertex 22 0 0
      vertex 32 0 0
    endloop
  endfacet
  facet normal 0 0.707107 0.707107
    outer loop
      vertex 32 10 10
      vertex 22 0 20
      vertex 32 0 20
    endloop
  endfacet
  facet normal 0 0.707107 0.707107
    outer loop
      vertex 22 0 20
      vertex 32 10 10
      vertex 22 10 10
    endloop
  endfacet
  facet normal 1 -0 0
    outer loop
      vertex 43 5 25
      vertex 43 10 0
      vertex 43 10 30
    endloop
  endfacet
  facet normal 1 0 0
    outer loop
      vertex 43 0 0
      vertex 43 5 25
      vertex 43 0 30
    endloop
  endfacet
  facet normal 1 0 0
    outer loop
      vertex 43 5 25
      vertex 43 0 0
      vertex 43 10 0
    endloop
  endfacet
  facet normal 0 0 -1
    outer loop
      vertex 33 0 0
      vertex 43 10 0
      vertex 43 0 0
    endloop
  endfacet
  facet normal -0 0 -1
    outer loop
      vertex 43 10 0
      vertex 33 0 0
      vertex 33 10 0
    endloop
  endfacet
  facet normal -1 0 0
    outer loop
      vertex 33 10 0
      vertex 33 5 25
      vertex 33 10 30
    endloop
  endfacet
  facet normal -1 0 0
    outer loop
      vertex 33 0 0
      vertex 33 5 25
      vertex 33 10 0
    endloop
  endfacet
  facet normal -1 -0 0
    outer loop
      vertex 33 5 25
      vertex 33 0 0
      vertex 33 0 30
    endloop
  endfacet
  facet normal 0 1 -0
    outer loop
      vertex 43 10 0
      vertex 33 10 30
      vertex 43 10 30
    endloop
  endfacet
  facet normal 0 1 0
    outer loop
      vertex 33 10 30
      vertex 43 10 0
      vertex 33 10 0
    endloop
  endfacet
  facet normal 0 -1 0
    outer loop
      vertex 33 0 0
      vertex 43 0 30
      vertex 33 0 30
    endloop
  endfacet
  facet normal 0 -1 -0
    outer loop
      vertex 43 0 30
      vertex 33 0 0
      vertex 43 0 0
    endloop
  endfacet
  facet normal 0 -0.707107 0.707107
    outer loop
      vertex 33 5 25
      vertex 43 10 30
      vertex 33 10 30
    endloop
  endfacet
  facet normal 0 -0.707107 0.707107
    outer loop
      vertex 43 10 30
      vertex 33 5 25
      vertex 43 5 25
    endloop
  endfacet
  facet normal 0 0.707107 0.707107
    outer loop
      vertex 43 5 25
      vertex 33 0 30
      vertex 43 0 30
    endloop
  endfacet
  facet normal 0 0.707107 0.707107
    outer loop
      vertex 33 0 30
      vertex 43 5 25
      vertex 33 5 25
    endloop
  endfacet
  facet normal 1 0 0
    outer loop
      vertex 54 0 30
      vertex 54 10 30
      vertex 54 5 35
    endloop
  endfacet
  facet normal 1 0 0
    outer loop
      vertex 54 10 30
      vertex 54 0 30
      vertex 54 10 0
    endloop
  endfacet
  facet normal 1 0 0
    outer loop
      vertex 54 10 0
      vertex 54 0 30
      vertex 54 0 0
    endloop
  endfacet
  facet normal 0 0 -1
    outer loop
      vertex 44 0 0
      vertex 54 10 0
      vertex 54 0 0
    endloop
  endfacet
  facet normal -0 0 -1
    outer loop
      vertex 54 10 0
      vertex 44 0 0
      vertex 44 10 0
    endloop
  endfacet
  facet normal -1 0 0
    outer loop
      vertex 44 0 30
      vertex 44 10 30
      vertex 44 10 0
    endloop
  endfacet
  facet normal -1 0 0
    outer loop
      vertex 44 0 30
      vertex 44 10 0
      vertex 44 0 0
    endloop
  endfacet
  facet normal -1 0 0
    outer loop
      vertex 44 10 30
      vertex 44 0 30
      vertex 44 5 35
    endloop
  endfacet
  facet normal 0 1 -0
    outer loop
      vertex 54 10 0
      vertex 44 10 30
      vertex 54 10 30
    endloop
  endfacet
  facet normal 0 1 0
    outer loop
      vertex 44 10 30
      vertex 54 10 0
      vertex 44 10 0
    endloop
  endfacet
  facet normal 0 -1 0
    outer loop
      vertex 44 0 0
      vertex 54 0 30
      vertex 44 0 30
    endloop
  endfacet
  facet normal 0 -1 -0
    outer loop
      vertex 54 0 30
      vertex 44 0 0
      vertex 54 0 0
    endloop
  endfacet
  facet normal 0 -0.707107 0.707107
    outer loop
      vertex 44 0 30
      vertex 54 5 35
      vertex 44 5 35
    endloop
  endfacet
  facet normal 0 -0.707107 0.707107
    outer loop
      vertex 54 5 35
      vertex 44 0 30
      vertex 54 0 30
    endloop
  endfacet
  facet normal 0 0.707107 0.707107
    outer loop
      vertex 54 10 30
      vertex 44 5 35
      vertex 54 5 35
    endloop
  endfacet
  facet normal 0 0.707107 0.707107
    outer loop
      vertex 44 5 35
      vertex 54 10 30
      vertex 44 10 30
    endloop
  endfacet
  facet normal 1 0 0
    outer loop
      vertex 65 0 0
      vertex 65 10 10
      vertex 65 0 20
    endloop
  endfacet
  facet normal 1 0 0
    outer loop
      vertex 65 10 10
      vertex 65 0 0
      vertex 65 10 0
    endloop
  endfacet
  facet normal 0 0 -1
    outer loop
      vertex 55 0 0
      vertex 65 10 0
      vertex 65 0 0
    endloop
  endfacet
  facet normal -0 0 -1
    outer loop
      vertex 65 10 0
      vertex 55 0 0
      vertex 55 10 0
    endloop
  endfacet
  facet normal -1 0 0
    outer loop
      vertex 55 0 0
      vertex 55 10 10
      vertex 55 10 0
    endloop
  endfacet
  facet normal -1 -0 0
    outer loop
      vertex 55 10 10
      vertex 55 0 0
      vertex 55 0 20
    endloop
  endfacet
  facet normal 0 1 -0
    outer loop
      vertex 65 10 0
      vertex 55 10 10
      vertex 65 10 10
    endloop
  endfacet
  facet normal 0 1 0
    outer loop
      vertex 55 10 10
      vertex 65 10 0
      vertex 55 10 0
    endloop
  endfacet
  facet normal 0 -1 0
    outer loop
      vertex 55 0 0
      vertex 65 0 20
      vertex 55 0 20
    endloop
  endfacet
  facet normal 0 -1 -0
    outer loop
      vertex 65 0 20
      vertex 55 0 0
      vertex 65 0 0
    endloop
  endfacet
  facet normal 0 0.707107 0.707107
    outer loop
      vertex 65 10 10
      vertex 55 0 20
      vertex 65 0 20
    endloop
  endfacet
  facet normal 0 0.707107 0.707107
    outer loop
      vertex 55 0 20
      vertex 65 10 10
      vertex 55 10 10
    endloop
  endfacet
  facet normal 1 0 0
    outer loop
      vertex 76 5 20
      vertex 76 0 20
      vertex 76 5 10
    endloop
  endfacet
  facet normal 1 -0 0
    outer loop
      vertex 76 5 10
      vertex 76 10 0
      vertex 76 10 10
    endloop
  endfacet
  facet normal 1 0 0
    outer loop
      vertex 76 0 0
      vertex 76 5 10
      vertex 76 0 20
    endloop
  endfacet
  facet normal 1 0 0
    outer loop
      vertex 76 5 10
      vertex 76 0 0
      vertex 76 10 0
    endloop
  endfacet
  facet normal -0 0 1
    outer loop
      vertex 66 5 20
      vertex 76 0 20
      vertex 76 5 20
    endloop
  endfacet
  facet normal 0 0 1
    outer loop
      vertex 76 0 20
      vertex 66 5 20
      vertex 66 0 20
    endloop
  endfacet
  facet normal 0 0 -1
    outer loop
      vertex 66 0 0
      vertex 76 10 0
      vertex 76 0 0
    endloop
  endfacet
  facet normal -0 0 -1
    outer loop
      vertex 76 10 0
      vertex 66 0 0
      vertex 66 10 0
    endloop
  endfacet
  facet normal -1 0 0
    outer loop
      vertex 66 10 0
      vertex 66 5 10
      vertex 66 10 10
    endloop
  endfacet
  facet normal -1 0 0
    outer loop
      vertex 66 0 0
      vertex 66 5 10
      vertex 66 10 0
    endloop
  endfacet
  facet normal -1 0 0
    outer loop
      vertex 66 0 20
      vertex 66 5 10
      vertex 66 0 0
    endloop
  endfacet
  facet normal -1 0 0
    outer loop
      vertex 66 5 10
      vertex 66 0 20
      vertex 66 5 20
    endloop
  endfacet
  facet normal 0 1 -0
    outer loop
      vertex 76 10 0
      vertex 66 10 10
      vertex 76 10 10
    endloop
  endfacet
  facet normal 0 1 0
    outer loop
      vertex 66 10 10
      vertex 76 10 0
      vertex 66 10 0
    endloop
  endfacet
  facet normal 0 -1 0
    outer loop
      vertex 66 0 0
      vertex 76 0 20
      vertex 66 0 20
    endloop
  endfacet
  facet normal 0 -1 -0
    outer loop
      vertex 76 0 20
      vertex 66 0 0
      vertex 76 0 0
    endloop
  endfacet
  facet normal -0 0 1
    outer loop
      vertex 66 10 10
      vertex 76 5 10
      vertex 76 10 10
    endloop
  endfacet
  facet normal 0 0 1
    outer loop
      vertex 76 5 10
      vertex 66 10 10
      vertex 66 5 10
    endloop
  endfacet
  facet normal 0 1 -0
    outer loop
      vertex 76 5 10
      vertex 66 5 20
      vertex 76 5 20
    endloop
  endfacet
  facet normal 0 1 0
    outer loop
      vertex 66 5 20
      vertex 76 5 10
      vertex 66 5 10
    endloop
  endfacet
  facet normal 1 -0 0
    outer loop
      vertex 10 0 20
      vertex 10 10 0
      vertex 10 10 20
    endloop
  endfacet
  facet normal 1 0 0
    outer loop
      vertex 10 10 0
      vertex 10 0 20
      vertex 10 0 0
    endloop
  endfacet
  facet normal -0 0 1
    outer loop
      vertex 0 10 20
      vertex 10 0 20
      vertex 10 10 20
    endloop
  endfacet
  facet normal 0 0 1
    outer loop
      vertex 10 0 20
      vertex 0 10 20
      vertex 0 0 20
    endloop
  endfacet
  facet normal 0 0 -1
    outer loop
      vertex 0 0 0
      vertex 10 10 0
      vertex 10 0 0
    endloop
  endfacet
  facet normal -0 0 -1
    outer loop
      vertex 10 10 0
      vertex 0 0 0
      vertex 0 10 0
    endloop
  endfacet
  facet normal -1 0 0
    outer loop
      vertex 0 0 0
      vertex 0 10 20
      vertex 0 10 0
    endloop
  endfacet
  facet normal -1 -0 0
    outer loop
      vertex 0 10 20
      vertex 0 0 0
      vertex 0 0 20
    endloop
  endfacet
  facet normal 0 1 -0
    outer loop
      vertex 10 10 0
      vertex 0 10 20
      vertex 10 10 20
    endloop
  endfacet
  facet normal 0 1 0
    outer loop
      vertex 0 10 20
      vertex 10 10 0
      vertex 0 10 0
    endloop
  endfacet
  facet normal 0 -1 0
    outer loop
      vertex 0 0 0
      vertex 10 0 20
      vertex 0 0 20
    endloop
  endfacet
  facet normal 0 -1 -0
    outer loop
      vertex 10 0 20
      vertex 0 0 0
      vertex 10 0 0
    endloop
  endfacet
  facet normal 1 -0 0
    outer loop
      vertex 87 0 20
      vertex 87 10 0
      vertex 87 10 20
    endloop
  endfacet
  facet normal 1 0 0
    outer loop
      vertex 87 10 0
      vertex 87 0 20
      vertex 87 0 0
    endloop
  endfacet
  facet normal -0 0 1
    outer loop
      vertex 77 10 20
      vertex 87 0 20
      vertex 87 10 20
    endloop
  endfacet
  facet normal 0 0 1
    outer loop
      vertex 87 0 20
      vertex 77 10 20
      vertex 77 0 20
    endloop
  endfacet
  facet normal 0 0 -1
    outer loop
      vertex 77 0 0
      vertex 87 10 0
      vertex 87 0 0
    endloop
  endfacet
  facet normal -0 0 -1
    outer loop
      vertex 87 10 0
      vertex 77 0 0
      vertex 77 10 0
    endloop
  endfacet
  facet normal -1 0 0
    outer loop
      vertex 77 0 0
      vertex 77 10 20
      vertex 77 10 0
    endloop
  endfacet
  facet normal -1 -0 0
    outer loop
      vertex 77 10 20
      vertex 77 0 0
      vertex 77 0 20
    endloop
  endfacet
  facet normal 0 1 -0
    outer loop
      vertex 87 10 0
      vertex 77 10 20
      vertex 87 10 20
    endloop
  endfacet
  facet normal 0 1 0
    outer loop
      vertex 77 10 20
      vertex 87 10 0
      vertex 77 10 0
    endloop
  endfacet
  facet normal 0 -1 0
    outer loop
      vertex 77 0 0
      vertex 87 0 20
      vertex 77 0 20
    endloop
  endfacet
  facet normal 0 -1 -0
    outer loop
      vertex 87 0 20
      vertex 77 0 0
      vertex 87 0 0
    endloop
  endfacet
endsolid OpenSCAD_Model
