solid OpenSCAD_Model
  facet normal 1 0 0
    outer loop
      vertex 10 0 30
      vertex 10 10 30
      vertex 10 5 35
    endloop
  endfacet
  facet normal 1 0 0
    outer loop
      vertex 10 10 30
      vertex 10 0 30
      vertex 10 10 0
    endloop
  endfacet
  facet normal 1 0 0
    outer loop
      vertex 10 10 0
      vertex 10 0 30
      vertex 10 0 0
    endloop
  endfacet
  facet normal 0 0 -1
    outer loop
      vertex 0 0 0
      vertex 10 10 0
      vertex 10 0 0
    endloop
  endfacet
  facet normal -0 0 -1
    outer loop
      vertex 10 10 0
      vertex 0 0 0
      vertex 0 10 0
    endloop
  endfacet
  facet normal -1 0 0
    outer loop
      vertex 0 0 30
      vertex 0 10 30
      vertex 0 10 0
    endloop
  endfacet
  facet normal -1 0 0
    outer loop
      vertex 0 0 30
      vertex 0 10 0
      vertex 0 0 0
    endloop
  endfacet
  facet normal -1 0 0
    outer loop
      vertex 0 10 30
      vertex 0 0 30
      vertex 0 5 35
    endloop
  endfacet
  facet normal 0 1 -0
    outer loop
      vertex 10 10 0
      vertex 0 10 30
      vertex 10 10 30
    endloop
  endfacet
  facet normal 0 1 0
    outer loop
      vertex 0 10 30
      vertex 10 10 0
      vertex 0 10 0
    endloop
  endfacet
  facet normal 0 -1 0
    outer loop
      vertex 0 0 0
      vertex 10 0 30
      vertex 0 0 30
    endloop
  endfacet
  facet normal 0 -1 -0
    outer loop
      vertex 10 0 30
      vertex 0 0 0
      vertex 10 0 0
    endloop
  endfacet
  facet normal 0 -0.707107 0.707107
    outer loop
      vertex 0 0 30
      vertex 10 5 35
      vertex 0 5 35
    endloop
  endfacet
  facet normal 0 -0.707107 0.707107
    outer loop
      vertex 10 5 35
      vertex 0 0 30
      vertex 10 0 30
    endloop
  endfacet
  facet normal 0 0.707107 0.707107
    outer loop
      vertex 10 10 30
      vertex 0 5 35
      vertex 10 5 35
    endloop
  endfacet
  facet normal 0 0.707107 0.707107
    outer loop
      vertex 0 5 35
      vertex 10 10 30
      vertex 0 10 30
    endloop
  endfacet
endsolid OpenSCAD_Model
