solid Lanier Graham Chess Set
 facet normal -1.000000 0.000000 0.000000
  outer loop
   vertex 0.000000 11.000000 0.000000
   vertex 0.000000 11.000000 10.000000
   vertex 0.000000 21.000000 0.000000
  endloop
 endfacet
 facet normal -1.000000 0.000000 0.000000
  outer loop
   vertex 0.000000 21.000000 0.000000
   vertex 0.000000 11.000000 10.000000
   vertex 0.000000 21.000000 10.000000
  endloop
 endfacet
 facet normal 0.000000 -1.000000 0.000000
  outer loop
   vertex 0.000000 11.000000 10.000000
   vertex 0.000000 11.000000 0.000000
   vertex 10.000000 11.000000 0.000000
  endloop
 endfacet
 facet normal 0.000000 -1.000000 0.000000
  outer loop
   vertex 10.000000 11.000000 10.000000
   vertex 0.000000 11.000000 10.000000
   vertex 10.000000 11.000000 0.000000
  endloop
 endfacet
 facet normal 0.000000 0.000000 -1.000000
  outer loop
   vertex 0.000000 11.000000 0.000000
   vertex 0.000000 21.000000 0.000000
   vertex 10.000000 11.000000 0.000000
  endloop
 endfacet
 facet normal 0.000000 0.000000 -1.000000
  outer loop
   vertex 10.000000 11.000000 0.000000
   vertex 0.000000 21.000000 0.000000
   vertex 10.000000 21.000000 0.000000
  endloop
 endfacet
 facet normal 0.000000 1.000000 0.000000
  outer loop
   vertex 0.000000 21.000000 0.000000
   vertex 0.000000 21.000000 10.000000
   vertex 10.000000 21.000000 0.000000
  endloop
 endfacet
 facet normal 0.000000 1.000000 0.000000
  outer loop
   vertex 10.000000 21.000000 0.000000
   vertex 0.000000 21.000000 10.000000
   vertex 10.000000 21.000000 10.000000
  endloop
 endfacet
 facet normal 0.000000 0.000000 1.000000
  outer loop
   vertex 0.000000 21.000000 10.000000
   vertex 0.000000 11.000000 10.000000
   vertex 10.000000 11.000000 10.000000
  endloop
 endfacet
 facet normal 0.000000 0.000000 1.000000
  outer loop
   vertex 10.000000 21.000000 10.000000
   vertex 0.000000 21.000000 10.000000
   vertex 10.000000 11.000000 10.000000
  endloop
 endfacet
 facet normal 1.000000 0.000000 0.000000
  outer loop
   vertex 10.000000 11.000000 10.000000
   vertex 10.000000 11.000000 0.000000
   vertex 10.000000 21.000000 0.000000
  endloop
 endfacet
 facet normal 1.000000 0.000000 0.000000
  outer loop
   vertex 10.000000 21.000000 10.000000
   vertex 10.000000 11.000000 10.000000
   vertex 10.000000 21.000000 0.000000
  endloop
 endfacet
 facet normal -1.000000 0.000000 0.000000
  outer loop
   vertex 11.000000 11.000000 0.000000
   vertex 11.000000 11.000000 10.000000
   vertex 11.000000 21.000000 0.000000
  endloop
 endfacet
 facet normal -1.000000 0.000000 0.000000
  outer loop
   vertex 11.000000 21.000000 0.000000
   vertex 11.000000 11.000000 10.000000
   vertex 11.000000 21.000000 10.000000
  endloop
 endfacet
 facet normal 0.000000 -1.000000 0.000000
  outer loop
   vertex 11.000000 11.000000 10.000000
   vertex 11.000000 11.000000 0.000000
   vertex 21.000000 11.000000 0.000000
  endloop
 endfacet
 facet normal 0.000000 -1.000000 0.000000
  outer loop
   vertex 21.000000 11.000000 10.000000
   vertex 11.000000 11.000000 10.000000
   vertex 21.000000 11.000000 0.000000
  endloop
 endfacet
 facet normal 0.000000 0.000000 -1.000000
  outer loop
   vertex 11.000000 11.000000 0.000000
   vertex 11.000000 21.000000 0.000000
   vertex 21.000000 11.000000 0.000000
  endloop
 endfacet
 facet normal 0.000000 0.000000 -1.000000
  outer loop
   vertex 21.000000 11.000000 0.000000
   vertex 11.000000 21.000000 0.000000
   vertex 21.000000 21.000000 0.000000
  endloop
 endfacet
 facet normal 0.000000 1.000000 0.000000
  outer loop
   vertex 11.000000 21.000000 0.000000
   vertex 11.000000 21.000000 10.000000
   vertex 21.000000 21.000000 0.000000
  endloop
 endfacet
 facet normal 0.000000 1.000000 0.000000
  outer loop
   vertex 21.000000 21.000000 0.000000
   vertex 11.000000 21.000000 10.000000
   vertex 21.000000 21.000000 10.000000
  endloop
 endfacet
 facet normal 0.000000 0.000000 1.000000
  outer loop
   vertex 11.000000 21.000000 10.000000
   vertex 11.000000 11.000000 10.000000
   vertex 21.000000 11.000000 10.000000
  endloop
 endfacet
 facet normal 0.000000 0.000000 1.000000
  outer loop
   vertex 21.000000 21.000000 10.000000
   vertex 11.000000 21.000000 10.000000
   vertex 21.000000 11.000000 10.000000
  endloop
 endfacet
 facet normal 1.000000 0.000000 0.000000
  outer loop
   vertex 21.000000 11.000000 10.000000
   vertex 21.000000 11.000000 0.000000
   vertex 21.000000 21.000000 0.000000
  endloop
 endfacet
 facet normal 1.000000 0.000000 0.000000
  outer loop
   vertex 21.000000 21.000000 10.000000
   vertex 21.000000 11.000000 10.000000
   vertex 21.000000 21.000000 0.000000
  endloop
 endfacet
 facet normal -1.000000 0.000000 0.000000
  outer loop
   vertex 22.000000 11.000000 0.000000
   vertex 22.000000 11.000000 10.000000
   vertex 22.000000 21.000000 0.000000
  endloop
 endfacet
 facet normal -1.000000 0.000000 0.000000
  outer loop
   vertex 22.000000 21.000000 0.000000
   vertex 22.000000 11.000000 10.000000
   vertex 22.000000 21.000000 10.000000
  endloop
 endfacet
 facet normal 0.000000 -1.000000 0.000000
  outer loop
   vertex 22.000000 11.000000 10.000000
   vertex 22.000000 11.000000 0.000000
   vertex 32.000000 11.000000 0.000000
  endloop
 endfacet
 facet normal 0.000000 -1.000000 0.000000
  outer loop
   vertex 32.000000 11.000000 10.000000
   vertex 22.000000 11.000000 10.000000
   vertex 32.000000 11.000000 0.000000
  endloop
 endfacet
 facet normal 0.000000 0.000000 -1.000000
  outer loop
   vertex 22.000000 11.000000 0.000000
   vertex 22.000000 21.000000 0.000000
   vertex 32.000000 11.000000 0.000000
  endloop
 endfacet
 facet normal 0.000000 0.000000 -1.000000
  outer loop
   vertex 32.000000 11.000000 0.000000
   vertex 22.000000 21.000000 0.000000
   vertex 32.000000 21.000000 0.000000
  endloop
 endfacet
 facet normal 0.000000 1.000000 0.000000
  outer loop
   vertex 22.000000 21.000000 0.000000
   vertex 22.000000 21.000000 10.000000
   vertex 32.000000 21.000000 0.000000
  endloop
 endfacet
 facet normal 0.000000 1.000000 0.000000
  outer loop
   vertex 32.000000 21.000000 0.000000
   vertex 22.000000 21.000000 10.000000
   vertex 32.000000 21.000000 10.000000
  endloop
 endfacet
 facet normal 0.000000 0.000000 1.000000
  outer loop
   vertex 22.000000 21.000000 10.000000
   vertex 22.000000 11.000000 10.000000
   vertex 32.000000 11.000000 10.000000
  endloop
 endfacet
 facet normal 0.000000 0.000000 1.000000
  outer loop
   vertex 32.000000 21.000000 10.000000
   vertex 22.000000 21.000000 10.000000
   vertex 32.000000 11.000000 10.000000
  endloop
 endfacet
 facet normal 1.000000 0.000000 0.000000
  outer loop
   vertex 32.000000 11.000000 10.000000
   vertex 32.000000 11.000000 0.000000
   vertex 32.000000 21.000000 0.000000
  endloop
 endfacet
 facet normal 1.000000 0.000000 0.000000
  outer loop
   vertex 32.000000 21.000000 10.000000
   vertex 32.000000 11.000000 10.000000
   vertex 32.000000 21.000000 0.000000
  endloop
 endfacet
 facet normal -1.000000 0.000000 0.000000
  outer loop
   vertex 33.000000 11.000000 0.000000
   vertex 33.000000 11.000000 10.000000
   vertex 33.000000 21.000000 0.000000
  endloop
 endfacet
 facet normal -1.000000 0.000000 0.000000
  outer loop
   vertex 33.000000 21.000000 0.000000
   vertex 33.000000 11.000000 10.000000
   vertex 33.000000 21.000000 10.000000
  endloop
 endfacet
 facet normal 0.000000 -1.000000 0.000000
  outer loop
   vertex 33.000000 11.000000 10.000000
   vertex 33.000000 11.000000 0.000000
   vertex 43.000000 11.000000 0.000000
  endloop
 endfacet
 facet normal 0.000000 -1.000000 0.000000
  outer loop
   vertex 43.000000 11.000000 10.000000
   vertex 33.000000 11.000000 10.000000
   vertex 43.000000 11.000000 0.000000
  endloop
 endfacet
 facet normal 0.000000 0.000000 -1.000000
  outer loop
   vertex 33.000000 11.000000 0.000000
   vertex 33.000000 21.000000 0.000000
   vertex 43.000000 11.000000 0.000000
  endloop
 endfacet
 facet normal 0.000000 0.000000 -1.000000
  outer loop
   vertex 43.000000 11.000000 0.000000
   vertex 33.000000 21.000000 0.000000
   vertex 43.000000 21.000000 0.000000
  endloop
 endfacet
 facet normal 0.000000 1.000000 0.000000
  outer loop
   vertex 33.000000 21.000000 0.000000
   vertex 33.000000 21.000000 10.000000
   vertex 43.000000 21.000000 0.000000
  endloop
 endfacet
 facet normal 0.000000 1.000000 0.000000
  outer loop
   vertex 43.000000 21.000000 0.000000
   vertex 33.000000 21.000000 10.000000
   vertex 43.000000 21.000000 10.000000
  endloop
 endfacet
 facet normal 0.000000 0.000000 1.000000
  outer loop
   vertex 33.000000 21.000000 10.000000
   vertex 33.000000 11.000000 10.000000
   vertex 43.000000 11.000000 10.000000
  endloop
 endfacet
 facet normal 0.000000 0.000000 1.000000
  outer loop
   vertex 43.000000 21.000000 10.000000
   vertex 33.000000 21.000000 10.000000
   vertex 43.000000 11.000000 10.000000
  endloop
 endfacet
 facet normal 1.000000 0.000000 0.000000
  outer loop
   vertex 43.000000 11.000000 10.000000
   vertex 43.000000 11.000000 0.000000
   vertex 43.000000 21.000000 0.000000
  endloop
 endfacet
 facet normal 1.000000 0.000000 0.000000
  outer loop
   vertex 43.000000 21.000000 10.000000
   vertex 43.000000 11.000000 10.000000
   vertex 43.000000 21.000000 0.000000
  endloop
 endfacet
 facet normal -1.000000 0.000000 0.000000
  outer loop
   vertex 44.000000 11.000000 0.000000
   vertex 44.000000 11.000000 10.000000
   vertex 44.000000 21.000000 0.000000
  endloop
 endfacet
 facet normal -1.000000 0.000000 0.000000
  outer loop
   vertex 44.000000 21.000000 0.000000
   vertex 44.000000 11.000000 10.000000
   vertex 44.000000 21.000000 10.000000
  endloop
 endfacet
 facet normal 0.000000 -1.000000 0.000000
  outer loop
   vertex 44.000000 11.000000 10.000000
   vertex 44.000000 11.000000 0.000000
   vertex 54.000000 11.000000 0.000000
  endloop
 endfacet
 facet normal 0.000000 -1.000000 0.000000
  outer loop
   vertex 54.000000 11.000000 10.000000
   vertex 44.000000 11.000000 10.000000
   vertex 54.000000 11.000000 0.000000
  endloop
 endfacet
 facet normal 0.000000 0.000000 -1.000000
  outer loop
   vertex 44.000000 11.000000 0.000000
   vertex 44.000000 21.000000 0.000000
   vertex 54.000000 11.000000 0.000000
  endloop
 endfacet
 facet normal 0.000000 0.000000 -1.000000
  outer loop
   vertex 54.000000 11.000000 0.000000
   vertex 44.000000 21.000000 0.000000
   vertex 54.000000 21.000000 0.000000
  endloop
 endfacet
 facet normal 0.000000 1.000000 0.000000
  outer loop
   vertex 44.000000 21.000000 0.000000
   vertex 44.000000 21.000000 10.000000
   vertex 54.000000 21.000000 0.000000
  endloop
 endfacet
 facet normal 0.000000 1.000000 0.000000
  outer loop
   vertex 54.000000 21.000000 0.000000
   vertex 44.000000 21.000000 10.000000
   vertex 54.000000 21.000000 10.000000
  endloop
 endfacet
 facet normal 0.000000 0.000000 1.000000
  outer loop
   vertex 44.000000 21.000000 10.000000
   vertex 44.000000 11.000000 10.000000
   vertex 54.000000 11.000000 10.000000
  endloop
 endfacet
 facet normal 0.000000 0.000000 1.000000
  outer loop
   vertex 54.000000 21.000000 10.000000
   vertex 44.000000 21.000000 10.000000
   vertex 54.000000 11.000000 10.000000
  endloop
 endfacet
 facet normal 1.000000 0.000000 0.000000
  outer loop
   vertex 54.000000 11.000000 10.000000
   vertex 54.000000 11.000000 0.000000
   vertex 54.000000 21.000000 0.000000
  endloop
 endfacet
 facet normal 1.000000 0.000000 0.000000
  outer loop
   vertex 54.000000 21.000000 10.000000
   vertex 54.000000 11.000000 10.000000
   vertex 54.000000 21.000000 0.000000
  endloop
 endfacet
 facet normal -1.000000 0.000000 0.000000
  outer loop
   vertex 55.000000 11.000000 0.000000
   vertex 55.000000 11.000000 10.000000
   vertex 55.000000 21.000000 0.000000
  endloop
 endfacet
 facet normal -1.000000 0.000000 0.000000
  outer loop
   vertex 55.000000 21.000000 0.000000
   vertex 55.000000 11.000000 10.000000
   vertex 55.000000 21.000000 10.000000
  endloop
 endfacet
 facet normal 0.000000 -1.000000 0.000000
  outer loop
   vertex 55.000000 11.000000 10.000000
   vertex 55.000000 11.000000 0.000000
   vertex 65.000000 11.000000 0.000000
  endloop
 endfacet
 facet normal 0.000000 -1.000000 0.000000
  outer loop
   vertex 65.000000 11.000000 10.000000
   vertex 55.000000 11.000000 10.000000
   vertex 65.000000 11.000000 0.000000
  endloop
 endfacet
 facet normal 0.000000 0.000000 -1.000000
  outer loop
   vertex 55.000000 11.000000 0.000000
   vertex 55.000000 21.000000 0.000000
   vertex 65.000000 11.000000 0.000000
  endloop
 endfacet
 facet normal 0.000000 0.000000 -1.000000
  outer loop
   vertex 65.000000 11.000000 0.000000
   vertex 55.000000 21.000000 0.000000
   vertex 65.000000 21.000000 0.000000
  endloop
 endfacet
 facet normal 0.000000 1.000000 0.000000
  outer loop
   vertex 55.000000 21.000000 0.000000
   vertex 55.000000 21.000000 10.000000
   vertex 65.000000 21.000000 0.000000
  endloop
 endfacet
 facet normal 0.000000 1.000000 0.000000
  outer loop
   vertex 65.000000 21.000000 0.000000
   vertex 55.000000 21.000000 10.000000
   vertex 65.000000 21.000000 10.000000
  endloop
 endfacet
 facet normal 0.000000 0.000000 1.000000
  outer loop
   vertex 55.000000 21.000000 10.000000
   vertex 55.000000 11.000000 10.000000
   vertex 65.000000 11.000000 10.000000
  endloop
 endfacet
 facet normal 0.000000 0.000000 1.000000
  outer loop
   vertex 65.000000 21.000000 10.000000
   vertex 55.000000 21.000000 10.000000
   vertex 65.000000 11.000000 10.000000
  endloop
 endfacet
 facet normal 1.000000 0.000000 0.000000
  outer loop
   vertex 65.000000 11.000000 10.000000
   vertex 65.000000 11.000000 0.000000
   vertex 65.000000 21.000000 0.000000
  endloop
 endfacet
 facet normal 1.000000 0.000000 0.000000
  outer loop
   vertex 65.000000 21.000000 10.000000
   vertex 65.000000 11.000000 10.000000
   vertex 65.000000 21.000000 0.000000
  endloop
 endfacet
 facet normal -1.000000 0.000000 0.000000
  outer loop
   vertex 66.000000 11.000000 0.000000
   vertex 66.000000 11.000000 10.000000
   vertex 66.000000 21.000000 0.000000
  endloop
 endfacet
 facet normal -1.000000 0.000000 0.000000
  outer loop
   vertex 66.000000 21.000000 0.000000
   vertex 66.000000 11.000000 10.000000
   vertex 66.000000 21.000000 10.000000
  endloop
 endfacet
 facet normal 0.000000 -1.000000 0.000000
  outer loop
   vertex 66.000000 11.000000 10.000000
   vertex 66.000000 11.000000 0.000000
   vertex 76.000000 11.000000 0.000000
  endloop
 endfacet
 facet normal 0.000000 -1.000000 0.000000
  outer loop
   vertex 76.000000 11.000000 10.000000
   vertex 66.000000 11.000000 10.000000
   vertex 76.000000 11.000000 0.000000
  endloop
 endfacet
 facet normal 0.000000 0.000000 -1.000000
  outer loop
   vertex 66.000000 11.000000 0.000000
   vertex 66.000000 21.000000 0.000000
   vertex 76.000000 11.000000 0.000000
  endloop
 endfacet
 facet normal 0.000000 0.000000 -1.000000
  outer loop
   vertex 76.000000 11.000000 0.000000
   vertex 66.000000 21.000000 0.000000
   vertex 76.000000 21.000000 0.000000
  endloop
 endfacet
 facet normal 0.000000 1.000000 0.000000
  outer loop
   vertex 66.000000 21.000000 0.000000
   vertex 66.000000 21.000000 10.000000
   vertex 76.000000 21.000000 0.000000
  endloop
 endfacet
 facet normal 0.000000 1.000000 0.000000
  outer loop
   vertex 76.000000 21.000000 0.000000
   vertex 66.000000 21.000000 10.000000
   vertex 76.000000 21.000000 10.000000
  endloop
 endfacet
 facet normal 0.000000 0.000000 1.000000
  outer loop
   vertex 66.000000 21.000000 10.000000
   vertex 66.000000 11.000000 10.000000
   vertex 76.000000 11.000000 10.000000
  endloop
 endfacet
 facet normal 0.000000 0.000000 1.000000
  outer loop
   vertex 76.000000 21.000000 10.000000
   vertex 66.000000 21.000000 10.000000
   vertex 76.000000 11.000000 10.000000
  endloop
 endfacet
 facet normal 1.000000 0.000000 0.000000
  outer loop
   vertex 76.000000 11.000000 10.000000
   vertex 76.000000 11.000000 0.000000
   vertex 76.000000 21.000000 0.000000
  endloop
 endfacet
 facet normal 1.000000 0.000000 0.000000
  outer loop
   vertex 76.000000 21.000000 10.000000
   vertex 76.000000 11.000000 10.000000
   vertex 76.000000 21.000000 0.000000
  endloop
 endfacet
 facet normal -1.000000 0.000000 0.000000
  outer loop
   vertex 77.000000 11.000000 0.000000
   vertex 77.000000 11.000000 10.000000
   vertex 77.000000 21.000000 0.000000
  endloop
 endfacet
 facet normal -1.000000 0.000000 0.000000
  outer loop
   vertex 77.000000 21.000000 0.000000
   vertex 77.000000 11.000000 10.000000
   vertex 77.000000 21.000000 10.000000
  endloop
 endfacet
 facet normal 0.000000 -1.000000 0.000000
  outer loop
   vertex 77.000000 11.000000 10.000000
   vertex 77.000000 11.000000 0.000000
   vertex 87.000000 11.000000 0.000000
  endloop
 endfacet
 facet normal 0.000000 -1.000000 0.000000
  outer loop
   vertex 87.000000 11.000000 10.000000
   vertex 77.000000 11.000000 10.000000
   vertex 87.000000 11.000000 0.000000
  endloop
 endfacet
 facet normal 0.000000 0.000000 -1.000000
  outer loop
   vertex 77.000000 11.000000 0.000000
   vertex 77.000000 21.000000 0.000000
   vertex 87.000000 11.000000 0.000000
  endloop
 endfacet
 facet normal 0.000000 0.000000 -1.000000
  outer loop
   vertex 87.000000 11.000000 0.000000
   vertex 77.000000 21.000000 0.000000
   vertex 87.000000 21.000000 0.000000
  endloop
 endfacet
 facet normal 0.000000 1.000000 0.000000
  outer loop
   vertex 77.000000 21.000000 0.000000
   vertex 77.000000 21.000000 10.000000
   vertex 87.000000 21.000000 0.000000
  endloop
 endfacet
 facet normal 0.000000 1.000000 0.000000
  outer loop
   vertex 87.000000 21.000000 0.000000
   vertex 77.000000 21.000000 10.000000
   vertex 87.000000 21.000000 10.000000
  endloop
 endfacet
 facet normal 0.000000 0.000000 1.000000
  outer loop
   vertex 77.000000 21.000000 10.000000
   vertex 77.000000 11.000000 10.000000
   vertex 87.000000 11.000000 10.000000
  endloop
 endfacet
 facet normal 0.000000 0.000000 1.000000
  outer loop
   vertex 87.000000 21.000000 10.000000
   vertex 77.000000 21.000000 10.000000
   vertex 87.000000 11.000000 10.000000
  endloop
 endfacet
 facet normal 1.000000 0.000000 0.000000
  outer loop
   vertex 87.000000 11.000000 10.000000
   vertex 87.000000 11.000000 0.000000
   vertex 87.000000 21.000000 0.000000
  endloop
 endfacet
 facet normal 1.000000 0.000000 0.000000
  outer loop
   vertex 87.000000 21.000000 10.000000
   vertex 87.000000 11.000000 10.000000
   vertex 87.000000 21.000000 0.000000
  endloop
 endfacet
 facet normal -1.000000 0.000000 0.000000
  outer loop
   vertex 0.000000 0.000000 0.000000
   vertex 0.000000 0.000000 20.000000
   vertex 0.000000 10.000000 0.000000
  endloop
 endfacet
 facet normal -1.000000 0.000000 0.000000
  outer loop
   vertex 0.000000 10.000000 0.000000
   vertex 0.000000 0.000000 20.000000
   vertex 0.000000 10.000000 20.000000
  endloop
 endfacet
 facet normal 0.000000 -1.000000 0.000000
  outer loop
   vertex 0.000000 0.000000 20.000000
   vertex 0.000000 0.000000 0.000000
   vertex 10.000000 0.000000 0.000000
  endloop
 endfacet
 facet normal 0.000000 -1.000000 0.000000
  outer loop
   vertex 10.000000 0.000000 20.000000
   vertex 0.000000 0.000000 20.000000
   vertex 10.000000 0.000000 0.000000
  endloop
 endfacet
 facet normal 0.000000 0.000000 -1.000000
  outer loop
   vertex 0.000000 0.000000 0.000000
   vertex 0.000000 10.000000 0.000000
   vertex 10.000000 0.000000 0.000000
  endloop
 endfacet
 facet normal 0.000000 0.000000 -1.000000
  outer loop
   vertex 10.000000 0.000000 0.000000
   vertex 0.000000 10.000000 0.000000
   vertex 10.000000 10.000000 0.000000
  endloop
 endfacet
 facet normal 0.000000 1.000000 0.000000
  outer loop
   vertex 0.000000 10.000000 0.000000
   vertex 0.000000 10.000000 20.000000
   vertex 10.000000 10.000000 0.000000
  endloop
 endfacet
 facet normal 0.000000 1.000000 0.000000
  outer loop
   vertex 10.000000 10.000000 0.000000
   vertex 0.000000 10.000000 20.000000
   vertex 10.000000 10.000000 20.000000
  endloop
 endfacet
 facet normal 0.000000 0.000000 1.000000
  outer loop
   vertex 0.000000 10.000000 20.000000
   vertex 0.000000 0.000000 20.000000
   vertex 10.000000 0.000000 20.000000
  endloop
 endfacet
 facet normal 0.000000 0.000000 1.000000
  outer loop
   vertex 10.000000 10.000000 20.000000
   vertex 0.000000 10.000000 20.000000
   vertex 10.000000 0.000000 20.000000
  endloop
 endfacet
 facet normal 1.000000 0.000000 0.000000
  outer loop
   vertex 10.000000 0.000000 20.000000
   vertex 10.000000 0.000000 0.000000
   vertex 10.000000 10.000000 0.000000
  endloop
 endfacet
 facet normal 1.000000 0.000000 0.000000
  outer loop
   vertex 10.000000 10.000000 20.000000
   vertex 10.000000 0.000000 20.000000
   vertex 10.000000 10.000000 0.000000
  endloop
 endfacet
 facet normal -1.000000 0.000000 0.000000
  outer loop
   vertex 11.000000 0.000000 0.000000
   vertex 11.000000 5.000000 10.000000
   vertex 11.000000 10.000000 0.000000
  endloop
 endfacet
 facet normal -1.000000 0.000000 0.000000
  outer loop
   vertex 11.000000 5.000000 10.000000
   vertex 11.000000 0.000000 20.000000
   vertex 11.000000 5.000000 20.000000
  endloop
 endfacet
 facet normal -1.000000 0.000000 0.000000
  outer loop
   vertex 11.000000 0.000000 0.000000
   vertex 11.000000 0.000000 20.000000
   vertex 11.000000 5.000000 10.000000
  endloop
 endfacet
 facet normal -1.000000 0.000000 0.000000
  outer loop
   vertex 11.000000 10.000000 10.000000
   vertex 11.000000 10.000000 0.000000
   vertex 11.000000 5.000000 10.000000
  endloop
 endfacet
 facet normal 0.000000 -1.000000 0.000000
  outer loop
   vertex 11.000000 0.000000 20.000000
   vertex 11.000000 0.000000 0.000000
   vertex 21.000000 0.000000 0.000000
  endloop
 endfacet
 facet normal 0.000000 -1.000000 0.000000
  outer loop
   vertex 21.000000 0.000000 20.000000
   vertex 11.000000 0.000000 20.000000
   vertex 21.000000 0.000000 0.000000
  endloop
 endfacet
 facet normal 0.000000 0.000000 -1.000000
  outer loop
   vertex 11.000000 0.000000 0.000000
   vertex 11.000000 10.000000 0.000000
   vertex 21.000000 0.000000 0.000000
  endloop
 endfacet
 facet normal 0.000000 0.000000 -1.000000
  outer loop
   vertex 21.000000 0.000000 0.000000
   vertex 11.000000 10.000000 0.000000
   vertex 21.000000 10.000000 0.000000
  endloop
 endfacet
 facet normal 0.000000 1.000000 0.000000
  outer loop
   vertex 11.000000 10.000000 0.000000
   vertex 11.000000 10.000000 10.000000
   vertex 21.000000 10.000000 0.000000
  endloop
 endfacet
 facet normal 0.000000 1.000000 0.000000
  outer loop
   vertex 21.000000 10.000000 0.000000
   vertex 11.000000 10.000000 10.000000
   vertex 21.000000 10.000000 10.000000
  endloop
 endfacet
 facet normal 0.000000 0.000000 1.000000
  outer loop
   vertex 21.000000 5.000000 10.000000
   vertex 21.000000 10.000000 10.000000
   vertex 11.000000 10.000000 10.000000
  endloop
 endfacet
 facet normal 0.000000 0.000000 1.000000
  outer loop
   vertex 11.000000 5.000000 10.000000
   vertex 21.000000 5.000000 10.000000
   vertex 11.000000 10.000000 10.000000
  endloop
 endfacet
 facet normal 0.000000 1.000000 0.000000
  outer loop
   vertex 21.000000 5.000000 20.000000
   vertex 21.000000 5.000000 10.000000
   vertex 11.000000 5.000000 20.000000
  endloop
 endfacet
 facet normal 0.000000 1.000000 0.000000
  outer loop
   vertex 11.000000 5.000000 20.000000
   vertex 21.000000 5.000000 10.000000
   vertex 11.000000 5.000000 10.000000
  endloop
 endfacet
 facet normal 0.000000 0.000000 1.000000
  outer loop
   vertex 11.000000 5.000000 20.000000
   vertex 11.000000 0.000000 20.000000
   vertex 21.000000 0.000000 20.000000
  endloop
 endfacet
 facet normal 0.000000 0.000000 1.000000
  outer loop
   vertex 21.000000 5.000000 20.000000
   vertex 11.000000 5.000000 20.000000
   vertex 21.000000 0.000000 20.000000
  endloop
 endfacet
 facet normal 1.000000 0.000000 0.000000
  outer loop
   vertex 21.000000 5.000000 10.000000
   vertex 21.000000 0.000000 0.000000
   vertex 21.000000 10.000000 0.000000
  endloop
 endfacet
 facet normal 1.000000 0.000000 0.000000
  outer loop
   vertex 21.000000 5.000000 10.000000
   vertex 21.000000 0.000000 20.000000
   vertex 21.000000 0.000000 0.000000
  endloop
 endfacet
 facet normal 1.000000 0.000000 0.000000
  outer loop
   vertex 21.000000 10.000000 10.000000
   vertex 21.000000 5.000000 10.000000
   vertex 21.000000 10.000000 0.000000
  endloop
 endfacet
 facet normal 1.000000 0.000000 0.000000
  outer loop
   vertex 21.000000 5.000000 10.000000
   vertex 21.000000 5.000000 20.000000
   vertex 21.000000 0.000000 20.000000
  endloop
 endfacet
 facet normal -1.000000 0.000000 0.000000
  outer loop
   vertex 22.000000 0.000000 0.000000
   vertex 22.000000 0.000000 20.000000
   vertex 22.000000 10.000000 0.000000
  endloop
 endfacet
 facet normal -1.000000 0.000000 0.000000
  outer loop
   vertex 22.000000 10.000000 0.000000
   vertex 22.000000 0.000000 20.000000
   vertex 22.000000 10.000000 10.000000
  endloop
 endfacet
 facet normal 0.000000 -1.000000 0.000000
  outer loop
   vertex 22.000000 0.000000 20.000000
   vertex 22.000000 0.000000 0.000000
   vertex 32.000000 0.000000 0.000000
  endloop
 endfacet
 facet normal 0.000000 -1.000000 0.000000
  outer loop
   vertex 32.000000 0.000000 20.000000
   vertex 22.000000 0.000000 20.000000
   vertex 32.000000 0.000000 0.000000
  endloop
 endfacet
 facet normal 0.000000 0.000000 -1.000000
  outer loop
   vertex 22.000000 0.000000 0.000000
   vertex 22.000000 10.000000 0.000000
   vertex 32.000000 0.000000 0.000000
  endloop
 endfacet
 facet normal 0.000000 0.000000 -1.000000
  outer loop
   vertex 32.000000 0.000000 0.000000
   vertex 22.000000 10.000000 0.000000
   vertex 32.000000 10.000000 0.000000
  endloop
 endfacet
 facet normal 0.000000 1.000000 0.000000
  outer loop
   vertex 22.000000 10.000000 0.000000
   vertex 22.000000 10.000000 10.000000
   vertex 32.000000 10.000000 0.000000
  endloop
 endfacet
 facet normal 0.000000 1.000000 0.000000
  outer loop
   vertex 32.000000 10.000000 0.000000
   vertex 22.000000 10.000000 10.000000
   vertex 32.000000 10.000000 10.000000
  endloop
 endfacet
 facet normal 0.000000 0.707107 0.707107
  outer loop
   vertex 32.000000 0.000000 20.000000
   vertex 32.000000 10.000000 10.000000
   vertex 22.000000 10.000000 10.000000
  endloop
 endfacet
 facet normal 0.000000 0.707107 0.707107
  outer loop
   vertex 22.000000 0.000000 20.000000
   vertex 32.000000 0.000000 20.000000
   vertex 22.000000 10.000000 10.000000
  endloop
 endfacet
 facet normal 1.000000 0.000000 0.000000
  outer loop
   vertex 32.000000 0.000000 20.000000
   vertex 32.000000 0.000000 0.000000
   vertex 32.000000 10.000000 0.000000
  endloop
 endfacet
 facet normal 1.000000 0.000000 0.000000
  outer loop
   vertex 32.000000 10.000000 10.000000
   vertex 32.000000 0.000000 20.000000
   vertex 32.000000 10.000000 0.000000
  endloop
 endfacet
 facet normal -1.000000 0.000000 0.000000
  outer loop
   vertex 33.000000 0.000000 0.000000
   vertex 33.000000 0.000000 30.000000
   vertex 33.000000 10.000000 0.000000
  endloop
 endfacet
 facet normal -1.000000 0.000000 0.000000
  outer loop
   vertex 33.000000 10.000000 0.000000
   vertex 33.000000 0.000000 30.000000
   vertex 33.000000 5.000000 25.000000
  endloop
 endfacet
 facet normal -1.000000 0.000000 0.000000
  outer loop
   vertex 33.000000 10.000000 0.000000
   vertex 33.000000 5.000000 25.000000
   vertex 33.000000 10.000000 30.000000
  endloop
 endfacet
 facet normal 0.000000 -1.000000 0.000000
  outer loop
   vertex 33.000000 0.000000 30.000000
   vertex 33.000000 0.000000 0.000000
   vertex 43.000000 0.000000 0.000000
  endloop
 endfacet
 facet normal 0.000000 -1.000000 0.000000
  outer loop
   vertex 43.000000 0.000000 30.000000
   vertex 33.000000 0.000000 30.000000
   vertex 43.000000 0.000000 0.000000
  endloop
 endfacet
 facet normal 0.000000 0.000000 -1.000000
  outer loop
   vertex 33.000000 0.000000 0.000000
   vertex 33.000000 10.000000 0.000000
   vertex 43.000000 0.000000 0.000000
  endloop
 endfacet
 facet normal 0.000000 0.000000 -1.000000
  outer loop
   vertex 43.000000 0.000000 0.000000
   vertex 33.000000 10.000000 0.000000
   vertex 43.000000 10.000000 0.000000
  endloop
 endfacet
 facet normal 0.000000 1.000000 0.000000
  outer loop
   vertex 33.000000 10.000000 0.000000
   vertex 33.000000 10.000000 30.000000
   vertex 43.000000 10.000000 0.000000
  endloop
 endfacet
 facet normal 0.000000 1.000000 0.000000
  outer loop
   vertex 43.000000 10.000000 0.000000
   vertex 33.000000 10.000000 30.000000
   vertex 43.000000 10.000000 30.000000
  endloop
 endfacet
 facet normal 0.000000 -0.707107 0.707107
  outer loop
   vertex 43.000000 5.000000 25.000000
   vertex 43.000000 10.000000 30.000000
   vertex 33.000000 10.000000 30.000000
  endloop
 endfacet
 facet normal 0.000000 -0.707107 0.707107
  outer loop
   vertex 33.000000 5.000000 25.000000
   vertex 43.000000 5.000000 25.000000
   vertex 33.000000 10.000000 30.000000
  endloop
 endfacet
 facet normal 0.000000 0.707107 0.707107
  outer loop
   vertex 43.000000 0.000000 30.000000
   vertex 43.000000 5.000000 25.000000
   vertex 33.000000 5.000000 25.000000
  endloop
 endfacet
 facet normal 0.000000 0.707107 0.707107
  outer loop
   vertex 33.000000 0.000000 30.000000
   vertex 43.000000 0.000000 30.000000
   vertex 33.000000 5.000000 25.000000
  endloop
 endfacet
 facet normal 1.000000 0.000000 0.000000
  outer loop
   vertex 43.000000 0.000000 30.000000
   vertex 43.000000 0.000000 0.000000
   vertex 43.000000 10.000000 0.000000
  endloop
 endfacet
 facet normal 1.000000 0.000000 0.000000
  outer loop
   vertex 43.000000 5.000000 25.000000
   vertex 43.000000 0.000000 30.000000
   vertex 43.000000 10.000000 0.000000
  endloop
 endfacet
 facet normal 1.000000 0.000000 0.000000
  outer loop
   vertex 43.000000 10.000000 30.000000
   vertex 43.000000 5.000000 25.000000
   vertex 43.000000 10.000000 0.000000
  endloop
 endfacet
 facet normal -1.000000 0.000000 0.000000
  outer loop
   vertex 44.000000 0.000000 30.000000
   vertex 44.000000 5.000000 35.000000
   vertex 44.000000 10.000000 30.000000
  endloop
 endfacet
 facet normal -1.000000 0.000000 0.000000
  outer loop
   vertex 44.000000 0.000000 30.000000
   vertex 44.000000 10.000000 30.000000
   vertex 44.000000 10.000000 0.000000
  endloop
 endfacet
 facet normal -1.000000 0.000000 0.000000
  outer loop
   vertex 44.000000 0.000000 30.000000
   vertex 44.000000 10.000000 0.000000
   vertex 44.000000 0.000000 0.000000
  endloop
 endfacet
 facet normal 0.000000 -0.707107 0.707107
  outer loop
   vertex 44.000000 5.000000 35.000000
   vertex 44.000000 0.000000 30.000000
   vertex 54.000000 0.000000 30.000000
  endloop
 endfacet
 facet normal 0.000000 -0.707107 0.707107
  outer loop
   vertex 54.000000 5.000000 35.000000
   vertex 44.000000 5.000000 35.000000
   vertex 54.000000 0.000000 30.000000
  endloop
 endfacet
 facet normal 0.000000 -1.000000 0.000000
  outer loop
   vertex 44.000000 0.000000 30.000000
   vertex 44.000000 0.000000 0.000000
   vertex 54.000000 0.000000 0.000000
  endloop
 endfacet
 facet normal 0.000000 -1.000000 0.000000
  outer loop
   vertex 54.000000 0.000000 30.000000
   vertex 44.000000 0.000000 30.000000
   vertex 54.000000 0.000000 0.000000
  endloop
 endfacet
 facet normal 0.000000 0.000000 -1.000000
  outer loop
   vertex 44.000000 0.000000 0.000000
   vertex 44.000000 10.000000 0.000000
   vertex 54.000000 0.000000 0.000000
  endloop
 endfacet
 facet normal 0.000000 0.000000 -1.000000
  outer loop
   vertex 54.000000 0.000000 0.000000
   vertex 44.000000 10.000000 0.000000
   vertex 54.000000 10.000000 0.000000
  endloop
 endfacet
 facet normal 0.000000 1.000000 0.000000
  outer loop
   vertex 44.000000 10.000000 0.000000
   vertex 44.000000 10.000000 30.000000
   vertex 54.000000 10.000000 0.000000
  endloop
 endfacet
 facet normal 0.000000 1.000000 0.000000
  outer loop
   vertex 54.000000 10.000000 0.000000
   vertex 44.000000 10.000000 30.000000
   vertex 54.000000 10.000000 30.000000
  endloop
 endfacet
 facet normal 0.000000 0.707107 0.707107
  outer loop
   vertex 44.000000 10.000000 30.000000
   vertex 44.000000 5.000000 35.000000
   vertex 54.000000 5.000000 35.000000
  endloop
 endfacet
 facet normal 0.000000 0.707107 0.707107
  outer loop
   vertex 54.000000 10.000000 30.000000
   vertex 44.000000 10.000000 30.000000
   vertex 54.000000 5.000000 35.000000
  endloop
 endfacet
 facet normal 1.000000 0.000000 0.000000
  outer loop
   vertex 54.000000 0.000000 0.000000
   vertex 54.000000 5.000000 35.000000
   vertex 54.000000 0.000000 30.000000
  endloop
 endfacet
 facet normal 1.000000 0.000000 0.000000
  outer loop
   vertex 54.000000 0.000000 0.000000
   vertex 54.000000 10.000000 0.000000
   vertex 54.000000 5.000000 35.000000
  endloop
 endfacet
 facet normal 1.000000 0.000000 0.000000
  outer loop
   vertex 54.000000 10.000000 0.000000
   vertex 54.000000 10.000000 30.000000
   vertex 54.000000 5.000000 35.000000
  endloop
 endfacet
 facet normal -1.000000 0.000000 0.000000
  outer loop
   vertex 55.000000 0.000000 0.000000
   vertex 55.000000 0.000000 20.000000
   vertex 55.000000 10.000000 0.000000
  endloop
 endfacet
 facet normal -1.000000 0.000000 0.000000
  outer loop
   vertex 55.000000 10.000000 0.000000
   vertex 55.000000 0.000000 20.000000
   vertex 55.000000 10.000000 10.000000
  endloop
 endfacet
 facet normal 0.000000 -1.000000 0.000000
  outer loop
   vertex 55.000000 0.000000 20.000000
   vertex 55.000000 0.000000 0.000000
   vertex 65.000000 0.000000 0.000000
  endloop
 endfacet
 facet normal 0.000000 -1.000000 0.000000
  outer loop
   vertex 65.000000 0.000000 20.000000
   vertex 55.000000 0.000000 20.000000
   vertex 65.000000 0.000000 0.000000
  endloop
 endfacet
 facet normal 0.000000 0.000000 -1.000000
  outer loop
   vertex 55.000000 0.000000 0.000000
   vertex 55.000000 10.000000 0.000000
   vertex 65.000000 0.000000 0.000000
  endloop
 endfacet
 facet normal 0.000000 0.000000 -1.000000
  outer loop
   vertex 65.000000 0.000000 0.000000
   vertex 55.000000 10.000000 0.000000
   vertex 65.000000 10.000000 0.000000
  endloop
 endfacet
 facet normal 0.000000 1.000000 0.000000
  outer loop
   vertex 55.000000 10.000000 0.000000
   vertex 55.000000 10.000000 10.000000
   vertex 65.000000 10.000000 0.000000
  endloop
 endfacet
 facet normal 0.000000 1.000000 0.000000
  outer loop
   vertex 65.000000 10.000000 0.000000
   vertex 55.000000 10.000000 10.000000
   vertex 65.000000 10.000000 10.000000
  endloop
 endfacet
 facet normal 0.000000 0.707107 0.707107
  outer loop
   vertex 65.000000 0.000000 20.000000
   vertex 65.000000 10.000000 10.000000
   vertex 55.000000 10.000000 10.000000
  endloop
 endfacet
 facet normal 0.000000 0.707107 0.707107
  outer loop
   vertex 55.000000 0.000000 20.000000
   vertex 65.000000 0.000000 20.000000
   vertex 55.000000 10.000000 10.000000
  endloop
 endfacet
 facet normal 1.000000 0.000000 0.000000
  outer loop
   vertex 65.000000 0.000000 20.000000
   vertex 65.000000 0.000000 0.000000
   vertex 65.000000 10.000000 0.000000
  endloop
 endfacet
 facet normal 1.000000 0.000000 0.000000
  outer loop
   vertex 65.000000 10.000000 10.000000
   vertex 65.000000 0.000000 20.000000
   vertex 65.000000 10.000000 0.000000
  endloop
 endfacet
 facet normal -1.000000 0.000000 0.000000
  outer loop
   vertex 66.000000 0.000000 0.000000
   vertex 66.000000 5.000000 10.000000
   vertex 66.000000 10.000000 0.000000
  endloop
 endfacet
 facet normal -1.000000 0.000000 0.000000
  outer loop
   vertex 66.000000 5.000000 10.000000
   vertex 66.000000 0.000000 20.000000
   vertex 66.000000 5.000000 20.000000
  endloop
 endfacet
 facet normal -1.000000 0.000000 0.000000
  outer loop
   vertex 66.000000 0.000000 0.000000
   vertex 66.000000 0.000000 20.000000
   vertex 66.000000 5.000000 10.000000
  endloop
 endfacet
 facet normal -1.000000 0.000000 0.000000
  outer loop
   vertex 66.000000 10.000000 10.000000
   vertex 66.000000 10.000000 0.000000
   vertex 66.000000 5.000000 10.000000
  endloop
 endfacet
 facet normal 0.000000 -1.000000 0.000000
  outer loop
   vertex 66.000000 0.000000 20.000000
   vertex 66.000000 0.000000 0.000000
   vertex 76.000000 0.000000 0.000000
  endloop
 endfacet
 facet normal 0.000000 -1.000000 0.000000
  outer loop
   vertex 76.000000 0.000000 20.000000
   vertex 66.000000 0.000000 20.000000
   vertex 76.000000 0.000000 0.000000
  endloop
 endfacet
 facet normal 0.000000 0.000000 -1.000000
  outer loop
   vertex 66.000000 0.000000 0.000000
   vertex 66.000000 10.000000 0.000000
   vertex 76.000000 0.000000 0.000000
  endloop
 endfacet
 facet normal 0.000000 0.000000 -1.000000
  outer loop
   vertex 76.000000 0.000000 0.000000
   vertex 66.000000 10.000000 0.000000
   vertex 76.000000 10.000000 0.000000
  endloop
 endfacet
 facet normal 0.000000 1.000000 0.000000
  outer loop
   vertex 66.000000 10.000000 0.000000
   vertex 66.000000 10.000000 10.000000
   vertex 76.000000 10.000000 0.000000
  endloop
 endfacet
 facet normal 0.000000 1.000000 0.000000
  outer loop
   vertex 76.000000 10.000000 0.000000
   vertex 66.000000 10.000000 10.000000
   vertex 76.000000 10.000000 10.000000
  endloop
 endfacet
 facet normal 0.000000 0.000000 1.000000
  outer loop
   vertex 76.000000 5.000000 10.000000
   vertex 76.000000 10.000000 10.000000
   vertex 66.000000 10.000000 10.000000
  endloop
 endfacet
 facet normal 0.000000 0.000000 1.000000
  outer loop
   vertex 66.000000 5.000000 10.000000
   vertex 76.000000 5.000000 10.000000
   vertex 66.000000 10.000000 10.000000
  endloop
 endfacet
 facet normal 0.000000 1.000000 0.000000
  outer loop
   vertex 76.000000 5.000000 20.000000
   vertex 76.000000 5.000000 10.000000
   vertex 66.000000 5.000000 20.000000
  endloop
 endfacet
 facet normal 0.000000 1.000000 0.000000
  outer loop
   vertex 66.000000 5.000000 20.000000
   vertex 76.000000 5.000000 10.000000
   vertex 66.000000 5.000000 10.000000
  endloop
 endfacet
 facet normal 0.000000 0.000000 1.000000
  outer loop
   vertex 66.000000 5.000000 20.000000
   vertex 66.000000 0.000000 20.000000
   vertex 76.000000 0.000000 20.000000
  endloop
 endfacet
 facet normal 0.000000 0.000000 1.000000
  outer loop
   vertex 76.000000 5.000000 20.000000
   vertex 66.000000 5.000000 20.000000
   vertex 76.000000 0.000000 20.000000
  endloop
 endfacet
 facet normal 1.000000 0.000000 0.000000
  outer loop
   vertex 76.000000 5.000000 10.000000
   vertex 76.000000 0.000000 0.000000
   vertex 76.000000 10.000000 0.000000
  endloop
 endfacet
 facet normal 1.000000 0.000000 0.000000
  outer loop
   vertex 76.000000 5.000000 10.000000
   vertex 76.000000 0.000000 20.000000
   vertex 76.000000 0.000000 0.000000
  endloop
 endfacet
 facet normal 1.000000 0.000000 0.000000
  outer loop
   vertex 76.000000 10.000000 10.000000
   vertex 76.000000 5.000000 10.000000
   vertex 76.000000 10.000000 0.000000
  endloop
 endfacet
 facet normal 1.000000 0.000000 0.000000
  outer loop
   vertex 76.000000 5.000000 10.000000
   vertex 76.000000 5.000000 20.000000
   vertex 76.000000 0.000000 20.000000
  endloop
 endfacet
 facet normal -1.000000 0.000000 0.000000
  outer loop
   vertex 77.000000 0.000000 0.000000
   vertex 77.000000 0.000000 20.000000
   vertex 77.000000 10.000000 0.000000
  endloop
 endfacet
 facet normal -1.000000 0.000000 0.000000
  outer loop
   vertex 77.000000 10.000000 0.000000
   vertex 77.000000 0.000000 20.000000
   vertex 77.000000 10.000000 20.000000
  endloop
 endfacet
 facet normal 0.000000 -1.000000 0.000000
  outer loop
   vertex 77.000000 0.000000 20.000000
   vertex 77.000000 0.000000 0.000000
   vertex 87.000000 0.000000 0.000000
  endloop
 endfacet
 facet normal 0.000000 -1.000000 0.000000
  outer loop
   vertex 87.000000 0.000000 20.000000
   vertex 77.000000 0.000000 20.000000
   vertex 87.000000 0.000000 0.000000
  endloop
 endfacet
 facet normal 0.000000 0.000000 -1.000000
  outer loop
   vertex 77.000000 0.000000 0.000000
   vertex 77.000000 10.000000 0.000000
   vertex 87.000000 0.000000 0.000000
  endloop
 endfacet
 facet normal 0.000000 0.000000 -1.000000
  outer loop
   vertex 87.000000 0.000000 0.000000
   vertex 77.000000 10.000000 0.000000
   vertex 87.000000 10.000000 0.000000
  endloop
 endfacet
 facet normal 0.000000 1.000000 0.000000
  outer loop
   vertex 77.000000 10.000000 0.000000
   vertex 77.000000 10.000000 20.000000
   vertex 87.000000 10.000000 0.000000
  endloop
 endfacet
 facet normal 0.000000 1.000000 0.000000
  outer loop
   vertex 87.000000 10.000000 0.000000
   vertex 77.000000 10.000000 20.000000
   vertex 87.000000 10.000000 20.000000
  endloop
 endfacet
 facet normal 0.000000 0.000000 1.000000
  outer loop
   vertex 77.000000 10.000000 20.000000
   vertex 77.000000 0.000000 20.000000
   vertex 87.000000 0.000000 20.000000
  endloop
 endfacet
 facet normal 0.000000 0.000000 1.000000
  outer loop
   vertex 87.000000 10.000000 20.000000
   vertex 77.000000 10.000000 20.000000
   vertex 87.000000 0.000000 20.000000
  endloop
 endfacet
 facet normal 1.000000 0.000000 0.000000
  outer loop
   vertex 87.000000 0.000000 20.000000
   vertex 87.000000 0.000000 0.000000
   vertex 87.000000 10.000000 0.000000
  endloop
 endfacet
 facet normal 1.000000 0.000000 0.000000
  outer loop
   vertex 87.000000 10.000000 20.000000
   vertex 87.000000 0.000000 20.000000
   vertex 87.000000 10.000000 0.000000
  endloop
 endfacet
endsolid Lanier Graham Chess Set
