solid OpenSCAD_Model
  facet normal 0 0 1
    outer loop
      vertex 13 6 1
      vertex 12 6 1
      vertex 13 4 1
    endloop
  endfacet
  facet normal 0 0 1
    outer loop
      vertex 14 4 1
      vertex 13 4 1
      vertex 14 2 1
    endloop
  endfacet
  facet normal -0 0 1
    outer loop
      vertex 14 2 1
      vertex 15 0 1
      vertex 15 2 1
    endloop
  endfacet
  facet normal 0 0 1
    outer loop
      vertex 12 1 1
      vertex 14 2 1
      vertex 13 4 1
    endloop
  endfacet
  facet normal 0 0 1
    outer loop
      vertex 10 2 1
      vertex 13 4 1
      vertex 12 6 1
    endloop
  endfacet
  facet normal 0 0 1
    outer loop
      vertex 14 2 1
      vertex 12 1 1
      vertex 15 0 1
    endloop
  endfacet
  facet normal 0 0 1
    outer loop
      vertex 15 0 1
      vertex 12 1 1
      vertex 12 0 1
    endloop
  endfacet
  facet normal -0 0 1
    outer loop
      vertex 2 4 1
      vertex 5 2 1
      vertex 3 6 1
    endloop
  endfacet
  facet normal 0 -0 1
    outer loop
      vertex 3 1 1
      vertex 5 2 1
      vertex 2 4 1
    endloop
  endfacet
  facet normal 0 0 1
    outer loop
      vertex 5 2 1
      vertex 3 1 1
      vertex 5 1 1
    endloop
  endfacet
  facet normal 0 0 1
    outer loop
      vertex 2 4 1
      vertex 3 6 1
      vertex 2 6 1
    endloop
  endfacet
  facet normal -0 0 1
    outer loop
      vertex 1 2 1
      vertex 3 1 1
      vertex 2 4 1
    endloop
  endfacet
  facet normal 0 0 1
    outer loop
      vertex 1 2 1
      vertex 2 4 1
      vertex 1 4 1
    endloop
  endfacet
  facet normal 0 0 1
    outer loop
      vertex 3 1 1
      vertex 1 2 1
      vertex 3 0 1
    endloop
  endfacet
  facet normal 0 0 1
    outer loop
      vertex 0 0 1
      vertex 1 2 1
      vertex 0 2 1
    endloop
  endfacet
  facet normal 0 0 1
    outer loop
      vertex 1 2 1
      vertex 0 0 1
      vertex 3 0 1
    endloop
  endfacet
  facet normal 0 0 1
    outer loop
      vertex 3 7 1
      vertex 2 8 1
      vertex 2 7 1
    endloop
  endfacet
  facet normal 0 0 1
    outer loop
      vertex 2 8 1
      vertex 1 9 1
      vertex 1 8 1
    endloop
  endfacet
  facet normal 0 0 1
    outer loop
      vertex 6 13 1
      vertex 7 15 1
      vertex 6 15 1
    endloop
  endfacet
  facet normal 0 0 1
    outer loop
      vertex 7 15 1
      vertex 6 13 1
      vertex 7 10 1
    endloop
  endfacet
  facet normal 0 0 1
    outer loop
      vertex 6 13 1
      vertex 6 10 1
      vertex 7 10 1
    endloop
  endfacet
  facet normal -0 0 1
    outer loop
      vertex 5 11 1
      vertex 6 10 1
      vertex 6 13 1
    endloop
  endfacet
  facet normal 0 0 1
    outer loop
      vertex 5 11 1
      vertex 6 13 1
      vertex 5 13 1
    endloop
  endfacet
  facet normal 0 0 1
    outer loop
      vertex 7 15 1
      vertex 8 15 1
      vertex 8 16 1
    endloop
  endfacet
  facet normal 0 0 1
    outer loop
      vertex 8 15 1
      vertex 7 15 1
      vertex 8 10 1
    endloop
  endfacet
  facet normal 0 0 1
    outer loop
      vertex 8 10 1
      vertex 7 10 1
      vertex 8 7 1
    endloop
  endfacet
  facet normal 0 0 1
    outer loop
      vertex 7 15 1
      vertex 8 16 1
      vertex 7 16 1
    endloop
  endfacet
  facet normal 0 0 1
    outer loop
      vertex 8 10 1
      vertex 7 15 1
      vertex 7 10 1
    endloop
  endfacet
  facet normal 0 0 1
    outer loop
      vertex 7 7 1
      vertex 8 7 1
      vertex 7 10 1
    endloop
  endfacet
  facet normal 0 0 1
    outer loop
      vertex 8 7 1
      vertex 7 7 1
      vertex 8 3 1
    endloop
  endfacet
  facet normal 0 0 1
    outer loop
      vertex 7 7 1
      vertex 7 3 1
      vertex 8 3 1
    endloop
  endfacet
  facet normal -0 0 1
    outer loop
      vertex 6 7 1
      vertex 7 3 1
      vertex 7 7 1
    endloop
  endfacet
  facet normal -0 0 1
    outer loop
      vertex 3 6 1
      vertex 7 3 1
      vertex 6 7 1
    endloop
  endfacet
  facet normal 0 0 1
    outer loop
      vertex 3 7 1
      vertex 6 10 1
      vertex 5 11 1
    endloop
  endfacet
  facet normal 0 0 1
    outer loop
      vertex 6 10 1
      vertex 3 7 1
      vertex 6 7 1
    endloop
  endfacet
  facet normal 0 0 1
    outer loop
      vertex 3 6 1
      vertex 6 7 1
      vertex 3 7 1
    endloop
  endfacet
  facet normal 0 0 1
    outer loop
      vertex 7 3 1
      vertex 5 2 1
      vertex 7 2 1
    endloop
  endfacet
  facet normal 0 0 1
    outer loop
      vertex 7 3 1
      vertex 3 6 1
      vertex 5 2 1
    endloop
  endfacet
  facet normal 0 0 1
    outer loop
      vertex 5 11 1
      vertex 2 8 1
      vertex 3 7 1
    endloop
  endfacet
  facet normal 0 0 1
    outer loop
      vertex 5 11 1
      vertex 1 9 1
      vertex 2 8 1
    endloop
  endfacet
  facet normal -0 0 1
    outer loop
      vertex 0 11 1
      vertex 1 9 1
      vertex 5 11 1
    endloop
  endfacet
  facet normal 0 0 1
    outer loop
      vertex 1 9 1
      vertex 0 11 1
      vertex 0 9 1
    endloop
  endfacet
  facet normal 0 0 1
    outer loop
      vertex 15 11 1
      vertex 14 9 1
      vertex 15 9 1
    endloop
  endfacet
  facet normal 0 0 1
    outer loop
      vertex 14 9 1
      vertex 13 8 1
      vertex 14 8 1
    endloop
  endfacet
  facet normal -0 0 1
    outer loop
      vertex 10 11 1
      vertex 14 9 1
      vertex 15 11 1
    endloop
  endfacet
  facet normal 0 0 1
    outer loop
      vertex 13 8 1
      vertex 12 7 1
      vertex 13 7 1
    endloop
  endfacet
  facet normal 0 0 1
    outer loop
      vertex 14 9 1
      vertex 10 11 1
      vertex 13 8 1
    endloop
  endfacet
  facet normal -0 0 1
    outer loop
      vertex 9 7 1
      vertex 12 6 1
      vertex 12 7 1
    endloop
  endfacet
  facet normal 0 0 1
    outer loop
      vertex 13 8 1
      vertex 10 11 1
      vertex 12 7 1
    endloop
  endfacet
  facet normal -0 0 1
    outer loop
      vertex 9 10 1
      vertex 12 7 1
      vertex 10 11 1
    endloop
  endfacet
  facet normal 0 0 1
    outer loop
      vertex 8 3 1
      vertex 12 6 1
      vertex 9 7 1
    endloop
  endfacet
  facet normal 0 0 1
    outer loop
      vertex 12 1 1
      vertex 10 2 1
      vertex 10 1 1
    endloop
  endfacet
  facet normal -0 0 1
    outer loop
      vertex 9 13 1
      vertex 10 11 1
      vertex 10 13 1
    endloop
  endfacet
  facet normal 0 0 1
    outer loop
      vertex 10 11 1
      vertex 9 13 1
      vertex 9 10 1
    endloop
  endfacet
  facet normal 0 0 1
    outer loop
      vertex 12 7 1
      vertex 9 10 1
      vertex 9 7 1
    endloop
  endfacet
  facet normal 0 0 1
    outer loop
      vertex 13 4 1
      vertex 10 2 1
      vertex 12 1 1
    endloop
  endfacet
  facet normal 0 0 1
    outer loop
      vertex 8 3 1
      vertex 9 7 1
      vertex 8 7 1
    endloop
  endfacet
  facet normal 0 0 1
    outer loop
      vertex 12 6 1
      vertex 8 3 1
      vertex 10 2 1
    endloop
  endfacet
  facet normal 0 0 1
    outer loop
      vertex 10 2 1
      vertex 8 3 1
      vertex 8 2 1
    endloop
  endfacet
  facet normal -0 0 1
    outer loop
      vertex 8 15 1
      vertex 9 13 1
      vertex 9 15 1
    endloop
  endfacet
  facet normal 0 0 1
    outer loop
      vertex 8 10 1
      vertex 9 13 1
      vertex 8 15 1
    endloop
  endfacet
  facet normal 0 0 1
    outer loop
      vertex 9 13 1
      vertex 8 10 1
      vertex 9 10 1
    endloop
  endfacet
  facet normal 0 0 -1
    outer loop
      vertex 15 0 0
      vertex 14 2 0
      vertex 15 2 0
    endloop
  endfacet
  facet normal 0 0 -1
    outer loop
      vertex 14 2 0
      vertex 13 4 0
      vertex 14 4 0
    endloop
  endfacet
  facet normal 0 0 -1
    outer loop
      vertex 12 1 0
      vertex 14 2 0
      vertex 15 0 0
    endloop
  endfacet
  facet normal 0 0 -1
    outer loop
      vertex 12 1 0
      vertex 15 0 0
      vertex 12 0 0
    endloop
  endfacet
  facet normal -0 0 -1
    outer loop
      vertex 14 2 0
      vertex 12 1 0
      vertex 13 4 0
    endloop
  endfacet
  facet normal 0 0 -1
    outer loop
      vertex 10 2 0
      vertex 13 4 0
      vertex 12 1 0
    endloop
  endfacet
  facet normal 0 0 -1
    outer loop
      vertex 13 4 0
      vertex 12 6 0
      vertex 13 6 0
    endloop
  endfacet
  facet normal -0 0 -1
    outer loop
      vertex 13 4 0
      vertex 10 2 0
      vertex 12 6 0
    endloop
  endfacet
  facet normal 0 0 -1
    outer loop
      vertex 10 2 0
      vertex 12 1 0
      vertex 10 1 0
    endloop
  endfacet
  facet normal 0 0 -1
    outer loop
      vertex 13 7 0
      vertex 12 7 0
      vertex 13 8 0
    endloop
  endfacet
  facet normal 0 0 -1
    outer loop
      vertex 14 8 0
      vertex 13 8 0
      vertex 14 9 0
    endloop
  endfacet
  facet normal 0 0 -1
    outer loop
      vertex 14 9 0
      vertex 15 11 0
      vertex 15 9 0
    endloop
  endfacet
  facet normal 0 0 -1
    outer loop
      vertex 10 11 0
      vertex 14 9 0
      vertex 13 8 0
    endloop
  endfacet
  facet normal 0 0 -1
    outer loop
      vertex 10 11 0
      vertex 13 8 0
      vertex 12 7 0
    endloop
  endfacet
  facet normal 0 0 -1
    outer loop
      vertex 8 3 0
      vertex 12 6 0
      vertex 10 2 0
    endloop
  endfacet
  facet normal 0 0 -1
    outer loop
      vertex 14 9 0
      vertex 10 11 0
      vertex 15 11 0
    endloop
  endfacet
  facet normal -0 0 -1
    outer loop
      vertex 12 6 0
      vertex 8 3 0
      vertex 12 7 0
    endloop
  endfacet
  facet normal -0 0 -1
    outer loop
      vertex 12 7 0
      vertex 8 3 0
      vertex 10 11 0
    endloop
  endfacet
  facet normal 0 0 -1
    outer loop
      vertex 5 11 0
      vertex 10 11 0
      vertex 8 3 0
    endloop
  endfacet
  facet normal 0 0 -1
    outer loop
      vertex 8 3 0
      vertex 10 2 0
      vertex 8 2 0
    endloop
  endfacet
  facet normal 0 0 -1
    outer loop
      vertex 10 11 0
      vertex 9 13 0
      vertex 10 13 0
    endloop
  endfacet
  facet normal 0 0 -1
    outer loop
      vertex 10 11 0
      vertex 5 11 0
      vertex 9 13 0
    endloop
  endfacet
  facet normal 0 -0 -1
    outer loop
      vertex 6 13 0
      vertex 9 13 0
      vertex 5 11 0
    endloop
  endfacet
  facet normal 0 0 -1
    outer loop
      vertex 9 13 0
      vertex 8 15 0
      vertex 9 15 0
    endloop
  endfacet
  facet normal 0 0 -1
    outer loop
      vertex 5 11 0
      vertex 8 3 0
      vertex 7 3 0
    endloop
  endfacet
  facet normal 0 -0 -1
    outer loop
      vertex 7 15 0
      vertex 8 15 0
      vertex 6 13 0
    endloop
  endfacet
  facet normal -0 0 -1
    outer loop
      vertex 8 16 0
      vertex 7 15 0
      vertex 7 16 0
    endloop
  endfacet
  facet normal 0 0 -1
    outer loop
      vertex 5 2 0
      vertex 7 3 0
      vertex 7 2 0
    endloop
  endfacet
  facet normal 0 0 -1
    outer loop
      vertex 8 15 0
      vertex 7 15 0
      vertex 8 16 0
    endloop
  endfacet
  facet normal -0 0 -1
    outer loop
      vertex 7 3 0
      vertex 5 2 0
      vertex 3 6 0
    endloop
  endfacet
  facet normal 0 -0 -1
    outer loop
      vertex 8 15 0
      vertex 9 13 0
      vertex 6 13 0
    endloop
  endfacet
  facet normal -0 0 -1
    outer loop
      vertex 6 13 0
      vertex 5 11 0
      vertex 5 13 0
    endloop
  endfacet
  facet normal -0 0 -1
    outer loop
      vertex 7 15 0
      vertex 6 13 0
      vertex 6 15 0
    endloop
  endfacet
  facet normal 0 0 -1
    outer loop
      vertex 3 1 0
      vertex 5 2 0
      vertex 5 1 0
    endloop
  endfacet
  facet normal -0 0 -1
    outer loop
      vertex 5 2 0
      vertex 3 1 0
      vertex 2 4 0
    endloop
  endfacet
  facet normal 0 0 -1
    outer loop
      vertex 7 3 0
      vertex 3 6 0
      vertex 3 7 0
    endloop
  endfacet
  facet normal 0 0 -1
    outer loop
      vertex 7 3 0
      vertex 3 7 0
      vertex 5 11 0
    endloop
  endfacet
  facet normal 0 0 -1
    outer loop
      vertex 2 8 0
      vertex 3 7 0
      vertex 2 7 0
    endloop
  endfacet
  facet normal 0 0 -1
    outer loop
      vertex 3 7 0
      vertex 2 8 0
      vertex 5 11 0
    endloop
  endfacet
  facet normal 0 0 -1
    outer loop
      vertex 1 9 0
      vertex 2 8 0
      vertex 1 8 0
    endloop
  endfacet
  facet normal 0 0 -1
    outer loop
      vertex 2 8 0
      vertex 1 9 0
      vertex 5 11 0
    endloop
  endfacet
  facet normal 0 0 -1
    outer loop
      vertex 0 11 0
      vertex 1 9 0
      vertex 0 9 0
    endloop
  endfacet
  facet normal 0 0 -1
    outer loop
      vertex 1 9 0
      vertex 0 11 0
      vertex 5 11 0
    endloop
  endfacet
  facet normal 0 0 -1
    outer loop
      vertex 1 2 0
      vertex 3 1 0
      vertex 3 0 0
    endloop
  endfacet
  facet normal 0 0 -1
    outer loop
      vertex 5 2 0
      vertex 2 4 0
      vertex 3 6 0
    endloop
  endfacet
  facet normal 0 0 -1
    outer loop
      vertex 3 1 0
      vertex 1 2 0
      vertex 2 4 0
    endloop
  endfacet
  facet normal 0 0 -1
    outer loop
      vertex 0 0 0
      vertex 1 2 0
      vertex 3 0 0
    endloop
  endfacet
  facet normal -0 0 -1
    outer loop
      vertex 1 2 0
      vertex 0 0 0
      vertex 0 2 0
    endloop
  endfacet
  facet normal -0 0 -1
    outer loop
      vertex 3 6 0
      vertex 2 4 0
      vertex 2 6 0
    endloop
  endfacet
  facet normal -0 0 -1
    outer loop
      vertex 2 4 0
      vertex 1 2 0
      vertex 1 4 0
    endloop
  endfacet
  facet normal -1 0 0
    outer loop
      vertex 6 13 0
      vertex 6 15 1
      vertex 6 15 0
    endloop
  endfacet
  facet normal -1 -0 0
    outer loop
      vertex 6 15 1
      vertex 6 13 0
      vertex 6 13 1
    endloop
  endfacet
  facet normal 0 1 -0
    outer loop
      vertex 9 15 0
      vertex 8 15 1
      vertex 9 15 1
    endloop
  endfacet
  facet normal 0 1 0
    outer loop
      vertex 8 15 1
      vertex 9 15 0
      vertex 8 15 0
    endloop
  endfacet
  facet normal 0 1 -0
    outer loop
      vertex 7 15 0
      vertex 6 15 1
      vertex 7 15 1
    endloop
  endfacet
  facet normal 0 1 0
    outer loop
      vertex 6 15 1
      vertex 7 15 0
      vertex 6 15 0
    endloop
  endfacet
  facet normal 1 -0 0
    outer loop
      vertex 9 13 1
      vertex 9 15 0
      vertex 9 15 1
    endloop
  endfacet
  facet normal 1 0 0
    outer loop
      vertex 9 15 0
      vertex 9 13 1
      vertex 9 13 0
    endloop
  endfacet
  facet normal 0 1 -0
    outer loop
      vertex 10 13 0
      vertex 9 13 1
      vertex 10 13 1
    endloop
  endfacet
  facet normal 0 1 0
    outer loop
      vertex 9 13 1
      vertex 10 13 0
      vertex 9 13 0
    endloop
  endfacet
  facet normal 0 1 -0
    outer loop
      vertex 6 13 0
      vertex 5 13 1
      vertex 6 13 1
    endloop
  endfacet
  facet normal 0 1 0
    outer loop
      vertex 5 13 1
      vertex 6 13 0
      vertex 5 13 0
    endloop
  endfacet
  facet normal -1 0 0
    outer loop
      vertex 5 11 0
      vertex 5 13 1
      vertex 5 13 0
    endloop
  endfacet
  facet normal -1 -0 0
    outer loop
      vertex 5 13 1
      vertex 5 11 0
      vertex 5 11 1
    endloop
  endfacet
  facet normal 1 -0 0
    outer loop
      vertex 10 11 1
      vertex 10 13 0
      vertex 10 13 1
    endloop
  endfacet
  facet normal 1 0 0
    outer loop
      vertex 10 13 0
      vertex 10 11 1
      vertex 10 11 0
    endloop
  endfacet
  facet normal 0 1 -0
    outer loop
      vertex 15 11 0
      vertex 10 11 1
      vertex 15 11 1
    endloop
  endfacet
  facet normal 0 1 0
    outer loop
      vertex 10 11 1
      vertex 15 11 0
      vertex 10 11 0
    endloop
  endfacet
  facet normal 0 1 -0
    outer loop
      vertex 5 11 0
      vertex 0 11 1
      vertex 5 11 1
    endloop
  endfacet
  facet normal 0 1 0
    outer loop
      vertex 0 11 1
      vertex 5 11 0
      vertex 0 11 0
    endloop
  endfacet
  facet normal -1 0 0
    outer loop
      vertex 0 9 0
      vertex 0 11 1
      vertex 0 11 0
    endloop
  endfacet
  facet normal -1 -0 0
    outer loop
      vertex 0 11 1
      vertex 0 9 0
      vertex 0 9 1
    endloop
  endfacet
  facet normal 1 -0 0
    outer loop
      vertex 15 9 1
      vertex 15 11 0
      vertex 15 11 1
    endloop
  endfacet
  facet normal 1 0 0
    outer loop
      vertex 15 11 0
      vertex 15 9 1
      vertex 15 9 0
    endloop
  endfacet
  facet normal 0 -1 0
    outer loop
      vertex 14 9 0
      vertex 15 9 1
      vertex 14 9 1
    endloop
  endfacet
  facet normal 0 -1 -0
    outer loop
      vertex 15 9 1
      vertex 14 9 0
      vertex 15 9 0
    endloop
  endfacet
  facet normal 0 -1 0
    outer loop
      vertex 0 9 0
      vertex 1 9 1
      vertex 0 9 1
    endloop
  endfacet
  facet normal 0 -1 -0
    outer loop
      vertex 1 9 1
      vertex 0 9 0
      vertex 1 9 0
    endloop
  endfacet
  facet normal -1 0 0
    outer loop
      vertex 1 8 0
      vertex 1 9 1
      vertex 1 9 0
    endloop
  endfacet
  facet normal -1 -0 0
    outer loop
      vertex 1 9 1
      vertex 1 8 0
      vertex 1 8 1
    endloop
  endfacet
  facet normal 0 -1 0
    outer loop
      vertex 13 8 0
      vertex 14 8 1
      vertex 13 8 1
    endloop
  endfacet
  facet normal 0 -1 -0
    outer loop
      vertex 14 8 1
      vertex 13 8 0
      vertex 14 8 0
    endloop
  endfacet
  facet normal 0 -1 0
    outer loop
      vertex 1 8 0
      vertex 2 8 1
      vertex 1 8 1
    endloop
  endfacet
  facet normal 0 -1 -0
    outer loop
      vertex 2 8 1
      vertex 1 8 0
      vertex 2 8 0
    endloop
  endfacet
  facet normal 1 -0 0
    outer loop
      vertex 14 8 1
      vertex 14 9 0
      vertex 14 9 1
    endloop
  endfacet
  facet normal 1 0 0
    outer loop
      vertex 14 9 0
      vertex 14 8 1
      vertex 14 8 0
    endloop
  endfacet
  facet normal -1 0 0
    outer loop
      vertex 2 7 0
      vertex 2 8 1
      vertex 2 8 0
    endloop
  endfacet
  facet normal -1 -0 0
    outer loop
      vertex 2 8 1
      vertex 2 7 0
      vertex 2 7 1
    endloop
  endfacet
  facet normal 0 -1 0
    outer loop
      vertex 12 7 0
      vertex 13 7 1
      vertex 12 7 1
    endloop
  endfacet
  facet normal 0 -1 -0
    outer loop
      vertex 13 7 1
      vertex 12 7 0
      vertex 13 7 0
    endloop
  endfacet
  facet normal 0 -1 0
    outer loop
      vertex 2 7 0
      vertex 3 7 1
      vertex 2 7 1
    endloop
  endfacet
  facet normal 0 -1 -0
    outer loop
      vertex 3 7 1
      vertex 2 7 0
      vertex 3 7 0
    endloop
  endfacet
  facet normal 1 -0 0
    outer loop
      vertex 13 7 1
      vertex 13 8 0
      vertex 13 8 1
    endloop
  endfacet
  facet normal 1 0 0
    outer loop
      vertex 13 8 0
      vertex 13 7 1
      vertex 13 7 0
    endloop
  endfacet
  facet normal -1 0 0
    outer loop
      vertex 3 6 0
      vertex 3 7 1
      vertex 3 7 0
    endloop
  endfacet
  facet normal -1 -0 0
    outer loop
      vertex 3 7 1
      vertex 3 6 0
      vertex 3 6 1
    endloop
  endfacet
  facet normal 0 1 -0
    outer loop
      vertex 13 6 0
      vertex 12 6 1
      vertex 13 6 1
    endloop
  endfacet
  facet normal 0 1 0
    outer loop
      vertex 12 6 1
      vertex 13 6 0
      vertex 12 6 0
    endloop
  endfacet
  facet normal 0 1 -0
    outer loop
      vertex 3 6 0
      vertex 2 6 1
      vertex 3 6 1
    endloop
  endfacet
  facet normal 0 1 0
    outer loop
      vertex 2 6 1
      vertex 3 6 0
      vertex 2 6 0
    endloop
  endfacet
  facet normal 1 -0 0
    outer loop
      vertex 12 6 1
      vertex 12 7 0
      vertex 12 7 1
    endloop
  endfacet
  facet normal 1 0 0
    outer loop
      vertex 12 7 0
      vertex 12 6 1
      vertex 12 6 0
    endloop
  endfacet
  facet normal -1 0 0
    outer loop
      vertex 2 4 0
      vertex 2 6 1
      vertex 2 6 0
    endloop
  endfacet
  facet normal -1 -0 0
    outer loop
      vertex 2 6 1
      vertex 2 4 0
      vertex 2 4 1
    endloop
  endfacet
  facet normal 1 -0 0
    outer loop
      vertex 13 4 1
      vertex 13 6 0
      vertex 13 6 1
    endloop
  endfacet
  facet normal 1 0 0
    outer loop
      vertex 13 6 0
      vertex 13 4 1
      vertex 13 4 0
    endloop
  endfacet
  facet normal 0 1 -0
    outer loop
      vertex 14 4 0
      vertex 13 4 1
      vertex 14 4 1
    endloop
  endfacet
  facet normal 0 1 0
    outer loop
      vertex 13 4 1
      vertex 14 4 0
      vertex 13 4 0
    endloop
  endfacet
  facet normal 0 1 -0
    outer loop
      vertex 2 4 0
      vertex 1 4 1
      vertex 2 4 1
    endloop
  endfacet
  facet normal 0 1 0
    outer loop
      vertex 1 4 1
      vertex 2 4 0
      vertex 1 4 0
    endloop
  endfacet
  facet normal -1 0 0
    outer loop
      vertex 1 2 0
      vertex 1 4 1
      vertex 1 4 0
    endloop
  endfacet
  facet normal -1 -0 0
    outer loop
      vertex 1 4 1
      vertex 1 2 0
      vertex 1 2 1
    endloop
  endfacet
  facet normal 0 -1 0
    outer loop
      vertex 7 3 0
      vertex 8 3 1
      vertex 7 3 1
    endloop
  endfacet
  facet normal 0 -1 -0
    outer loop
      vertex 8 3 1
      vertex 7 3 0
      vertex 8 3 0
    endloop
  endfacet
  facet normal 1 -0 0
    outer loop
      vertex 14 2 1
      vertex 14 4 0
      vertex 14 4 1
    endloop
  endfacet
  facet normal 1 0 0
    outer loop
      vertex 14 4 0
      vertex 14 2 1
      vertex 14 2 0
    endloop
  endfacet
  facet normal 0 -1 0
    outer loop
      vertex 5 2 0
      vertex 7 2 1
      vertex 5 2 1
    endloop
  endfacet
  facet normal 0 -1 -0
    outer loop
      vertex 7 2 1
      vertex 5 2 0
      vertex 7 2 0
    endloop
  endfacet
  facet normal 0 1 -0
    outer loop
      vertex 1 2 0
      vertex 0 2 1
      vertex 1 2 1
    endloop
  endfacet
  facet normal 0 1 0
    outer loop
      vertex 0 2 1
      vertex 1 2 0
      vertex 0 2 0
    endloop
  endfacet
  facet normal 1 -0 0
    outer loop
      vertex 7 2 1
      vertex 7 3 0
      vertex 7 3 1
    endloop
  endfacet
  facet normal 1 0 0
    outer loop
      vertex 7 3 0
      vertex 7 2 1
      vertex 7 2 0
    endloop
  endfacet
  facet normal -1 0 0
    outer loop
      vertex 8 2 0
      vertex 8 3 1
      vertex 8 3 0
    endloop
  endfacet
  facet normal -1 -0 0
    outer loop
      vertex 8 3 1
      vertex 8 2 0
      vertex 8 2 1
    endloop
  endfacet
  facet normal 0 1 -0
    outer loop
      vertex 15 2 0
      vertex 14 2 1
      vertex 15 2 1
    endloop
  endfacet
  facet normal 0 1 0
    outer loop
      vertex 14 2 1
      vertex 15 2 0
      vertex 14 2 0
    endloop
  endfacet
  facet normal 0 -1 0
    outer loop
      vertex 8 2 0
      vertex 10 2 1
      vertex 8 2 1
    endloop
  endfacet
  facet normal 0 -1 -0
    outer loop
      vertex 10 2 1
      vertex 8 2 0
      vertex 10 2 0
    endloop
  endfacet
  facet normal -1 0 0
    outer loop
      vertex 0 0 0
      vertex 0 2 1
      vertex 0 2 0
    endloop
  endfacet
  facet normal -1 -0 0
    outer loop
      vertex 0 2 1
      vertex 0 0 0
      vertex 0 0 1
    endloop
  endfacet
  facet normal 0 -1 0
    outer loop
      vertex 3 1 0
      vertex 5 1 1
      vertex 3 1 1
    endloop
  endfacet
  facet normal 0 -1 -0
    outer loop
      vertex 5 1 1
      vertex 3 1 0
      vertex 5 1 0
    endloop
  endfacet
  facet normal 1 -0 0
    outer loop
      vertex 5 1 1
      vertex 5 2 0
      vertex 5 2 1
    endloop
  endfacet
  facet normal 1 0 0
    outer loop
      vertex 5 2 0
      vertex 5 1 1
      vertex 5 1 0
    endloop
  endfacet
  facet normal -1 0 0
    outer loop
      vertex 10 1 0
      vertex 10 2 1
      vertex 10 2 0
    endloop
  endfacet
  facet normal -1 -0 0
    outer loop
      vertex 10 2 1
      vertex 10 1 0
      vertex 10 1 1
    endloop
  endfacet
  facet normal 0 -1 0
    outer loop
      vertex 10 1 0
      vertex 12 1 1
      vertex 10 1 1
    endloop
  endfacet
  facet normal 0 -1 -0
    outer loop
      vertex 12 1 1
      vertex 10 1 0
      vertex 12 1 0
    endloop
  endfacet
  facet normal 1 -0 0
    outer loop
      vertex 15 0 1
      vertex 15 2 0
      vertex 15 2 1
    endloop
  endfacet
  facet normal 1 0 0
    outer loop
      vertex 15 2 0
      vertex 15 0 1
      vertex 15 0 0
    endloop
  endfacet
  facet normal 0 -1 0
    outer loop
      vertex 0 0 0
      vertex 3 0 1
      vertex 0 0 1
    endloop
  endfacet
  facet normal 0 -1 -0
    outer loop
      vertex 3 0 1
      vertex 0 0 0
      vertex 3 0 0
    endloop
  endfacet
  facet normal 1 -0 0
    outer loop
      vertex 3 0 1
      vertex 3 1 0
      vertex 3 1 1
    endloop
  endfacet
  facet normal 1 0 0
    outer loop
      vertex 3 1 0
      vertex 3 0 1
      vertex 3 0 0
    endloop
  endfacet
  facet normal -1 0 0
    outer loop
      vertex 12 0 0
      vertex 12 1 1
      vertex 12 1 0
    endloop
  endfacet
  facet normal -1 -0 0
    outer loop
      vertex 12 1 1
      vertex 12 0 0
      vertex 12 0 1
    endloop
  endfacet
  facet normal 0 -1 0
    outer loop
      vertex 12 0 0
      vertex 15 0 1
      vertex 12 0 1
    endloop
  endfacet
  facet normal 0 -1 -0
    outer loop
      vertex 15 0 1
      vertex 12 0 0
      vertex 15 0 0
    endloop
  endfacet
  facet normal 1 -0 0
    outer loop
      vertex 8 15 1
      vertex 8 16 0
      vertex 8 16 1
    endloop
  endfacet
  facet normal 1 0 0
    outer loop
      vertex 8 16 0
      vertex 8 15 1
      vertex 8 15 0
    endloop
  endfacet
  facet normal -1 0 0
    outer loop
      vertex 7 15 0
      vertex 7 16 1
      vertex 7 16 0
    endloop
  endfacet
  facet normal -1 -0 0
    outer loop
      vertex 7 16 1
      vertex 7 15 0
      vertex 7 15 1
    endloop
  endfacet
  facet normal 0 1 -0
    outer loop
      vertex 8 16 0
      vertex 7 16 1
      vertex 8 16 1
    endloop
  endfacet
  facet normal 0 1 0
    outer loop
      vertex 7 16 1
      vertex 8 16 0
      vertex 7 16 0
    endloop
  endfacet
  facet normal 1 -0 0
    outer loop
      vertex 7 7 2
      vertex 7 10 1
      vertex 7 10 2
    endloop
  endfacet
  facet normal 1 0 0
    outer loop
      vertex 7 10 1
      vertex 7 7 2
      vertex 7 7 1
    endloop
  endfacet
  facet normal -0 0 1
    outer loop
      vertex 6 10 2
      vertex 7 7 2
      vertex 7 10 2
    endloop
  endfacet
  facet normal 0 0 1
    outer loop
      vertex 7 7 2
      vertex 6 10 2
      vertex 6 7 2
    endloop
  endfacet
  facet normal -1 0 0
    outer loop
      vertex 6 7 1
      vertex 6 10 2
      vertex 6 10 1
    endloop
  endfacet
  facet normal -1 -0 0
    outer loop
      vertex 6 10 2
      vertex 6 7 1
      vertex 6 7 2
    endloop
  endfacet
  facet normal 0 1 -0
    outer loop
      vertex 7 10 1
      vertex 6 10 2
      vertex 7 10 2
    endloop
  endfacet
  facet normal 0 1 0
    outer loop
      vertex 6 10 2
      vertex 7 10 1
      vertex 6 10 1
    endloop
  endfacet
  facet normal 1 -0 0
    outer loop
      vertex 9 7 2
      vertex 9 10 1
      vertex 9 10 2
    endloop
  endfacet
  facet normal 1 0 0
    outer loop
      vertex 9 10 1
      vertex 9 7 2
      vertex 9 7 1
    endloop
  endfacet
  facet normal -0 0 1
    outer loop
      vertex 8 10 2
      vertex 9 7 2
      vertex 9 10 2
    endloop
  endfacet
  facet normal 0 0 1
    outer loop
      vertex 9 7 2
      vertex 8 10 2
      vertex 8 7 2
    endloop
  endfacet
  facet normal -1 0 0
    outer loop
      vertex 8 7 1
      vertex 8 10 2
      vertex 8 10 1
    endloop
  endfacet
  facet normal -1 -0 0
    outer loop
      vertex 8 10 2
      vertex 8 7 1
      vertex 8 7 2
    endloop
  endfacet
  facet normal 0 1 -0
    outer loop
      vertex 9 10 1
      vertex 8 10 2
      vertex 9 10 2
    endloop
  endfacet
  facet normal 0 1 0
    outer loop
      vertex 8 10 2
      vertex 9 10 1
      vertex 8 10 1
    endloop
  endfacet
  facet normal 0 -1 0
    outer loop
      vertex 6 7 1
      vertex 7 7 2
      vertex 6 7 2
    endloop
  endfacet
  facet normal 0 -1 -0
    outer loop
      vertex 7 7 2
      vertex 6 7 1
      vertex 7 7 1
    endloop
  endfacet
  facet normal 0 -1 0
    outer loop
      vertex 8 7 1
      vertex 9 7 2
      vertex 8 7 2
    endloop
  endfacet
  facet normal 0 -1 -0
    outer loop
      vertex 9 7 2
      vertex 8 7 1
      vertex 9 7 1
    endloop
  endfacet
endsolid OpenSCAD_Model
