solid OpenSCAD_Model
  facet normal -1 0 0
    outer loop
      vertex 13 19 0
      vertex 13 20 3
      vertex 13 20 0
    endloop
  endfacet
  facet normal -1 -0 0
    outer loop
      vertex 13 20 3
      vertex 13 19 0
      vertex 13 19 3
    endloop
  endfacet
  facet normal 0 0 1
    outer loop
      vertex 13 20 3
      vertex 19 21 3
      vertex 19 22 3
    endloop
  endfacet
  facet normal 0 0 1
    outer loop
      vertex 15 16 3
      vertex 14 14 3
      vertex 15 15 3
    endloop
  endfacet
  facet normal 0 0 1
    outer loop
      vertex 12 19 3
      vertex 14 12 3
      vertex 14 14 3
    endloop
  endfacet
  facet normal 0 0 1
    outer loop
      vertex 14 12 3
      vertex 13 8 3
      vertex 14 11 3
    endloop
  endfacet
  facet normal -0 0 1
    outer loop
      vertex 12 19 3
      vertex 15 16 3
      vertex 13 19 3
    endloop
  endfacet
  facet normal 0 0 1
    outer loop
      vertex 19 21 3
      vertex 13 19 3
      vertex 15 16 3
    endloop
  endfacet
  facet normal 0 0 1
    outer loop
      vertex 19 21 3
      vertex 13 20 3
      vertex 13 19 3
    endloop
  endfacet
  facet normal -0 0 1
    outer loop
      vertex 11 22 3
      vertex 13 20 3
      vertex 19 22 3
    endloop
  endfacet
  facet normal 0 0 1
    outer loop
      vertex 10 21 3
      vertex 12 19 3
      vertex 12 20 3
    endloop
  endfacet
  facet normal 0 0 1
    outer loop
      vertex 12 19 3
      vertex 10 14 3
      vertex 12 6 3
    endloop
  endfacet
  facet normal 0 0 1
    outer loop
      vertex 13 20 3
      vertex 11 22 3
      vertex 12 20 3
    endloop
  endfacet
  facet normal -0 0 1
    outer loop
      vertex 11 21 3
      vertex 12 20 3
      vertex 11 22 3
    endloop
  endfacet
  facet normal -0 0 1
    outer loop
      vertex 10 21 3
      vertex 12 20 3
      vertex 11 21 3
    endloop
  endfacet
  facet normal -0 0 1
    outer loop
      vertex 9 13 3
      vertex 12 6 3
      vertex 10 14 3
    endloop
  endfacet
  facet normal -0 0 1
    outer loop
      vertex 8 12 3
      vertex 12 6 3
      vertex 9 13 3
    endloop
  endfacet
  facet normal 0 0 1
    outer loop
      vertex 12 19 3
      vertex 10 21 3
      vertex 10 14 3
    endloop
  endfacet
  facet normal -0 0 1
    outer loop
      vertex 19 21 3
      vertex 20 16 3
      vertex 20 21 3
    endloop
  endfacet
  facet normal 0 0 1
    outer loop
      vertex 20 16 3
      vertex 19 21 3
      vertex 15 16 3
    endloop
  endfacet
  facet normal -0 0 1
    outer loop
      vertex 15 15 3
      vertex 18 14 3
      vertex 18 15 3
    endloop
  endfacet
  facet normal 0 0 1
    outer loop
      vertex 18 14 3
      vertex 15 15 3
      vertex 14 14 3
    endloop
  endfacet
  facet normal 0 0 1
    outer loop
      vertex 16 12 3
      vertex 15 11 3
      vertex 16 10 3
    endloop
  endfacet
  facet normal -0 0 1
    outer loop
      vertex 14 12 3
      vertex 15 11 3
      vertex 16 12 3
    endloop
  endfacet
  facet normal 0 0 1
    outer loop
      vertex 15 11 3
      vertex 14 12 3
      vertex 14 11 3
    endloop
  endfacet
  facet normal 0 0 1
    outer loop
      vertex 16 10 3
      vertex 15 11 3
      vertex 15 10 3
    endloop
  endfacet
  facet normal 0 0 1
    outer loop
      vertex 15 16 3
      vertex 12 19 3
      vertex 14 14 3
    endloop
  endfacet
  facet normal 0 0 1
    outer loop
      vertex 14 11 3
      vertex 13 8 3
      vertex 14 8 3
    endloop
  endfacet
  facet normal 0 0 1
    outer loop
      vertex 14 12 3
      vertex 12 19 3
      vertex 13 8 3
    endloop
  endfacet
  facet normal 0 0 1
    outer loop
      vertex 12 6 3
      vertex 13 8 3
      vertex 12 19 3
    endloop
  endfacet
  facet normal 0 0 1
    outer loop
      vertex 13 8 3
      vertex 12 6 3
      vertex 13 6 3
    endloop
  endfacet
  facet normal -0 0 1
    outer loop
      vertex 11 1 3
      vertex 12 0 3
      vertex 12 1 3
    endloop
  endfacet
  facet normal 0 -0 1
    outer loop
      vertex 11 5 3
      vertex 12 6 3
      vertex 8 12 3
    endloop
  endfacet
  facet normal 0 0 1
    outer loop
      vertex 11 5 3
      vertex 10 3 3
      vertex 11 1 3
    endloop
  endfacet
  facet normal 0 0 1
    outer loop
      vertex 11 1 3
      vertex 10 0 3
      vertex 12 0 3
    endloop
  endfacet
  facet normal 0 0 1
    outer loop
      vertex 10 0 3
      vertex 11 1 3
      vertex 10 3 3
    endloop
  endfacet
  facet normal 0 0 1
    outer loop
      vertex 8 12 3
      vertex 9 13 3
      vertex 8 13 3
    endloop
  endfacet
  facet normal -0 0 1
    outer loop
      vertex 6 11 3
      vertex 11 5 3
      vertex 8 12 3
    endloop
  endfacet
  facet normal 0 -0 1
    outer loop
      vertex 8 4 3
      vertex 11 5 3
      vertex 6 11 3
    endloop
  endfacet
  facet normal 0 0 1
    outer loop
      vertex 6 11 3
      vertex 8 12 3
      vertex 6 12 3
    endloop
  endfacet
  facet normal 0 0 1
    outer loop
      vertex 11 5 3
      vertex 8 4 3
      vertex 9 4 3
    endloop
  endfacet
  facet normal 0 0 1
    outer loop
      vertex 5 10 3
      vertex 6 11 3
      vertex 5 11 3
    endloop
  endfacet
  facet normal 0 0 1
    outer loop
      vertex 6 11 3
      vertex 5 10 3
      vertex 8 4 3
    endloop
  endfacet
  facet normal -0 0 1
    outer loop
      vertex 4 5 3
      vertex 8 4 3
      vertex 5 10 3
    endloop
  endfacet
  facet normal 0 0 1
    outer loop
      vertex 8 4 3
      vertex 4 5 3
      vertex 5 4 3
    endloop
  endfacet
  facet normal 0 0 1
    outer loop
      vertex 3 6 3
      vertex 5 10 3
      vertex 3 10 3
    endloop
  endfacet
  facet normal 0 0 1
    outer loop
      vertex 5 10 3
      vertex 3 6 3
      vertex 4 5 3
    endloop
  endfacet
  facet normal 0 0 1
    outer loop
      vertex 4 5 3
      vertex 3 6 3
      vertex 3 5 3
    endloop
  endfacet
  facet normal 0 0 1
    outer loop
      vertex 9 13 3
      vertex 10 14 3
      vertex 9 14 3
    endloop
  endfacet
  facet normal 0 0 1
    outer loop
      vertex 12 6 3
      vertex 11 5 3
      vertex 12 5 3
    endloop
  endfacet
  facet normal 0 0 1
    outer loop
      vertex 11 5 3
      vertex 9 4 3
      vertex 10 3 3
    endloop
  endfacet
  facet normal 0 0 1
    outer loop
      vertex 10 3 3
      vertex 9 4 3
      vertex 9 3 3
    endloop
  endfacet
  facet normal 0 0 1
    outer loop
      vertex 5 4 3
      vertex 4 5 3
      vertex 4 4 3
    endloop
  endfacet
  facet normal -0 0 1
    outer loop
      vertex 2 11 3
      vertex 3 10 3
      vertex 3 11 3
    endloop
  endfacet
  facet normal 0 0 1
    outer loop
      vertex 3 10 3
      vertex 2 11 3
      vertex 1 8 3
    endloop
  endfacet
  facet normal 0 0 1
    outer loop
      vertex 3 10 3
      vertex 2 7 3
      vertex 3 6 3
    endloop
  endfacet
  facet normal 0 0 1
    outer loop
      vertex 3 6 3
      vertex 2 7 3
      vertex 2 6 3
    endloop
  endfacet
  facet normal -0 0 1
    outer loop
      vertex 1 12 3
      vertex 2 11 3
      vertex 2 12 3
    endloop
  endfacet
  facet normal 0 0 1
    outer loop
      vertex 0 8 3
      vertex 2 11 3
      vertex 1 12 3
    endloop
  endfacet
  facet normal 0 0 1
    outer loop
      vertex 3 10 3
      vertex 1 8 3
      vertex 2 7 3
    endloop
  endfacet
  facet normal 0 0 1
    outer loop
      vertex 2 7 3
      vertex 1 8 3
      vertex 1 7 3
    endloop
  endfacet
  facet normal -0 0 1
    outer loop
      vertex 0 14 3
      vertex 1 12 3
      vertex 1 14 3
    endloop
  endfacet
  facet normal 0 0 1
    outer loop
      vertex 0 8 3
      vertex 1 12 3
      vertex 0 14 3
    endloop
  endfacet
  facet normal 0 0 1
    outer loop
      vertex 2 11 3
      vertex 0 8 3
      vertex 1 8 3
    endloop
  endfacet
  facet normal 0 0 -1
    outer loop
      vertex 7 2 0
      vertex 6 2 0
      vertex 7 3 0
    endloop
  endfacet
  facet normal 0 0 -1
    outer loop
      vertex 13 8 0
      vertex 14 11 0
      vertex 14 8 0
    endloop
  endfacet
  facet normal 0 0 -1
    outer loop
      vertex 10 14 0
      vertex 14 11 0
      vertex 13 8 0
    endloop
  endfacet
  facet normal 0 0 -1
    outer loop
      vertex 14 11 0
      vertex 10 14 0
      vertex 14 12 0
    endloop
  endfacet
  facet normal 0 0 -1
    outer loop
      vertex 15 11 0
      vertex 16 10 0
      vertex 15 10 0
    endloop
  endfacet
  facet normal 0 0 -1
    outer loop
      vertex 16 10 0
      vertex 15 11 0
      vertex 16 12 0
    endloop
  endfacet
  facet normal 0 0 -1
    outer loop
      vertex 14 12 0
      vertex 15 11 0
      vertex 14 11 0
    endloop
  endfacet
  facet normal 0 0 -1
    outer loop
      vertex 15 11 0
      vertex 14 12 0
      vertex 16 12 0
    endloop
  endfacet
  facet normal 0 0 -1
    outer loop
      vertex 18 14 0
      vertex 15 15 0
      vertex 18 15 0
    endloop
  endfacet
  facet normal -0 0 -1
    outer loop
      vertex 15 15 0
      vertex 14 14 0
      vertex 15 16 0
    endloop
  endfacet
  facet normal 0 0 -1
    outer loop
      vertex 14 14 0
      vertex 15 15 0
      vertex 18 14 0
    endloop
  endfacet
  facet normal 0 0 -1
    outer loop
      vertex 20 16 0
      vertex 19 21 0
      vertex 20 21 0
    endloop
  endfacet
  facet normal 0 0 -1
    outer loop
      vertex 15 16 0
      vertex 19 21 0
      vertex 20 16 0
    endloop
  endfacet
  facet normal 0 0 -1
    outer loop
      vertex 13 19 0
      vertex 19 21 0
      vertex 15 16 0
    endloop
  endfacet
  facet normal 0 0 -1
    outer loop
      vertex 14 12 0
      vertex 10 14 0
      vertex 14 14 0
    endloop
  endfacet
  facet normal 0 0 -1
    outer loop
      vertex 12 19 0
      vertex 15 16 0
      vertex 14 14 0
    endloop
  endfacet
  facet normal 0 0 -1
    outer loop
      vertex 13 20 0
      vertex 19 21 0
      vertex 13 19 0
    endloop
  endfacet
  facet normal -0 0 -1
    outer loop
      vertex 19 21 0
      vertex 13 20 0
      vertex 19 22 0
    endloop
  endfacet
  facet normal 0 0 -1
    outer loop
      vertex 11 22 0
      vertex 13 20 0
      vertex 12 20 0
    endloop
  endfacet
  facet normal 0 0 -1
    outer loop
      vertex 10 21 0
      vertex 12 19 0
      vertex 10 14 0
    endloop
  endfacet
  facet normal 0 0 -1
    outer loop
      vertex 11 22 0
      vertex 12 20 0
      vertex 11 21 0
    endloop
  endfacet
  facet normal 0 0 -1
    outer loop
      vertex 13 20 0
      vertex 11 22 0
      vertex 19 22 0
    endloop
  endfacet
  facet normal 0 0 -1
    outer loop
      vertex 6 11 0
      vertex 11 5 0
      vertex 8 4 0
    endloop
  endfacet
  facet normal 0 0 -1
    outer loop
      vertex 11 5 0
      vertex 8 12 0
      vertex 9 13 0
    endloop
  endfacet
  facet normal -0 0 -1
    outer loop
      vertex 9 13 0
      vertex 8 12 0
      vertex 8 13 0
    endloop
  endfacet
  facet normal 0 0 -1
    outer loop
      vertex 9 4 0
      vertex 11 5 0
      vertex 11 4 0
    endloop
  endfacet
  facet normal 0 0 -1
    outer loop
      vertex 12 19 0
      vertex 10 21 0
      vertex 12 20 0
    endloop
  endfacet
  facet normal 0 0 -1
    outer loop
      vertex 8 4 0
      vertex 11 5 0
      vertex 9 4 0
    endloop
  endfacet
  facet normal 0 0 -1
    outer loop
      vertex 11 5 0
      vertex 9 13 0
      vertex 10 14 0
    endloop
  endfacet
  facet normal -0 0 -1
    outer loop
      vertex 10 14 0
      vertex 9 13 0
      vertex 9 14 0
    endloop
  endfacet
  facet normal 0 0 -1
    outer loop
      vertex 12 20 0
      vertex 10 21 0
      vertex 11 21 0
    endloop
  endfacet
  facet normal 0 0 -1
    outer loop
      vertex 7 3 0
      vertex 8 4 0
      vertex 8 3 0
    endloop
  endfacet
  facet normal -0 0 -1
    outer loop
      vertex 8 4 0
      vertex 7 3 0
      vertex 5 4 0
    endloop
  endfacet
  facet normal 0 0 -1
    outer loop
      vertex 5 4 0
      vertex 7 3 0
      vertex 6 2 0
    endloop
  endfacet
  facet normal 0 0 -1
    outer loop
      vertex 4 5 0
      vertex 8 4 0
      vertex 5 4 0
    endloop
  endfacet
  facet normal -0 0 -1
    outer loop
      vertex 8 12 0
      vertex 6 11 0
      vertex 6 12 0
    endloop
  endfacet
  facet normal 0 0 -1
    outer loop
      vertex 4 5 0
      vertex 5 4 0
      vertex 4 4 0
    endloop
  endfacet
  facet normal 0 0 -1
    outer loop
      vertex 8 4 0
      vertex 4 5 0
      vertex 5 10 0
    endloop
  endfacet
  facet normal 0 0 -1
    outer loop
      vertex 3 6 0
      vertex 4 5 0
      vertex 3 5 0
    endloop
  endfacet
  facet normal 0 0 -1
    outer loop
      vertex 4 5 0
      vertex 3 6 0
      vertex 5 10 0
    endloop
  endfacet
  facet normal 0 0 -1
    outer loop
      vertex 3 6 0
      vertex 3 10 0
      vertex 5 10 0
    endloop
  endfacet
  facet normal 0 0 -1
    outer loop
      vertex 2 7 0
      vertex 3 10 0
      vertex 3 6 0
    endloop
  endfacet
  facet normal 0 0 -1
    outer loop
      vertex 2 7 0
      vertex 3 6 0
      vertex 2 6 0
    endloop
  endfacet
  facet normal 0 0 -1
    outer loop
      vertex 1 8 0
      vertex 3 10 0
      vertex 2 7 0
    endloop
  endfacet
  facet normal 0 -0 -1
    outer loop
      vertex 2 11 0
      vertex 3 10 0
      vertex 1 8 0
    endloop
  endfacet
  facet normal 0 0 -1
    outer loop
      vertex 3 10 0
      vertex 2 11 0
      vertex 3 11 0
    endloop
  endfacet
  facet normal 0 0 -1
    outer loop
      vertex 1 8 0
      vertex 2 7 0
      vertex 1 7 0
    endloop
  endfacet
  facet normal 0 0 -1
    outer loop
      vertex 0 8 0
      vertex 2 11 0
      vertex 1 8 0
    endloop
  endfacet
  facet normal 0 0 -1
    outer loop
      vertex 2 11 0
      vertex 1 12 0
      vertex 2 12 0
    endloop
  endfacet
  facet normal -0 0 -1
    outer loop
      vertex 2 11 0
      vertex 0 8 0
      vertex 1 12 0
    endloop
  endfacet
  facet normal 0 0 -1
    outer loop
      vertex 0 14 0
      vertex 1 12 0
      vertex 0 8 0
    endloop
  endfacet
  facet normal 0 0 -1
    outer loop
      vertex 1 12 0
      vertex 0 14 0
      vertex 1 14 0
    endloop
  endfacet
  facet normal 0 0 -1
    outer loop
      vertex 7 0 0
      vertex 6 1 0
      vertex 7 1 0
    endloop
  endfacet
  facet normal 0 0 -1
    outer loop
      vertex 5 0 0
      vertex 6 2 0
      vertex 6 1 0
    endloop
  endfacet
  facet normal 0 0 -1
    outer loop
      vertex 5 0 0
      vertex 6 1 0
      vertex 7 0 0
    endloop
  endfacet
  facet normal -0 0 -1
    outer loop
      vertex 6 2 0
      vertex 5 0 0
      vertex 5 4 0
    endloop
  endfacet
  facet normal 0 0 -1
    outer loop
      vertex 11 5 0
      vertex 6 11 0
      vertex 8 12 0
    endloop
  endfacet
  facet normal 0 0 -1
    outer loop
      vertex 8 4 0
      vertex 5 10 0
      vertex 6 11 0
    endloop
  endfacet
  facet normal -0 0 -1
    outer loop
      vertex 6 11 0
      vertex 5 10 0
      vertex 5 11 0
    endloop
  endfacet
  facet normal 0 0 -1
    outer loop
      vertex 11 5 0
      vertex 12 6 0
      vertex 12 5 0
    endloop
  endfacet
  facet normal 0 0 -1
    outer loop
      vertex 10 14 0
      vertex 12 6 0
      vertex 11 5 0
    endloop
  endfacet
  facet normal 0 0 -1
    outer loop
      vertex 15 16 0
      vertex 12 19 0
      vertex 13 19 0
    endloop
  endfacet
  facet normal 0 0 -1
    outer loop
      vertex 12 6 0
      vertex 13 8 0
      vertex 13 6 0
    endloop
  endfacet
  facet normal 0 0 -1
    outer loop
      vertex 10 14 0
      vertex 13 8 0
      vertex 12 6 0
    endloop
  endfacet
  facet normal 0 -0 -1
    outer loop
      vertex 12 19 0
      vertex 14 14 0
      vertex 10 14 0
    endloop
  endfacet
  facet normal 1 -0 0
    outer loop
      vertex 12 19 3
      vertex 12 20 0
      vertex 12 20 3
    endloop
  endfacet
  facet normal 1 0 0
    outer loop
      vertex 12 20 0
      vertex 12 19 3
      vertex 12 19 0
    endloop
  endfacet
  facet normal 0 -1 0
    outer loop
      vertex 12 20 0
      vertex 13 20 3
      vertex 12 20 3
    endloop
  endfacet
  facet normal 0 -1 -0
    outer loop
      vertex 13 20 3
      vertex 12 20 0
      vertex 13 20 0
    endloop
  endfacet
  facet normal 0 1 -0
    outer loop
      vertex 13 19 0
      vertex 12 19 3
      vertex 13 19 3
    endloop
  endfacet
  facet normal 0 1 0
    outer loop
      vertex 12 19 3
      vertex 13 19 0
      vertex 12 19 0
    endloop
  endfacet
  facet normal 1 -0 0
    outer loop
      vertex 16 10 1
      vertex 16 12 0
      vertex 16 12 1
    endloop
  endfacet
  facet normal 1 0 0
    outer loop
      vertex 16 12 0
      vertex 16 10 1
      vertex 16 10 0
    endloop
  endfacet
  facet normal 1 -0 0
    outer loop
      vertex 16 10 3
      vertex 16 12 2
      vertex 16 12 3
    endloop
  endfacet
  facet normal 1 0 0
    outer loop
      vertex 16 12 2
      vertex 16 10 3
      vertex 16 10 2
    endloop
  endfacet
  facet normal 0 0 -1
    outer loop
      vertex 15 11 2
      vertex 16 10 2
      vertex 15 10 2
    endloop
  endfacet
  facet normal 0 0 -1
    outer loop
      vertex 16 10 2
      vertex 15 11 2
      vertex 16 12 2
    endloop
  endfacet
  facet normal 0 0 -1
    outer loop
      vertex 14 12 2
      vertex 15 11 2
      vertex 14 11 2
    endloop
  endfacet
  facet normal 0 0 -1
    outer loop
      vertex 15 11 2
      vertex 14 12 2
      vertex 16 12 2
    endloop
  endfacet
  facet normal 0 0 1
    outer loop
      vertex 16 12 1
      vertex 15 11 1
      vertex 16 10 1
    endloop
  endfacet
  facet normal -0 0 1
    outer loop
      vertex 14 12 1
      vertex 15 11 1
      vertex 16 12 1
    endloop
  endfacet
  facet normal 0 0 1
    outer loop
      vertex 15 11 1
      vertex 14 12 1
      vertex 14 11 1
    endloop
  endfacet
  facet normal 0 0 1
    outer loop
      vertex 16 10 1
      vertex 15 11 1
      vertex 15 10 1
    endloop
  endfacet
  facet normal 1 0 0
    outer loop
      vertex 14 11 3
      vertex 14 10 2
      vertex 14 11 2
    endloop
  endfacet
  facet normal 1 0 0
    outer loop
      vertex 14 10 2
      vertex 14 8 3
      vertex 14 10 1
    endloop
  endfacet
  facet normal 1 -0 0
    outer loop
      vertex 14 8 3
      vertex 14 10 2
      vertex 14 11 3
    endloop
  endfacet
  facet normal 1 -0 0
    outer loop
      vertex 14 10 1
      vertex 14 11 0
      vertex 14 11 1
    endloop
  endfacet
  facet normal 1 0 0
    outer loop
      vertex 14 8 0
      vertex 14 10 1
      vertex 14 8 3
    endloop
  endfacet
  facet normal 1 0 0
    outer loop
      vertex 14 10 1
      vertex 14 8 0
      vertex 14 11 0
    endloop
  endfacet
  facet normal 1 -0 0
    outer loop
      vertex 14 11 2
      vertex 14 12 1
      vertex 14 12 2
    endloop
  endfacet
  facet normal 1 0 0
    outer loop
      vertex 14 11 2
      vertex 14 11 1
      vertex 14 12 1
    endloop
  endfacet
  facet normal 1 -0 0
    outer loop
      vertex 14 10 2
      vertex 14 11 1
      vertex 14 11 2
    endloop
  endfacet
  facet normal 1 0 0
    outer loop
      vertex 14 11 1
      vertex 14 10 2
      vertex 14 10 1
    endloop
  endfacet
  facet normal 0 1 -0
    outer loop
      vertex 16 12 0
      vertex 14 12 1
      vertex 16 12 1
    endloop
  endfacet
  facet normal 0 1 0
    outer loop
      vertex 14 12 1
      vertex 16 12 0
      vertex 14 12 0
    endloop
  endfacet
  facet normal 0 1 -0
    outer loop
      vertex 16 12 2
      vertex 14 12 3
      vertex 16 12 3
    endloop
  endfacet
  facet normal 0 1 0
    outer loop
      vertex 14 12 3
      vertex 16 12 2
      vertex 14 12 2
    endloop
  endfacet
  facet normal 0 -1 0
    outer loop
      vertex 15 10 0
      vertex 16 10 1
      vertex 15 10 1
    endloop
  endfacet
  facet normal 0 -1 -0
    outer loop
      vertex 16 10 1
      vertex 15 10 0
      vertex 16 10 0
    endloop
  endfacet
  facet normal 0 -1 0
    outer loop
      vertex 15 10 2
      vertex 16 10 3
      vertex 15 10 3
    endloop
  endfacet
  facet normal 0 -1 -0
    outer loop
      vertex 16 10 3
      vertex 15 10 2
      vertex 16 10 2
    endloop
  endfacet
  facet normal 1 -0 0
    outer loop
      vertex 8 3 1.5
      vertex 8 4 0
      vertex 8 4 1.5
    endloop
  endfacet
  facet normal 1 0 0
    outer loop
      vertex 8 4 0
      vertex 8 3 1.5
      vertex 8 3 0
    endloop
  endfacet
  facet normal 0 0 1
    outer loop
      vertex 8 4 1.5
      vertex 7 3 1.5
      vertex 8 3 1.5
    endloop
  endfacet
  facet normal 0 0 1
    outer loop
      vertex 7 3 1.5
      vertex 6 2 1.5
      vertex 7 2 1.5
    endloop
  endfacet
  facet normal -0 0 1
    outer loop
      vertex 5 4 1.5
      vertex 7 3 1.5
      vertex 8 4 1.5
    endloop
  endfacet
  facet normal 0 0 1
    outer loop
      vertex 5 0 1.5
      vertex 6 2 1.5
      vertex 5 4 1.5
    endloop
  endfacet
  facet normal 0 0 1
    outer loop
      vertex 7 3 1.5
      vertex 5 4 1.5
      vertex 6 2 1.5
    endloop
  endfacet
  facet normal -0 0 1
    outer loop
      vertex 6 1 1.5
      vertex 7 0 1.5
      vertex 7 1 1.5
    endloop
  endfacet
  facet normal 0 0 1
    outer loop
      vertex 6 1 1.5
      vertex 5 0 1.5
      vertex 7 0 1.5
    endloop
  endfacet
  facet normal 0 0 1
    outer loop
      vertex 6 2 1.5
      vertex 5 0 1.5
      vertex 6 1 1.5
    endloop
  endfacet
  facet normal -1 0 0
    outer loop
      vertex 5 0 0
      vertex 5 4 1.5
      vertex 5 4 0
    endloop
  endfacet
  facet normal -1 -0 0
    outer loop
      vertex 5 4 1.5
      vertex 5 0 0
      vertex 5 0 1.5
    endloop
  endfacet
  facet normal 0 -1 0
    outer loop
      vertex 5 4 1.5
      vertex 8 4 3
      vertex 5 4 3
    endloop
  endfacet
  facet normal 0 -1 -0
    outer loop
      vertex 8 4 3
      vertex 5 4 1.5
      vertex 8 4 1.5
    endloop
  endfacet
  facet normal 0 -1 0
    outer loop
      vertex 5 0 0
      vertex 7 0 1.5
      vertex 5 0 1.5
    endloop
  endfacet
  facet normal 0 -1 -0
    outer loop
      vertex 7 0 1.5
      vertex 5 0 0
      vertex 7 0 0
    endloop
  endfacet
  facet normal 1 -0 0
    outer loop
      vertex 12 0 3
      vertex 12 1 1.5
      vertex 12 1 3
    endloop
  endfacet
  facet normal 1 0 0
    outer loop
      vertex 12 1 1.5
      vertex 12 0 3
      vertex 12 0 1.5
    endloop
  endfacet
  facet normal 0 0 -1
    outer loop
      vertex 12 0 1.5
      vertex 11 1 1.5
      vertex 12 1 1.5
    endloop
  endfacet
  facet normal 0 0 -1
    outer loop
      vertex 10 0 1.5
      vertex 11 1 1.5
      vertex 12 0 1.5
    endloop
  endfacet
  facet normal 0 0 -1
    outer loop
      vertex 10 3 1.5
      vertex 11 1 1.5
      vertex 10 0 1.5
    endloop
  endfacet
  facet normal 0 0 -1
    outer loop
      vertex 11 1 1.5
      vertex 10 3 1.5
      vertex 11 4 1.5
    endloop
  endfacet
  facet normal 0 0 -1
    outer loop
      vertex 9 4 1.5
      vertex 10 3 1.5
      vertex 9 3 1.5
    endloop
  endfacet
  facet normal 0 0 -1
    outer loop
      vertex 10 3 1.5
      vertex 9 4 1.5
      vertex 11 4 1.5
    endloop
  endfacet
  facet normal -1 0 0
    outer loop
      vertex 9 3 1.5
      vertex 9 4 3
      vertex 9 4 1.5
    endloop
  endfacet
  facet normal -1 -0 0
    outer loop
      vertex 9 4 3
      vertex 9 3 1.5
      vertex 9 3 3
    endloop
  endfacet
  facet normal 0 -1 0
    outer loop
      vertex 9 4 0
      vertex 11 4 1.5
      vertex 9 4 1.5
    endloop
  endfacet
  facet normal 0 -1 -0
    outer loop
      vertex 11 4 1.5
      vertex 9 4 0
      vertex 11 4 0
    endloop
  endfacet
  facet normal 0 -1 0
    outer loop
      vertex 10 0 1.5
      vertex 12 0 3
      vertex 10 0 3
    endloop
  endfacet
  facet normal 0 -1 -0
    outer loop
      vertex 12 0 3
      vertex 10 0 1.5
      vertex 12 0 1.5
    endloop
  endfacet
  facet normal 0 1 -0
    outer loop
      vertex 7 1 0
      vertex 6 1 1.5
      vertex 7 1 1.5
    endloop
  endfacet
  facet normal 0 1 0
    outer loop
      vertex 6 1 1.5
      vertex 7 1 0
      vertex 6 1 0
    endloop
  endfacet
  facet normal 1 -0 0
    outer loop
      vertex 6 1 1.5
      vertex 6 2 0
      vertex 6 2 1.5
    endloop
  endfacet
  facet normal 1 0 0
    outer loop
      vertex 6 2 0
      vertex 6 1 1.5
      vertex 6 1 0
    endloop
  endfacet
  facet normal 0 -1 0
    outer loop
      vertex 6 2 0
      vertex 7 2 1.5
      vertex 6 2 1.5
    endloop
  endfacet
  facet normal 0 -1 -0
    outer loop
      vertex 7 2 1.5
      vertex 6 2 0
      vertex 7 2 0
    endloop
  endfacet
  facet normal 1 -0 0
    outer loop
      vertex 7 2 1.5
      vertex 7 3 0
      vertex 7 3 1.5
    endloop
  endfacet
  facet normal 1 0 0
    outer loop
      vertex 7 3 0
      vertex 7 2 1.5
      vertex 7 2 0
    endloop
  endfacet
  facet normal 0 -1 0
    outer loop
      vertex 7 3 0
      vertex 8 3 1.5
      vertex 7 3 1.5
    endloop
  endfacet
  facet normal 0 -1 -0
    outer loop
      vertex 8 3 1.5
      vertex 7 3 0
      vertex 8 3 0
    endloop
  endfacet
  facet normal 0 -1 0
    outer loop
      vertex 8 4 1.5
      vertex 9 4 3
      vertex 8 4 3
    endloop
  endfacet
  facet normal 0 -1 0
    outer loop
      vertex 8 4 1.5
      vertex 9 4 1.5
      vertex 9 4 3
    endloop
  endfacet
  facet normal 0 -1 0
    outer loop
      vertex 8 4 0
      vertex 9 4 1.5
      vertex 8 4 1.5
    endloop
  endfacet
  facet normal 0 -1 -0
    outer loop
      vertex 9 4 1.5
      vertex 8 4 0
      vertex 9 4 0
    endloop
  endfacet
  facet normal 0 -1 0
    outer loop
      vertex 9 3 1.5
      vertex 10 3 3
      vertex 9 3 3
    endloop
  endfacet
  facet normal 0 -1 -0
    outer loop
      vertex 10 3 3
      vertex 9 3 1.5
      vertex 10 3 1.5
    endloop
  endfacet
  facet normal -1 0 0
    outer loop
      vertex 10 0 1.5
      vertex 10 3 3
      vertex 10 3 1.5
    endloop
  endfacet
  facet normal -1 -0 0
    outer loop
      vertex 10 3 3
      vertex 10 0 1.5
      vertex 10 0 3
    endloop
  endfacet
  facet normal 0 1 -0
    outer loop
      vertex 12 1 1.5
      vertex 11 1 3
      vertex 12 1 3
    endloop
  endfacet
  facet normal 0 1 0
    outer loop
      vertex 11 1 3
      vertex 12 1 1.5
      vertex 11 1 1.5
    endloop
  endfacet
  facet normal 1 0 0
    outer loop
      vertex 11 5 3
      vertex 11 4 1.5
      vertex 11 5 0
    endloop
  endfacet
  facet normal 1 -0 0
    outer loop
      vertex 11 1 3
      vertex 11 4 1.5
      vertex 11 5 3
    endloop
  endfacet
  facet normal 1 0 0
    outer loop
      vertex 11 4 1.5
      vertex 11 1 3
      vertex 11 1 1.5
    endloop
  endfacet
  facet normal 1 0 0
    outer loop
      vertex 11 5 0
      vertex 11 4 1.5
      vertex 11 4 0
    endloop
  endfacet
  facet normal 0 -1 0
    outer loop
      vertex 11 5 0
      vertex 12 5 3
      vertex 11 5 3
    endloop
  endfacet
  facet normal 0 -1 -0
    outer loop
      vertex 12 5 3
      vertex 11 5 0
      vertex 12 5 0
    endloop
  endfacet
  facet normal 1 -0 0
    outer loop
      vertex 12 5 3
      vertex 12 6 0
      vertex 12 6 3
    endloop
  endfacet
  facet normal 1 0 0
    outer loop
      vertex 12 6 0
      vertex 12 5 3
      vertex 12 5 0
    endloop
  endfacet
  facet normal 0 -1 0
    outer loop
      vertex 12 6 0
      vertex 13 6 3
      vertex 12 6 3
    endloop
  endfacet
  facet normal 0 -1 -0
    outer loop
      vertex 13 6 3
      vertex 12 6 0
      vertex 13 6 0
    endloop
  endfacet
  facet normal 1 -0 0
    outer loop
      vertex 13 6 3
      vertex 13 8 0
      vertex 13 8 3
    endloop
  endfacet
  facet normal 1 0 0
    outer loop
      vertex 13 8 0
      vertex 13 6 3
      vertex 13 6 0
    endloop
  endfacet
  facet normal 0 -1 0
    outer loop
      vertex 13 8 0
      vertex 14 8 3
      vertex 13 8 3
    endloop
  endfacet
  facet normal 0 -1 -0
    outer loop
      vertex 14 8 3
      vertex 13 8 0
      vertex 14 8 0
    endloop
  endfacet
  facet normal 0 -1 0
    outer loop
      vertex 14 11 0
      vertex 15 11 1
      vertex 14 11 1
    endloop
  endfacet
  facet normal 0 -1 -0
    outer loop
      vertex 15 11 1
      vertex 14 11 0
      vertex 15 11 0
    endloop
  endfacet
  facet normal 0 -1 0
    outer loop
      vertex 14 11 2
      vertex 15 11 3
      vertex 14 11 3
    endloop
  endfacet
  facet normal 0 -1 -0
    outer loop
      vertex 15 11 3
      vertex 14 11 2
      vertex 15 11 2
    endloop
  endfacet
  facet normal -1 0 0
    outer loop
      vertex 15 10 0
      vertex 15 11 1
      vertex 15 11 0
    endloop
  endfacet
  facet normal -1 -0 0
    outer loop
      vertex 15 11 1
      vertex 15 10 0
      vertex 15 10 1
    endloop
  endfacet
  facet normal -1 0 0
    outer loop
      vertex 15 10 2
      vertex 15 11 3
      vertex 15 11 2
    endloop
  endfacet
  facet normal -1 -0 0
    outer loop
      vertex 15 11 3
      vertex 15 10 2
      vertex 15 10 3
    endloop
  endfacet
  facet normal 1 0 0
    outer loop
      vertex 14 12 2
      vertex 14 14 3
      vertex 14 12 3
    endloop
  endfacet
  facet normal 1 0 0
    outer loop
      vertex 14 14 3
      vertex 14 12 2
      vertex 14 14 0
    endloop
  endfacet
  facet normal 1 -0 0
    outer loop
      vertex 14 12 1
      vertex 14 14 0
      vertex 14 12 2
    endloop
  endfacet
  facet normal 1 0 0
    outer loop
      vertex 14 14 0
      vertex 14 12 1
      vertex 14 12 0
    endloop
  endfacet
  facet normal 0 -1 0
    outer loop
      vertex 14 14 0
      vertex 18 14 3
      vertex 14 14 3
    endloop
  endfacet
  facet normal 0 -1 -0
    outer loop
      vertex 18 14 3
      vertex 14 14 0
      vertex 18 14 0
    endloop
  endfacet
  facet normal 1 -0 0
    outer loop
      vertex 18 14 3
      vertex 18 15 0
      vertex 18 15 3
    endloop
  endfacet
  facet normal 1 0 0
    outer loop
      vertex 18 15 0
      vertex 18 14 3
      vertex 18 14 0
    endloop
  endfacet
  facet normal 0 1 -0
    outer loop
      vertex 18 15 0
      vertex 15 15 3
      vertex 18 15 3
    endloop
  endfacet
  facet normal 0 1 0
    outer loop
      vertex 15 15 3
      vertex 18 15 0
      vertex 15 15 0
    endloop
  endfacet
  facet normal 1 -0 0
    outer loop
      vertex 15 15 3
      vertex 15 16 0
      vertex 15 16 3
    endloop
  endfacet
  facet normal 1 0 0
    outer loop
      vertex 15 16 0
      vertex 15 15 3
      vertex 15 15 0
    endloop
  endfacet
  facet normal 0 -1 0
    outer loop
      vertex 15 16 0
      vertex 20 16 3
      vertex 15 16 3
    endloop
  endfacet
  facet normal 0 -1 -0
    outer loop
      vertex 20 16 3
      vertex 15 16 0
      vertex 20 16 0
    endloop
  endfacet
  facet normal 1 -0 0
    outer loop
      vertex 20 16 3
      vertex 20 21 0
      vertex 20 21 3
    endloop
  endfacet
  facet normal 1 0 0
    outer loop
      vertex 20 21 0
      vertex 20 16 3
      vertex 20 16 0
    endloop
  endfacet
  facet normal 0 1 -0
    outer loop
      vertex 20 21 0
      vertex 19 21 3
      vertex 20 21 3
    endloop
  endfacet
  facet normal 0 1 0
    outer loop
      vertex 19 21 3
      vertex 20 21 0
      vertex 19 21 0
    endloop
  endfacet
  facet normal 1 -0 0
    outer loop
      vertex 19 21 3
      vertex 19 22 0
      vertex 19 22 3
    endloop
  endfacet
  facet normal 1 0 0
    outer loop
      vertex 19 22 0
      vertex 19 21 3
      vertex 19 21 0
    endloop
  endfacet
  facet normal 0 1 -0
    outer loop
      vertex 19 22 0
      vertex 11 22 3
      vertex 19 22 3
    endloop
  endfacet
  facet normal 0 1 0
    outer loop
      vertex 11 22 3
      vertex 19 22 0
      vertex 11 22 0
    endloop
  endfacet
  facet normal -1 0 0
    outer loop
      vertex 11 21 0
      vertex 11 22 3
      vertex 11 22 0
    endloop
  endfacet
  facet normal -1 -0 0
    outer loop
      vertex 11 22 3
      vertex 11 21 0
      vertex 11 21 3
    endloop
  endfacet
  facet normal 0 1 -0
    outer loop
      vertex 11 21 0
      vertex 10 21 3
      vertex 11 21 3
    endloop
  endfacet
  facet normal 0 1 0
    outer loop
      vertex 10 21 3
      vertex 11 21 0
      vertex 10 21 0
    endloop
  endfacet
  facet normal -1 0 0
    outer loop
      vertex 10 14 0
      vertex 10 21 3
      vertex 10 21 0
    endloop
  endfacet
  facet normal -1 -0 0
    outer loop
      vertex 10 21 3
      vertex 10 14 0
      vertex 10 14 3
    endloop
  endfacet
  facet normal 0 1 -0
    outer loop
      vertex 10 14 0
      vertex 9 14 3
      vertex 10 14 3
    endloop
  endfacet
  facet normal 0 1 0
    outer loop
      vertex 9 14 3
      vertex 10 14 0
      vertex 9 14 0
    endloop
  endfacet
  facet normal -1 0 0
    outer loop
      vertex 9 13 0
      vertex 9 14 3
      vertex 9 14 0
    endloop
  endfacet
  facet normal -1 -0 0
    outer loop
      vertex 9 14 3
      vertex 9 13 0
      vertex 9 13 3
    endloop
  endfacet
  facet normal 0 1 -0
    outer loop
      vertex 9 13 0
      vertex 8 13 3
      vertex 9 13 3
    endloop
  endfacet
  facet normal 0 1 0
    outer loop
      vertex 8 13 3
      vertex 9 13 0
      vertex 8 13 0
    endloop
  endfacet
  facet normal -1 0 0
    outer loop
      vertex 8 12 0
      vertex 8 13 3
      vertex 8 13 0
    endloop
  endfacet
  facet normal -1 -0 0
    outer loop
      vertex 8 13 3
      vertex 8 12 0
      vertex 8 12 3
    endloop
  endfacet
  facet normal 0 1 -0
    outer loop
      vertex 8 12 0
      vertex 6 12 3
      vertex 8 12 3
    endloop
  endfacet
  facet normal 0 1 0
    outer loop
      vertex 6 12 3
      vertex 8 12 0
      vertex 6 12 0
    endloop
  endfacet
  facet normal -1 0 0
    outer loop
      vertex 6 11 0
      vertex 6 12 3
      vertex 6 12 0
    endloop
  endfacet
  facet normal -1 -0 0
    outer loop
      vertex 6 12 3
      vertex 6 11 0
      vertex 6 11 3
    endloop
  endfacet
  facet normal 0 1 -0
    outer loop
      vertex 6 11 0
      vertex 5 11 3
      vertex 6 11 3
    endloop
  endfacet
  facet normal 0 1 0
    outer loop
      vertex 5 11 3
      vertex 6 11 0
      vertex 5 11 0
    endloop
  endfacet
  facet normal -1 0 0
    outer loop
      vertex 5 10 0
      vertex 5 11 3
      vertex 5 11 0
    endloop
  endfacet
  facet normal -1 -0 0
    outer loop
      vertex 5 11 3
      vertex 5 10 0
      vertex 5 10 3
    endloop
  endfacet
  facet normal 0 1 -0
    outer loop
      vertex 5 10 0
      vertex 3 10 3
      vertex 5 10 3
    endloop
  endfacet
  facet normal 0 1 0
    outer loop
      vertex 3 10 3
      vertex 5 10 0
      vertex 3 10 0
    endloop
  endfacet
  facet normal 1 -0 0
    outer loop
      vertex 3 10 3
      vertex 3 11 0
      vertex 3 11 3
    endloop
  endfacet
  facet normal 1 0 0
    outer loop
      vertex 3 11 0
      vertex 3 10 3
      vertex 3 10 0
    endloop
  endfacet
  facet normal 0 1 -0
    outer loop
      vertex 3 11 0
      vertex 2 11 3
      vertex 3 11 3
    endloop
  endfacet
  facet normal 0 1 0
    outer loop
      vertex 2 11 3
      vertex 3 11 0
      vertex 2 11 0
    endloop
  endfacet
  facet normal 1 -0 0
    outer loop
      vertex 2 11 3
      vertex 2 12 0
      vertex 2 12 3
    endloop
  endfacet
  facet normal 1 0 0
    outer loop
      vertex 2 12 0
      vertex 2 11 3
      vertex 2 11 0
    endloop
  endfacet
  facet normal 0 1 -0
    outer loop
      vertex 2 12 0
      vertex 1 12 3
      vertex 2 12 3
    endloop
  endfacet
  facet normal 0 1 0
    outer loop
      vertex 1 12 3
      vertex 2 12 0
      vertex 1 12 0
    endloop
  endfacet
  facet normal 1 -0 0
    outer loop
      vertex 1 12 3
      vertex 1 14 0
      vertex 1 14 3
    endloop
  endfacet
  facet normal 1 0 0
    outer loop
      vertex 1 14 0
      vertex 1 12 3
      vertex 1 12 0
    endloop
  endfacet
  facet normal 0 1 -0
    outer loop
      vertex 1 14 0
      vertex 0 14 3
      vertex 1 14 3
    endloop
  endfacet
  facet normal 0 1 0
    outer loop
      vertex 0 14 3
      vertex 1 14 0
      vertex 0 14 0
    endloop
  endfacet
  facet normal -1 0 0
    outer loop
      vertex 0 8 0
      vertex 0 14 3
      vertex 0 14 0
    endloop
  endfacet
  facet normal -1 -0 0
    outer loop
      vertex 0 14 3
      vertex 0 8 0
      vertex 0 8 3
    endloop
  endfacet
  facet normal 0 -1 0
    outer loop
      vertex 0 8 0
      vertex 1 8 3
      vertex 0 8 3
    endloop
  endfacet
  facet normal 0 -1 -0
    outer loop
      vertex 1 8 3
      vertex 0 8 0
      vertex 1 8 0
    endloop
  endfacet
  facet normal -1 0 0
    outer loop
      vertex 1 7 0
      vertex 1 8 3
      vertex 1 8 0
    endloop
  endfacet
  facet normal -1 -0 0
    outer loop
      vertex 1 8 3
      vertex 1 7 0
      vertex 1 7 3
    endloop
  endfacet
  facet normal 0 -1 0
    outer loop
      vertex 1 7 0
      vertex 2 7 3
      vertex 1 7 3
    endloop
  endfacet
  facet normal 0 -1 -0
    outer loop
      vertex 2 7 3
      vertex 1 7 0
      vertex 2 7 0
    endloop
  endfacet
  facet normal -1 0 0
    outer loop
      vertex 2 6 0
      vertex 2 7 3
      vertex 2 7 0
    endloop
  endfacet
  facet normal -1 -0 0
    outer loop
      vertex 2 7 3
      vertex 2 6 0
      vertex 2 6 3
    endloop
  endfacet
  facet normal 0 -1 0
    outer loop
      vertex 2 6 0
      vertex 3 6 3
      vertex 2 6 3
    endloop
  endfacet
  facet normal 0 -1 -0
    outer loop
      vertex 3 6 3
      vertex 2 6 0
      vertex 3 6 0
    endloop
  endfacet
  facet normal -1 0 0
    outer loop
      vertex 3 5 0
      vertex 3 6 3
      vertex 3 6 0
    endloop
  endfacet
  facet normal -1 -0 0
    outer loop
      vertex 3 6 3
      vertex 3 5 0
      vertex 3 5 3
    endloop
  endfacet
  facet normal 0 -1 0
    outer loop
      vertex 3 5 0
      vertex 4 5 3
      vertex 3 5 3
    endloop
  endfacet
  facet normal 0 -1 -0
    outer loop
      vertex 4 5 3
      vertex 3 5 0
      vertex 4 5 0
    endloop
  endfacet
  facet normal -1 0 0
    outer loop
      vertex 4 4 0
      vertex 4 5 3
      vertex 4 5 0
    endloop
  endfacet
  facet normal -1 -0 0
    outer loop
      vertex 4 5 3
      vertex 4 4 0
      vertex 4 4 3
    endloop
  endfacet
  facet normal 0 -1 0
    outer loop
      vertex 4 4 3
      vertex 5 4 1.5
      vertex 5 4 3
    endloop
  endfacet
  facet normal 0 -1 0
    outer loop
      vertex 4 4 0
      vertex 5 4 1.5
      vertex 4 4 3
    endloop
  endfacet
  facet normal 0 -1 -0
    outer loop
      vertex 5 4 1.5
      vertex 4 4 0
      vertex 5 4 0
    endloop
  endfacet
  facet normal 1 -0 0
    outer loop
      vertex 7 0 1.5
      vertex 7 1 0
      vertex 7 1 1.5
    endloop
  endfacet
  facet normal 1 0 0
    outer loop
      vertex 7 1 0
      vertex 7 0 1.5
      vertex 7 0 0
    endloop
  endfacet
endsolid OpenSCAD_Model
